{
	"accessors": [
		{
			"bufferView": 0,
			"byteOffset": 0,
			"componentType": 5126,
			"count": 51070,
			"max": [
				21.836715698242188,
				15.173596382141113,
				-0.33013916015625
			],
			"min": [
				-21.966474533081055,
				-17.437015533447266,
				-15.865922927856445
			],
			"type": "VEC3"
		},
		{
			"bufferView": 1,
			"byteOffset": 0,
			"componentType": 5126,
			"count": 51070,
			"type": "VEC3"
		},
		{
			"bufferView": 2,
			"byteOffset": 0,
			"componentType": 5126,
			"count": 51070,
			"type": "VEC4"
		},
		{
			"bufferView": 3,
			"byteOffset": 0,
			"componentType": 5126,
			"count": 51070,
			"type": "VEC2"
		},
		{
			"bufferView": 4,
			"byteOffset": 0,
			"componentType": 5123,
			"count": 114972,
			"type": "SCALAR"
		}
	],
	"asset": {
		"generator": "Gestaltor 2020.2.1 Alpha 'Zuckerwatte' (CI-38fb8ee1*)",
		"version": "2.0"
	},
	"bufferViews": [
		{
			"buffer": 0,
			"byteLength": 612840,
			"byteOffset": 0
		},
		{
			"buffer": 0,
			"byteLength": 612840,
			"byteOffset": 612840
		},
		{
			"buffer": 0,
			"byteLength": 817120,
			"byteOffset": 1225680
		},
		{
			"buffer": 0,
			"byteLength": 408560,
			"byteOffset": 2042800
		},
		{
			"buffer": 0,
			"byteLength": 229944,
			"byteOffset": 2451360
		}
	],
	"buffers": [
		{
			"byteLength": 2681304,
			"uri": "Chromance_single_GLTF.bin"
		}
	],
	"images": [
		{
			"mimeType": "image/png",
			"name": "chromance_diffuse",
			"uri": "Chromance_single_GLTF_image_0.png"
		},
		{
			"mimeType": "image/jpeg",
			"uri": "armacao_normals.jpg"
		},
		{
			"mimeType": "image/png",
			"uri": "ORM.png"
		}
	],
	"materials": [
		{
			"alphaMode": "BLEND",
			"doubleSided": false,
			"emissiveFactor": [
				0.0,
				0.0,
				0.0
			],
			"name": "Material #165",
			"normalTexture": {
				"index": 1,
				"scale": 1.0
			},
			"occlusionTexture": {
				"index": 2,
				"strength": 1.0
			},
			"pbrMetallicRoughness": {
				"baseColorTexture": {
					"index": 0,
					"texCoord": 0
				},
				"metallicFactor": 1.0,
				"metallicRoughnessTexture": {
					"index": 2
				},
				"roughnessFactor": 1.0
			}
		}
	],
	"meshes": [
		{
			"name": "Mesh",
			"primitives": [
				{
					"attributes": {
						"NORMAL": 1,
						"POSITION": 0,
						"TANGENT": 2,
						"TEXCOORD_0": 3
					},
					"indices": 4,
					"material": 0,
					"mode": 4
				}
			]
		}
	],
	"nodes": [
		{
			"mesh": 0,
			"name": "armacao",
			"rotation": [
				-0.6559973359107971,
				0.01878824084997177,
				0.02160141058266163,
				0.7542200684547424
			],
			"scale": [
				-0.003612387925386429,
				-0.0036123881582170725,
				-0.0036123881582170725
			]
		}
	],
	"samplers": [
		{}
	],
	"scene": 0,
	"scenes": [
		{
			"name": "Scene",
			"nodes": [
				0
			]
		}
	],
	"textures": [
		{
			"sampler": 0,
			"source": 0
		},
		{
			"sampler": 0,
			"source": 1
		},
		{
			"sampler": 0,
			"source": 2
		}
	]
}