{
    "asset": {
        "version": "2.0",
        "generator": "Open Asset Import Library (assimp v5.0.5eb040c7)"
    },
    "accessors": [
        {
            "bufferView": 0,
            "byteOffset": 0,
            "componentType": 5126,
            "count": 8610,
            "type": "VEC3",
            "max": [
                0.08160000294446945,
                0.04560000076889992,
                0.20010000467300416
            ],
            "min": [
                -0.08160000294446945,
                -0.0007999999797903001,
                0.08370000123977661
            ]
        },
        {
            "bufferView": 1,
            "byteOffset": 0,
            "componentType": 5126,
            "count": 8610,
            "type": "VEC3",
            "max": [
                0.9999371767044067,
                0.9999167919158936,
                0.9998910427093506
            ],
            "min": [
                -0.9999371767044067,
                -0.9998037219047546,
                -0.9997358918190002
            ]
        },
        {
            "bufferView": 2,
            "byteOffset": 0,
            "componentType": 5126,
            "count": 8610,
            "type": "VEC2",
            "max": [
                0.9994999766349793,
                0.9994999766349793
            ],
            "min": [
                0.0005000000237487257,
                0.005800008773803711
            ]
        },
        {
            "bufferView": 3,
            "byteOffset": 0,
            "componentType": 5125,
            "count": 45924,
            "type": "SCALAR",
            "max": [
                8609
            ],
            "min": [
                0
            ]
        },
        {
            "bufferView": 4,
            "byteOffset": 0,
            "componentType": 5126,
            "count": 17606,
            "type": "VEC3",
            "max": [
                0.06809999793767929,
                0.04309999942779541,
                0.19869999587535859
            ],
            "min": [
                -0.06769999861717224,
                0.000699999975040555,
                0.18870000541210175
            ]
        },
        {
            "bufferView": 5,
            "byteOffset": 0,
            "componentType": 5126,
            "count": 17606,
            "type": "VEC3",
            "max": [
                0.9986245036125183,
                0.9991815090179443,
                0.9999788999557495
            ],
            "min": [
                -0.9986245036125183,
                -0.9999957084655762,
                -0.9974278211593628
            ]
        },
        {
            "bufferView": 6,
            "byteOffset": 0,
            "componentType": 5126,
            "count": 17606,
            "type": "VEC2",
            "max": [
                1.0,
                0.5049999952316284
            ],
            "min": [
                0.0,
                0.4950000047683716
            ]
        },
        {
            "bufferView": 7,
            "byteOffset": 0,
            "componentType": 5125,
            "count": 105072,
            "type": "SCALAR",
            "max": [
                17605
            ],
            "min": [
                0
            ]
        }
    ],
    "buffers": [
        {
            "byteLength": 1442896,
            "uri": "result.bin"
        }
    ],
    "bufferViews": [
        {
            "buffer": 0,
            "byteOffset": 0,
            "byteLength": 103320,
            "target": 34962
        },
        {
            "buffer": 0,
            "byteOffset": 103320,
            "byteLength": 103320,
            "target": 34962
        },
        {
            "buffer": 0,
            "byteOffset": 206640,
            "byteLength": 68880,
            "target": 34962
        },
        {
            "buffer": 0,
            "byteOffset": 275520,
            "byteLength": 183696,
            "target": 34963
        },
        {
            "buffer": 0,
            "byteOffset": 459216,
            "byteLength": 211272,
            "target": 34962
        },
        {
            "buffer": 0,
            "byteOffset": 670488,
            "byteLength": 211272,
            "target": 34962
        },
        {
            "buffer": 0,
            "byteOffset": 881760,
            "byteLength": 140848,
            "target": 34962
        },
        {
            "buffer": 0,
            "byteOffset": 1022608,
            "byteLength": 420288,
            "target": 34963
        }
    ],
    "materials": [
        {
            "name": "DefaultMaterial",
            "pbrMetallicRoughness": {
                "baseColorFactor": [
                    0.6000000238418579,
                    0.6000000238418579,
                    0.6000000238418579,
                    1.0
                ],
                "metallicFactor": 0.0
            }
        },
        {
            "name": "Material__125",
            "pbrMetallicRoughness": {
                "baseColorFactor": [
                    0.6000000238418579,
                    0.6000000238418579,
                    0.6000000238418579,
                    1.0
                ],
                "metallicFactor": 0.0
            }
        },
        {
            "name": "Material__72",
            "pbrMetallicRoughness": {
                "baseColorFactor": [
                    0.6000000238418579,
                    0.6000000238418579,
                    0.6000000238418579,
                    1.0
                ],
                "metallicFactor": 0.0
            }
        }
    ],
    "meshes": [
        {
            "name": "Modelo_obj",
            "primitives": [
                {
                    "mode": 4,
                    "material": 1,
                    "indices": 3,
                    "attributes": {
                        "POSITION": 0,
                        "NORMAL": 1,
                        "TEXCOORD_0": 2
                    }
                }
            ]
        },
        {
            "name": "Lentes_obj",
            "primitives": [
                {
                    "mode": 4,
                    "material": 2,
                    "indices": 7,
                    "attributes": {
                        "POSITION": 4,
                        "NORMAL": 5,
                        "TEXCOORD_0": 6
                    }
                }
            ]
        }
    ],
    "nodes": [
        {
            "name": "input.obj",
            "children": [
                1,
                2,
                3,
                4
            ]
        },
        {
            "name": "Modelo_obj"
        },
        {
            "name": "Modelo_obj_node",
            "mesh": 0
        },
        {
            "name": "Lentes_obj"
        },
        {
            "name": "Lentes_obj_node",
            "mesh": 1
        }
    ],
    "scenes": [
        {
            "nodes": [
                0
            ]
        }
    ],
    "scene": 0
}