{
	"accessors": [
		{
			"bufferView": 0,
			"byteOffset": 0,
			"componentType": 5126,
			"count": 16291,
			"max": [
				52.07691955566406,
				34.00751495361328,
				-1.5628948211669922
			],
			"min": [
				-52.52995681762695,
				-39.185855865478516,
				-35.121212005615234
			],
			"type": "VEC3"
		},
		{
			"bufferView": 1,
			"byteOffset": 0,
			"componentType": 5126,
			"count": 16291,
			"type": "VEC3"
		},
		{
			"bufferView": 2,
			"byteOffset": 0,
			"componentType": 5126,
			"count": 16291,
			"type": "VEC4"
		},
		{
			"bufferView": 3,
			"byteOffset": 0,
			"componentType": 5126,
			"count": 16291,
			"type": "VEC2"
		},
		{
			"bufferView": 4,
			"byteOffset": 0,
			"componentType": 5123,
			"count": 88560,
			"type": "SCALAR"
		},
		{
			"bufferView": 5,
			"byteOffset": 0,
			"componentType": 5126,
			"count": 3541,
			"max": [
				48.23570251464844,
				33.646949768066406,
				-1.956573486328125
			],
			"min": [
				-42.70597839355469,
				23.365066528320313,
				-34.74523162841797
			],
			"type": "VEC3"
		},
		{
			"bufferView": 6,
			"byteOffset": 0,
			"componentType": 5126,
			"count": 3541,
			"type": "VEC3"
		},
		{
			"bufferView": 7,
			"byteOffset": 0,
			"componentType": 5126,
			"count": 3541,
			"type": "VEC4"
		},
		{
			"bufferView": 8,
			"byteOffset": 0,
			"componentType": 5126,
			"count": 3541,
			"type": "VEC2"
		},
		{
			"bufferView": 9,
			"byteOffset": 0,
			"componentType": 5123,
			"count": 20400,
			"type": "SCALAR"
		}
	],
	"asset": {
		"generator": "Gestaltor 2020.2.1 Alpha 'Zuckerwatte' (CI-38fb8ee1*)",
		"version": "2.0"
	},
	"bufferViews": [
		{
			"buffer": 0,
			"byteLength": 195492,
			"byteOffset": 0
		},
		{
			"buffer": 0,
			"byteLength": 195492,
			"byteOffset": 195492
		},
		{
			"buffer": 0,
			"byteLength": 260656,
			"byteOffset": 390984
		},
		{
			"buffer": 0,
			"byteLength": 130328,
			"byteOffset": 651640
		},
		{
			"buffer": 0,
			"byteLength": 177120,
			"byteOffset": 781968
		},
		{
			"buffer": 0,
			"byteLength": 42492,
			"byteOffset": 959088
		},
		{
			"buffer": 0,
			"byteLength": 42492,
			"byteOffset": 1001580
		},
		{
			"buffer": 0,
			"byteLength": 56656,
			"byteOffset": 1044072
		},
		{
			"buffer": 0,
			"byteLength": 28328,
			"byteOffset": 1100728
		},
		{
			"buffer": 0,
			"byteLength": 40800,
			"byteOffset": 1129056
		}
	],
	"buffers": [
		{
			"byteLength": 1169856,
			"uri": "lenteseparada.bin"
		}
	],
	"images": [
		{
			"mimeType": "image/jpeg",
			"name": "aramacao_normals",
			"uri": "aramacao_normals.jpg"
		},
		{
			"mimeType": "image/jpeg",
			"name": "aramacao_diffuse",
			"uri": "aramacao_diffuse.jpg"
		},
		{
			"mimeType": "image/jpeg",
			"name": "ORM",
			"uri": "ORM.jpg"
		}
	],
	"materials": [
		{
			"doubleSided": true,
			"emissiveFactor": [
				0.0,
				0.0,
				0.0
			],
			"name": "Material #173",
			"normalTexture": {
				"index": 0,
				"scale": 1.0,
				"texCoord": 0
			},
			"pbrMetallicRoughness": {
				"baseColorFactor": [
					1.0,
					1.0,
					1.0,
					1.0
				],
				"baseColorTexture": {
					"index": 1,
					"texCoord": 0
				},
				"metallicRoughnessTexture": {
					"index": 2,
					"texCoord": 0
				}
			}
		},
		{
			"alphaMode": "BLEND",
			"doubleSided": false,
			"emissiveFactor": [
				0.0,
				0.0,
				0.0
			],
			"name": "Material #175",
			"normalTexture": {
				"index": 3,
				"scale": 1.0,
				"texCoord": 0
			},
			"pbrMetallicRoughness": {
				"baseColorFactor": [
					0.003921568859368563,
					0.007843137718737125,
					0.003921568859368563,
					0.9700000286102295
				],
				"metallicRoughnessTexture": {
					"index": 4,
					"texCoord": 0
				}
			}
		}
	],
	"meshes": [
		{
			"name": "Mesh",
			"primitives": [
				{
					"attributes": {
						"NORMAL": 1,
						"POSITION": 0,
						"TANGENT": 2,
						"TEXCOORD_0": 3
					},
					"indices": 4,
					"material": 0,
					"mode": 4
				}
			]
		},
		{
			"name": "Mesh.001",
			"primitives": [
				{
					"attributes": {
						"NORMAL": 6,
						"POSITION": 5,
						"TANGENT": 7,
						"TEXCOORD_0": 8
					},
					"indices": 9,
					"material": 1,
					"mode": 4
				}
			]
		}
	],
	"nodes": [
		{
			"mesh": 0,
			"name": "aramacao",
			"rotation": [
				0.7543634176254272,
				-0.0329362191259861,
				0.028598202392458916,
				0.6550062298774719
			],
			"scale": [
				0.0015551201067864895,
				0.0015551199903711677,
				0.0015551199903711677
			]
		},
		{
			"mesh": 1,
			"name": "lentes",
			"rotation": [
				0.7543634176254272,
				-0.0329362191259861,
				0.028598202392458916,
				0.6550062298774719
			],
			"scale": [
				0.0015551201067864895,
				0.0015551199903711677,
				0.0015551199903711677
			]
		}
	],
	"scene": 0,
	"scenes": [
		{
			"name": "Scene",
			"nodes": [
				0,
				1
			]
		}
	],
	"textures": [
		{
			"source": 0
		},
		{
			"source": 1
		},
		{
			"source": 2
		},
		{
			"source": 0
		},
		{
			"source": 2
		}
	]
}