{
	"accessors": [
		{
			"bufferView": 0,
			"byteOffset": 0,
			"componentType": 5126,
			"count": 48012,
			"max": [
				29.140766143798828,
				20.321266174316406,
				-2.0567588806152344
			],
			"min": [
				-29.007526397705078,
				-23.697586059570313,
				-21.936573028564453
			],
			"type": "VEC3"
		},
		{
			"bufferView": 1,
			"byteOffset": 0,
			"componentType": 5126,
			"count": 48012,
			"type": "VEC3"
		},
		{
			"bufferView": 2,
			"byteOffset": 0,
			"componentType": 5126,
			"count": 48012,
			"type": "VEC2"
		},
		{
			"bufferView": 3,
			"byteOffset": 0,
			"componentType": 5123,
			"count": 82284,
			"type": "SCALAR"
		},
		{
			"bufferView": 4,
			"byteOffset": 0,
			"componentType": 5126,
			"count": 3948,
			"max": [
				27.39175796508789,
				19.972068786621094,
				-2.389653205871582
			],
			"min": [
				-24.108139038085938,
				13.336907386779785,
				-21.556718826293945
			],
			"type": "VEC3"
		},
		{
			"bufferView": 5,
			"byteOffset": 0,
			"componentType": 5126,
			"count": 3948,
			"type": "VEC3"
		},
		{
			"bufferView": 6,
			"byteOffset": 0,
			"componentType": 5126,
			"count": 3948,
			"type": "VEC2"
		},
		{
			"bufferView": 7,
			"byteOffset": 0,
			"componentType": 5123,
			"count": 21240,
			"type": "SCALAR"
		},
		{
			"bufferView": 8,
			"byteOffset": 0,
			"componentType": 5126,
			"count": 3584,
			"max": [
				6.214845657348633,
				17.47924041748047,
				-8.072086334228516
			],
			"min": [
				-3.148514747619629,
				13.975141525268555,
				-12.646000862121582
			],
			"type": "VEC3"
		},
		{
			"bufferView": 9,
			"byteOffset": 0,
			"componentType": 5126,
			"count": 3584,
			"type": "VEC3"
		},
		{
			"bufferView": 10,
			"byteOffset": 0,
			"componentType": 5126,
			"count": 3584,
			"type": "VEC2"
		},
		{
			"bufferView": 11,
			"byteOffset": 0,
			"componentType": 5123,
			"count": 5376,
			"type": "SCALAR"
		}
	],
	"asset": {
		"generator": "Gestaltor 2020.2.0 Alpha 'Schokoei' (CI-cce52488*)",
		"version": "2.0"
	},
	"bufferViews": [
		{
			"buffer": 0,
			"byteLength": 576144,
			"byteOffset": 0
		},
		{
			"buffer": 0,
			"byteLength": 576144,
			"byteOffset": 576144
		},
		{
			"buffer": 0,
			"byteLength": 384096,
			"byteOffset": 1152288
		},
		{
			"buffer": 0,
			"byteLength": 164568,
			"byteOffset": 1536384
		},
		{
			"buffer": 0,
			"byteLength": 47376,
			"byteOffset": 1700952
		},
		{
			"buffer": 0,
			"byteLength": 47376,
			"byteOffset": 1748328
		},
		{
			"buffer": 0,
			"byteLength": 31584,
			"byteOffset": 1795704
		},
		{
			"buffer": 0,
			"byteLength": 42480,
			"byteOffset": 1827288
		},
		{
			"buffer": 0,
			"byteLength": 43008,
			"byteOffset": 1869768
		},
		{
			"buffer": 0,
			"byteLength": 43008,
			"byteOffset": 1912776
		},
		{
			"buffer": 0,
			"byteLength": 28672,
			"byteOffset": 1955784
		},
		{
			"buffer": 0,
			"byteLength": 10752,
			"byteOffset": 1984456
		}
	],
	"buffers": [
		{
			"byteLength": 1995208,
			"uri": "Square_app.bin"
		}
	],
	"images": [
		{
			"mimeType": "image/png",
			"name": "Square_diffuse",
			"uri": "Square_app_image_0.png"
		},
		{
			"mimeType": "image/png",
			"name": "Square_occlusion",
			"uri": "Square_app_image_1.png"
		}
	],
	"materials": [
		{
			"doubleSided": true,
			"emissiveFactor": [
				0.0,
				0.0,
				0.0
			],
			"name": "armacao mat",
			"occlusionTexture": {
				"index": 1,
				"strength": 1.0,
				"texCoord": 0
			},
			"pbrMetallicRoughness": {
				"baseColorTexture": {
					"index": 0,
					"texCoord": 0
				},
				"metallicFactor": 1.0,
				"roughnessFactor": 0.2
			}
		},
		{
			"alphaMode": "BLEND",
			"doubleSided": true,
			"emissiveFactor": [
				0.0,
				0.0,
				0.0
			],
			"name": "Lentes mat",
			"pbrMetallicRoughness": {
				"baseColorTexture": {
					"index": 0,
					"texCoord": 0
				},
				"metallicFactor": 0.0,
				"roughnessFactor": 0.1
			}
		},
		{
			"alphaMode": "BLEND",
			"doubleSided": true,
			"emissiveFactor": [
				0.0,
				0.0,
				0.0
			],
			"name": "Pontes mat",
			"occlusionTexture": {
				"index": 1,
				"strength": 1.0,
				"texCoord": 0
			},
			"pbrMetallicRoughness": {
				"baseColorFactor": [
					0.6392157077789307,
					0.6392157077789307,
					0.6392157077789307,
					1.0
				],
				"baseColorTexture": {
					"index": 0,
					"texCoord": 0
				},
				"metallicFactor": 0.0,
				"roughnessFactor": 0.4
			}
		}
	],
	"meshes": [
		{
			"name": "Mesh",
			"primitives": [
				{
					"attributes": {
						"NORMAL": 1,
						"POSITION": 0,
						"TEXCOORD_0": 2
					},
					"indices": 3,
					"material": 0,
					"mode": 4
				}
			]
		},
		{
			"name": "Mesh.001",
			"primitives": [
				{
					"attributes": {
						"NORMAL": 5,
						"POSITION": 4,
						"TEXCOORD_0": 6
					},
					"indices": 7,
					"material": 1,
					"mode": 4
				}
			]
		},
		{
			"name": "Mesh.002",
			"primitives": [
				{
					"attributes": {
						"NORMAL": 9,
						"POSITION": 8,
						"TEXCOORD_0": 10
					},
					"indices": 11,
					"material": 2,
					"mode": 4
				}
			]
		}
	],
	"nodes": [
		{
			"mesh": 0,
			"name": "Line002",
			"rotation": [
				-0.6556298136711121,
				0.03310011699795723,
				0.038036003708839417,
				0.7533971071243286
			],
			"scale": [
				-0.0027983402833342552,
				-0.0027983402833342552,
				-0.0027983400505036116
			]
		},
		{
			"mesh": 1,
			"name": "Lentes",
			"rotation": [
				-0.6556298136711121,
				0.03310011699795723,
				0.038036003708839417,
				0.7533971071243286
			],
			"scale": [
				-0.0027983402833342552,
				-0.0027983402833342552,
				-0.0027983400505036116
			]
		},
		{
			"mesh": 2,
			"name": "Ponte",
			"rotation": [
				-0.6556298136711121,
				0.03310011699795723,
				0.038036003708839417,
				0.7533971071243286
			],
			"scale": [
				-0.0027983402833342552,
				-0.0027983402833342552,
				-0.0027983400505036116
			]
		}
	],
	"scene": 0,
	"scenes": [
		{
			"name": "Scene",
			"nodes": [
				0,
				1,
				2
			]
		}
	],
	"textures": [
		{
			"source": 0
		},
		{
			"source": 1
		}
	]
}