{
	"accessors": [
		{
			"bufferView": 0,
			"byteOffset": 0,
			"componentType": 5126,
			"count": 20096,
			"max": [
				327.2940673828125,
				211.61431884765625,
				-4.8923187255859375
			],
			"min": [
				-327.29449462890625,
				-245.9613037109375,
				-228.80206298828125
			],
			"type": "VEC3"
		},
		{
			"bufferView": 1,
			"byteOffset": 0,
			"componentType": 5126,
			"count": 20096,
			"type": "VEC3"
		},
		{
			"bufferView": 2,
			"byteOffset": 0,
			"componentType": 5126,
			"count": 20096,
			"type": "VEC2"
		},
		{
			"bufferView": 3,
			"byteOffset": 0,
			"componentType": 5123,
			"count": 115104,
			"type": "SCALAR"
		},
		{
			"bufferView": 4,
			"byteOffset": 0,
			"componentType": 5126,
			"count": 8356,
			"max": [
				286.08758544921875,
				205.11277770996094,
				-11.881057739257813
			],
			"min": [
				-286.0879821777344,
				167.3338623046875,
				-221.00421142578125
			],
			"type": "VEC3"
		},
		{
			"bufferView": 5,
			"byteOffset": 0,
			"componentType": 5126,
			"count": 8356,
			"type": "VEC3"
		},
		{
			"bufferView": 6,
			"byteOffset": 0,
			"componentType": 5126,
			"count": 8356,
			"type": "VEC4"
		},
		{
			"bufferView": 7,
			"byteOffset": 0,
			"componentType": 5126,
			"count": 8356,
			"type": "VEC2"
		},
		{
			"bufferView": 8,
			"byteOffset": 0,
			"componentType": 5123,
			"count": 48384,
			"type": "SCALAR"
		}
	],
	"asset": {
		"generator": "Gestaltor 2020.2.1 Alpha 'Zuckerwatte' (CI-38fb8ee1*)",
		"version": "2.0"
	},
	"bufferViews": [
		{
			"buffer": 0,
			"byteLength": 241152,
			"byteOffset": 0
		},
		{
			"buffer": 0,
			"byteLength": 241152,
			"byteOffset": 241152
		},
		{
			"buffer": 0,
			"byteLength": 160768,
			"byteOffset": 482304
		},
		{
			"buffer": 0,
			"byteLength": 230208,
			"byteOffset": 643072
		},
		{
			"buffer": 0,
			"byteLength": 100272,
			"byteOffset": 873280
		},
		{
			"buffer": 0,
			"byteLength": 100272,
			"byteOffset": 973552
		},
		{
			"buffer": 0,
			"byteLength": 133696,
			"byteOffset": 1073824
		},
		{
			"buffer": 0,
			"byteLength": 66848,
			"byteOffset": 1207520
		},
		{
			"buffer": 0,
			"byteLength": 96768,
			"byteOffset": 1274368
		}
	],
	"buffers": [
		{
			"byteLength": 1371136,
			"uri": "Erika.bin"
		}
	],
	"images": [
		{
			"mimeType": "image/jpeg",
			"name": "Erika_diffuse",
			"uri": "Erika_diffuse.jpg"
		},
		{
			"mimeType": "image/png",
			"name": "Erika_ORM",
			"uri": "Erika_ORM.png"
		}
	],
	"materials": [
		{
			"doubleSided": true,
			"emissiveFactor": [
				0.0,
				0.0,
				0.0
			],
			"name": "armacao mat",
			"occlusionTexture": {
				"index": 1,
				"strength": 1.0
			},
			"pbrMetallicRoughness": {
				"baseColorTexture": {
					"index": 0,
					"texCoord": 0
				},
				"metallicRoughnessTexture": {
					"index": 1,
					"texCoord": 0
				}
			}
		},
		{
			"alphaMode": "BLEND",
			"doubleSided": true,
			"emissiveFactor": [
				0.0,
				0.0,
				0.0
			],
			"name": "Lentes mat",
			"pbrMetallicRoughness": {
				"baseColorFactor": [
					1.0,
					1.0,
					1.0,
					0.05000000074505806
				],
				"baseColorTexture": {
					"index": 2,
					"texCoord": 0
				},
				"metallicRoughnessTexture": {
					"index": 3,
					"texCoord": 0
				}
			}
		}
	],
	"meshes": [
		{
			"name": "Mesh",
			"primitives": [
				{
					"attributes": {
						"NORMAL": 1,
						"POSITION": 0,
						"TEXCOORD_0": 2
					},
					"indices": 3,
					"material": 0,
					"mode": 4
				}
			]
		},
		{
			"name": "Mesh.001",
			"primitives": [
				{
					"attributes": {
						"NORMAL": 5,
						"POSITION": 4,
						"TANGENT": 6,
						"TEXCOORD_0": 7
					},
					"indices": 8,
					"material": 1,
					"mode": 4
				}
			]
		}
	],
	"nodes": [
		{
			"mesh": 0,
			"name": "Armacao",
			"rotation": [
				-0.6536772847175598,
				0.0,
				0.0,
				0.7567734122276306
			],
			"scale": [
				-0.0002476900117471814,
				-0.0002476900117471814,
				-0.0002476900117471814
			]
		},
		{
			"mesh": 1,
			"name": "Lentes",
			"rotation": [
				-0.6536772847175598,
				0.0,
				0.0,
				0.7567734122276306
			],
			"scale": [
				-0.0002476900117471814,
				-0.0002476900117471814,
				-0.0002476900117471814
			]
		}
	],
	"scene": 0,
	"scenes": [
		{
			"name": "Scene",
			"nodes": [
				0,
				1
			]
		}
	],
	"textures": [
		{
			"source": 0
		},
		{
			"source": 1
		},
		{
			"source": 0
		},
		{
			"source": 1
		}
	]
}