{
    "asset" : {
        "generator" : "Khronos glTF Blender I/O v1.2.75",
        "version" : "2.0"
    },
    "scene" : 0,
    "scenes" : [
        {
            "extras" : {
                "glTF2ExportSettings" : {
                    "export_all_influences" : 0,
                    "export_animations" : 0,
                    "export_apply" : 1,
                    "export_cameras" : 0,
                    "export_colors" : 1,
                    "export_copyright" : "",
                    "export_current_frame" : 0,
                    "export_def_bones" : 0,
                    "export_displacement" : 0,
                    "export_draco_generic_quantization" : 12,
                    "export_draco_mesh_compression_enable" : 0,
                    "export_draco_mesh_compression_level" : 6,
                    "export_draco_normal_quantization" : 10,
                    "export_draco_position_quantization" : 14,
                    "export_draco_texcoord_quantization" : 12,
                    "export_extras" : 1,
                    "export_force_sampling" : 1,
                    "export_format" : "GLTF_SEPARATE",
                    "export_frame_range" : 1,
                    "export_frame_step" : 1,
                    "export_image_format" : "AUTO",
                    "export_lights" : 0,
                    "export_materials" : 1,
                    "export_morph" : 0,
                    "export_morph_normal" : 1,
                    "export_morph_tangent" : 0,
                    "export_nla_strips" : 1,
                    "export_normals" : 1,
                    "export_skins" : 0,
                    "export_tangents" : 1,
                    "export_texcoords" : 1,
                    "export_texture_dir" : "",
                    "export_yup" : 1,
                    "use_selection" : 0
                }
            },
            "name" : "Scene",
            "nodes" : [
                0
            ]
        }
    ],
    "nodes" : [
        {
            "extras" : {
                "MaxHandle" : 16
            },
            "mesh" : 0,
            "name" : "armacao",
            "rotation" : [
                -0.6559973359107971,
                0.01878824084997177,
                0.02160141058266163,
                0.7542200684547424
            ],
            "scale" : [
                -0.003612387925386429,
                -0.0036123881582170725,
                -0.0036123881582170725
            ]
        }
    ],
    "materials" : [
        {
            "alphaMode" : "BLEND",
            "doubleSided" : true,
            "emissiveFactor" : [
                0,
                0,
                0
            ],
            "name" : "Material #165",
            "normalTexture" : {
                "index" : 0,
                "texCoord" : 0
            },
            "pbrMetallicRoughness" : {
                "baseColorTexture" : {
                    "index" : 1,
                    "texCoord" : 0
                },
                "metallicRoughnessTexture" : {
                    "index" : 2,
                    "texCoord" : 0
                }
            }
        }
    ],
    "meshes" : [
        {
            "name" : "Mesh",
            "primitives" : [
                {
                    "attributes" : {
                        "POSITION" : 0,
                        "NORMAL" : 1,
                        "TANGENT" : 2,
                        "TEXCOORD_0" : 3
                    },
                    "indices" : 4,
                    "material" : 0
                }
            ]
        }
    ],
    "textures" : [
        {
            "source" : 0
        },
        {
            "source" : 1
        },
        {
            "source" : 2
        }
    ],
    "images" : [
        {
            "mimeType" : "image/jpeg",
            "name" : "armacao_normals",
            "uri" : "armacao_normals.jpg"
        },
        {
            "mimeType" : "image/png",
            "name" : "chromance_diffuse",
            "uri" : "chromance_diffuse.png"
        },
        {
            "mimeType" : "image/png",
            "name" : "ORM",
            "uri" : "ORM.png"
        }
    ],
    "accessors" : [
        {
            "bufferView" : 0,
            "componentType" : 5126,
            "count" : 51070,
            "max" : [
                21.836715698242188,
                15.173596382141113,
                -0.33013916015625
            ],
            "min" : [
                -21.966474533081055,
                -17.437015533447266,
                -15.865922927856445
            ],
            "type" : "VEC3"
        },
        {
            "bufferView" : 1,
            "componentType" : 5126,
            "count" : 51070,
            "type" : "VEC3"
        },
        {
            "bufferView" : 2,
            "componentType" : 5126,
            "count" : 51070,
            "type" : "VEC4"
        },
        {
            "bufferView" : 3,
            "componentType" : 5126,
            "count" : 51070,
            "type" : "VEC2"
        },
        {
            "bufferView" : 4,
            "componentType" : 5123,
            "count" : 114972,
            "type" : "SCALAR"
        }
    ],
    "bufferViews" : [
        {
            "buffer" : 0,
            "byteLength" : 612840,
            "byteOffset" : 0
        },
        {
            "buffer" : 0,
            "byteLength" : 612840,
            "byteOffset" : 612840
        },
        {
            "buffer" : 0,
            "byteLength" : 817120,
            "byteOffset" : 1225680
        },
        {
            "buffer" : 0,
            "byteLength" : 408560,
            "byteOffset" : 2042800
        },
        {
            "buffer" : 0,
            "byteLength" : 229944,
            "byteOffset" : 2451360
        }
    ],
    "buffers" : [
        {
            "byteLength" : 2681304,
            "uri" : "chromance _alpha.bin"
        }
    ]
}
