{
	"accessors": [
		{
			"bufferView": 0,
			"byteOffset": 0,
			"componentType": 5126,
			"count": 45544,
			"max": [
				51.52420425415039,
				34.46046447753906,
				-5.946959495544434
			],
			"min": [
				-52.03498840332031,
				-40.291290283203125,
				-35.360107421875
			],
			"type": "VEC3"
		},
		{
			"bufferView": 1,
			"byteOffset": 0,
			"componentType": 5126,
			"count": 45544,
			"type": "VEC3"
		},
		{
			"bufferView": 2,
			"byteOffset": 0,
			"componentType": 5126,
			"count": 45544,
			"type": "VEC2"
		},
		{
			"bufferView": 3,
			"byteOffset": 0,
			"componentType": 5123,
			"count": 100080,
			"type": "SCALAR"
		},
		{
			"bufferView": 4,
			"byteOffset": 0,
			"componentType": 5126,
			"count": 4040,
			"max": [
				47.678794860839844,
				33.96527099609375,
				-6.430071830749512
			],
			"min": [
				-42.16008758544922,
				24.288082122802734,
				-34.87977600097656
			],
			"type": "VEC3"
		},
		{
			"bufferView": 5,
			"byteOffset": 0,
			"componentType": 5126,
			"count": 4040,
			"type": "VEC3"
		},
		{
			"bufferView": 6,
			"byteOffset": 0,
			"componentType": 5126,
			"count": 4040,
			"type": "VEC2"
		},
		{
			"bufferView": 7,
			"byteOffset": 0,
			"componentType": 5123,
			"count": 21792,
			"type": "SCALAR"
		},
		{
			"bufferView": 8,
			"byteOffset": 0,
			"componentType": 5126,
			"count": 3584,
			"max": [
				12.313541412353516,
				31.028234481811523,
				-13.127630233764648
			],
			"min": [
				-6.9020233154296875,
				25.638105392456055,
				-20.80558967590332
			],
			"type": "VEC3"
		},
		{
			"bufferView": 9,
			"byteOffset": 0,
			"componentType": 5126,
			"count": 3584,
			"type": "VEC3"
		},
		{
			"bufferView": 10,
			"byteOffset": 0,
			"componentType": 5126,
			"count": 3584,
			"type": "VEC2"
		},
		{
			"bufferView": 11,
			"byteOffset": 0,
			"componentType": 5123,
			"count": 5376,
			"type": "SCALAR"
		}
	],
	"asset": {
		"generator": "Gestaltor 2020.2.1 Alpha 'Zuckerwatte' (CI-38fb8ee1*)",
		"version": "2.0"
	},
	"bufferViews": [
		{
			"buffer": 0,
			"byteLength": 546528,
			"byteOffset": 0
		},
		{
			"buffer": 0,
			"byteLength": 546528,
			"byteOffset": 546528
		},
		{
			"buffer": 0,
			"byteLength": 364352,
			"byteOffset": 1093056
		},
		{
			"buffer": 0,
			"byteLength": 200160,
			"byteOffset": 1457408
		},
		{
			"buffer": 0,
			"byteLength": 48480,
			"byteOffset": 1657568
		},
		{
			"buffer": 0,
			"byteLength": 48480,
			"byteOffset": 1706048
		},
		{
			"buffer": 0,
			"byteLength": 32320,
			"byteOffset": 1754528
		},
		{
			"buffer": 0,
			"byteLength": 43584,
			"byteOffset": 1786848
		},
		{
			"buffer": 0,
			"byteLength": 43008,
			"byteOffset": 1830432
		},
		{
			"buffer": 0,
			"byteLength": 43008,
			"byteOffset": 1873440
		},
		{
			"buffer": 0,
			"byteLength": 28672,
			"byteOffset": 1916448
		},
		{
			"buffer": 0,
			"byteLength": 10752,
			"byteOffset": 1945120
		}
	],
	"buffers": [
		{
			"byteLength": 1955872,
			"uri": "octagonal_GLTF.bin"
		}
	],
	"extensions": {
		"KHR_lights_punctual": {
			"lights": [
				{
					"color": [
						0.780392157,
						0.725490196,
						0.690196078
					],
					"intensity": 1.0,
					"name": "LUZ frente",
					"range": 30.0,
					"type": "point"
				},
				{
					"color": [
						0.780392157,
						0.725490196,
						0.690196078
					],
					"intensity": 0.3,
					"name": "LUZ lateral",
					"range": 30.0,
					"type": "point"
				}
			]
		}
	},
	"extensionsRequired": [
		"KHR_lights_punctual"
	],
	"extensionsUsed": [
		"KHR_lights_punctual"
	],
	"images": [
		{
			"mimeType": "image/jpeg",
			"uri": "ORM.jpg"
		},
		{
			"mimeType": "image/jpeg",
			"uri": "Object005_normals.jpg"
		},
		{
			"mimeType": "image/jpeg",
			"uri": "Object005_diffuse.jpg"
		}
	],
	"materials": [
		{
			"doubleSided": false,
			"emissiveFactor": [
				0.0,
				0.0,
				0.0
			],
			"name": "armacao",
			"normalTexture": {
				"index": 1,
				"scale": 1.0
			},
			"pbrMetallicRoughness": {
				"baseColorFactor": [
					0.7843137383460999,
					0.6705882549285889,
					0.32156863808631897,
					1.0
				],
				"metallicFactor": 1.0,
				"metallicRoughnessTexture": {
					"index": 2
				},
				"roughnessFactor": 1.0
			}
		},
		{
			"alphaMode": "BLEND",
			"doubleSided": false,
			"emissiveFactor": [
				0.0,
				0.0,
				0.0
			],
			"name": "lentes",
			"normalTexture": {
				"index": 1,
				"scale": 1.0
			},
			"pbrMetallicRoughness": {
				"baseColorFactor": [
					0.003921568859368563,
					0.00784313678741455,
					0.003921568859368563,
					0.9700000286102295
				],
				"metallicFactor": 1.0,
				"metallicRoughnessTexture": {
					"index": 2
				},
				"roughnessFactor": 1.0
			}
		},
		{
			"alphaMode": "BLEND",
			"doubleSided": false,
			"emissiveFactor": [
				0.0,
				0.0,
				0.0
			],
			"name": "ponte",
			"normalTexture": {
				"index": 1,
				"scale": 1.0
			},
			"pbrMetallicRoughness": {
				"baseColorFactor": [
					0.729411780834198,
					0.6784313917160034,
					0.4901960790157318,
					1.0
				],
				"baseColorTexture": {
					"index": 0
				},
				"metallicFactor": 1.0,
				"metallicRoughnessTexture": {
					"index": 2
				},
				"roughnessFactor": 1.0
			}
		}
	],
	"meshes": [
		{
			"name": "Mesh",
			"primitives": [
				{
					"attributes": {
						"NORMAL": 1,
						"POSITION": 0,
						"TEXCOORD_0": 2
					},
					"indices": 3,
					"material": 0,
					"mode": 4
				}
			]
		},
		{
			"name": "Mesh.001",
			"primitives": [
				{
					"attributes": {
						"NORMAL": 5,
						"POSITION": 4,
						"TEXCOORD_0": 6
					},
					"indices": 7,
					"material": 1,
					"mode": 4
				}
			]
		},
		{
			"name": "Mesh.002",
			"primitives": [
				{
					"attributes": {
						"NORMAL": 9,
						"POSITION": 8,
						"TEXCOORD_0": 10
					},
					"indices": 11,
					"material": 2,
					"mode": 4
				}
			]
		}
	],
	"nodes": [
		{
			"name": "Light",
			"rotation": [
				0.16907575726509094,
				0.7558803558349609,
				-0.27217137813568115,
				0.570947527885437
			],
			"translation": [
				4.076245307922363,
				5.903861999511719,
				-1.0054539442062378
			]
		},
		{
			"name": "Camera",
			"rotation": [
				0.483536034822464,
				0.33687159419059753,
				-0.20870360732078552,
				0.7804827094078064
			],
			"translation": [
				7.358891487121582,
				4.958309173583984,
				6.925790786743164
			]
		},
		{
			"mesh": 0,
			"name": "armacao",
			"rotation": [
				-0.6550065279006958,
				0.028598198667168617,
				0.032936226576566696,
				0.7543631792068481
			],
			"scale": [
				-0.0015832582721486688,
				-0.001583258155733347,
				-0.001583258155733347
			]
		},
		{
			"mesh": 1,
			"name": "lentes",
			"rotation": [
				-0.6550064086914063,
				0.02859819307923317,
				0.0329362154006958,
				0.7543632984161377
			],
			"scale": [
				-0.0015832582721486688,
				-0.001583258155733347,
				-0.001583258155733347
			]
		},
		{
			"mesh": 2,
			"name": "ponte",
			"rotation": [
				-0.6550064086914063,
				0.02859819307923317,
				0.0329362154006958,
				0.7543632984161377
			],
			"scale": [
				-0.0015832582721486688,
				-0.001583258155733347,
				-0.001583258155733347
			]
		},
		{
			"extensions": {
				"KHR_lights_punctual": {
					"light": 0
				}
			},
			"name": "LUZ frente",
			"translation": [
				0.0,
				0.22285196185112,
				0.7800786197185516
			]
		},
		{
			"extensions": {
				"KHR_lights_punctual": {
					"light": 1
				}
			},
			"name": "LUZ lateral 1",
			"translation": [
				0.6510303467512131,
				0.04420652985572815,
				0.04792638123035431
			]
		},
		{
			"extensions": {
				"KHR_lights_punctual": {
					"light": 1
				}
			},
			"name": "LUZ lateral 2",
			"translation": [
				-0.6502191573381424,
				0.04563604295253754,
				0.046137407422065735
			]
		}
	],
	"scene": 0,
	"scenes": [
		{
			"name": "Scene",
			"nodes": [
				2,
				3,
				4,
				5,
				6,
				7
			]
		}
	],
	"textures": [
		{
			"source": 2
		},
		{
			"source": 1
		},
		{
			"source": 0
		}
	]
}