{
	"accessors": [
		{
			"bufferView": 0,
			"byteOffset": 0,
			"componentType": 5126,
			"count": 11783,
			"max": [
				51.76795196533203,
				34.886592864990234,
				-1.3224296569824219
			],
			"min": [
				-52.24156188964844,
				-40.539669036865234,
				-37.026424407958984
			],
			"type": "VEC3"
		},
		{
			"bufferView": 1,
			"byteOffset": 0,
			"componentType": 5126,
			"count": 11783,
			"type": "VEC3"
		},
		{
			"bufferView": 2,
			"byteOffset": 0,
			"componentType": 5126,
			"count": 11783,
			"type": "VEC2"
		},
		{
			"bufferView": 3,
			"byteOffset": 0,
			"componentType": 5123,
			"count": 64656,
			"type": "SCALAR"
		},
		{
			"bufferView": 4,
			"byteOffset": 0,
			"componentType": 5126,
			"count": 3541,
			"max": [
				47.91114807128906,
				34.765777587890625,
				-2.116119384765625
			],
			"min": [
				-43.030582427978516,
				24.48389434814453,
				-34.90480041503906
			],
			"type": "VEC3"
		},
		{
			"bufferView": 5,
			"byteOffset": 0,
			"componentType": 5126,
			"count": 3541,
			"type": "VEC3"
		},
		{
			"bufferView": 6,
			"byteOffset": 0,
			"componentType": 5126,
			"count": 3541,
			"type": "VEC2"
		},
		{
			"bufferView": 7,
			"byteOffset": 0,
			"componentType": 5123,
			"count": 20400,
			"type": "SCALAR"
		},
		{
			"bufferView": 8,
			"byteOffset": 0,
			"componentType": 5126,
			"count": 964,
			"max": [
				11.80204963684082,
				30.43688201904297,
				-14.411482810974121
			],
			"min": [
				-7.368019104003906,
				24.290748596191406,
				-22.302091598510742
			],
			"type": "VEC3"
		},
		{
			"bufferView": 9,
			"byteOffset": 0,
			"componentType": 5126,
			"count": 964,
			"type": "VEC3"
		},
		{
			"bufferView": 10,
			"byteOffset": 0,
			"componentType": 5126,
			"count": 964,
			"type": "VEC2"
		},
		{
			"bufferView": 11,
			"byteOffset": 0,
			"componentType": 5123,
			"count": 5376,
			"type": "SCALAR"
		},
		{
			"bufferView": 12,
			"byteOffset": 0,
			"componentType": 5126,
			"count": 4118,
			"max": [
				48.41596221923828,
				35.1263427734375,
				-1.7225589752197266
			],
			"min": [
				-43.48797607421875,
				23.990365982055664,
				-35.28068542480469
			],
			"type": "VEC3"
		},
		{
			"bufferView": 13,
			"byteOffset": 0,
			"componentType": 5126,
			"count": 4118,
			"type": "VEC3"
		},
		{
			"bufferView": 14,
			"byteOffset": 0,
			"componentType": 5126,
			"count": 4118,
			"type": "VEC2"
		},
		{
			"bufferView": 15,
			"byteOffset": 0,
			"componentType": 5123,
			"count": 23520,
			"type": "SCALAR"
		}
	],
	"asset": {
		"generator": "Gestaltor 2020.2.0 Alpha 'Schokoei' (CI-cce52488*)",
		"version": "2.0"
	},
	"bufferViews": [
		{
			"buffer": 0,
			"byteLength": 141396,
			"byteOffset": 0
		},
		{
			"buffer": 0,
			"byteLength": 141396,
			"byteOffset": 141396
		},
		{
			"buffer": 0,
			"byteLength": 94264,
			"byteOffset": 282792
		},
		{
			"buffer": 0,
			"byteLength": 129312,
			"byteOffset": 377056
		},
		{
			"buffer": 0,
			"byteLength": 42492,
			"byteOffset": 506368
		},
		{
			"buffer": 0,
			"byteLength": 42492,
			"byteOffset": 548860
		},
		{
			"buffer": 0,
			"byteLength": 28328,
			"byteOffset": 591352
		},
		{
			"buffer": 0,
			"byteLength": 40800,
			"byteOffset": 619680
		},
		{
			"buffer": 0,
			"byteLength": 11568,
			"byteOffset": 660480
		},
		{
			"buffer": 0,
			"byteLength": 11568,
			"byteOffset": 672048
		},
		{
			"buffer": 0,
			"byteLength": 7712,
			"byteOffset": 683616
		},
		{
			"buffer": 0,
			"byteLength": 10752,
			"byteOffset": 691328
		},
		{
			"buffer": 0,
			"byteLength": 49416,
			"byteOffset": 702080
		},
		{
			"buffer": 0,
			"byteLength": 49416,
			"byteOffset": 751496
		},
		{
			"buffer": 0,
			"byteLength": 32944,
			"byteOffset": 800912
		},
		{
			"buffer": 0,
			"byteLength": 47040,
			"byteOffset": 833856
		}
	],
	"buffers": [
		{
			"byteLength": 880896,
			"uri": "marshal_grau_app.bin"
		}
	],
	"images": [
		{
			"mimeType": "image/png",
			"name": "Object003_diffuse",
			"uri": "marshal_grau_app_image_0.png"
		},
		{
			"mimeType": "image/png",
			"name": "Object003_occlusion",
			"uri": "marshal_grau_app_image_1.png"
		}
	],
	"materials": [
		{
			"doubleSided": true,
			"emissiveFactor": [
				0.0,
				0.0,
				0.0
			],
			"name": "armacao metal",
			"occlusionTexture": {
				"index": 1,
				"strength": 1.0,
				"texCoord": 0
			},
			"pbrMetallicRoughness": {
				"baseColorTexture": {
					"index": 0,
					"texCoord": 0
				},
				"metallicFactor": 1.0,
				"roughnessFactor": 0.1
			}
		},
		{
			"alphaCutoff": 0.5,
			"alphaMode": "BLEND",
			"doubleSided": true,
			"emissiveFactor": [
				0.0,
				0.0,
				0.0
			],
			"name": "lentes",
			"pbrMetallicRoughness": {
				"baseColorFactor": [
					0.9803921580314636,
					0.9803921580314636,
					0.9803921580314636,
					0.30000001192092896
				],
				"metallicFactor": 0.0,
				"roughnessFactor": 0.1
			}
		},
		{
			"alphaMode": "BLEND",
			"doubleSided": true,
			"emissiveFactor": [
				0.0,
				0.0,
				0.0
			],
			"name": "pontes",
			"pbrMetallicRoughness": {
				"baseColorTexture": {
					"index": 0,
					"texCoord": 0
				},
				"metallicFactor": 0.0,
				"roughnessFactor": 0.553583866
			}
		},
		{
			"alphaMode": "BLEND",
			"doubleSided": true,
			"emissiveFactor": [
				0.0,
				0.0,
				0.0
			],
			"name": "acetato",
			"occlusionTexture": {
				"index": 1,
				"strength": 1.0,
				"texCoord": 0
			},
			"pbrMetallicRoughness": {
				"baseColorFactor": [
					1.0,
					1.0,
					1.0,
					1.0
				],
				"baseColorTexture": {
					"index": 0,
					"texCoord": 0
				},
				"metallicFactor": 0.0,
				"roughnessFactor": 0.2
			}
		}
	],
	"meshes": [
		{
			"name": "Mesh",
			"primitives": [
				{
					"attributes": {
						"NORMAL": 1,
						"POSITION": 0,
						"TEXCOORD_0": 2
					},
					"indices": 3,
					"material": 0,
					"mode": 4
				}
			]
		},
		{
			"name": "Mesh.001",
			"primitives": [
				{
					"attributes": {
						"NORMAL": 5,
						"POSITION": 4,
						"TEXCOORD_0": 6
					},
					"indices": 7,
					"material": 1,
					"mode": 4
				}
			]
		},
		{
			"name": "Mesh.002",
			"primitives": [
				{
					"attributes": {
						"NORMAL": 9,
						"POSITION": 8,
						"TEXCOORD_0": 10
					},
					"indices": 11,
					"material": 2,
					"mode": 4
				}
			]
		},
		{
			"name": "Mesh.003",
			"primitives": [
				{
					"attributes": {
						"NORMAL": 13,
						"POSITION": 12,
						"TEXCOORD_0": 14
					},
					"indices": 15,
					"material": 3,
					"mode": 4
				}
			]
		}
	],
	"nodes": [
		{
			"mesh": 0,
			"name": "armacao",
			"rotation": [
				0.7543633580207825,
				-0.0329362191259861,
				0.028598196804523468,
				0.6550063490867615
			],
			"scale": [
				0.0015468400670215487,
				0.001546839950606227,
				0.0015468400670215487
			]
		},
		{
			"mesh": 1,
			"name": "lentes",
			"rotation": [
				0.7543633580207825,
				-0.0329362191259861,
				0.028598196804523468,
				0.6550063490867615
			],
			"scale": [
				0.0015468400670215487,
				0.001546839950606227,
				0.0015468400670215487
			]
		},
		{
			"mesh": 2,
			"name": "ponte",
			"rotation": [
				0.7543633580207825,
				-0.0329362191259861,
				0.028598196804523468,
				0.6550063490867615
			],
			"scale": [
				0.0015468400670215487,
				0.001546839950606227,
				0.0015468400670215487
			]
		},
		{
			"mesh": 3,
			"name": "acetato",
			"rotation": [
				0.7543633580207825,
				-0.0329362191259861,
				0.028598196804523468,
				0.6550063490867615
			],
			"scale": [
				0.0015468400670215487,
				0.001546839950606227,
				0.0015468400670215487
			]
		}
	],
	"scene": 0,
	"scenes": [
		{
			"name": "Scene",
			"nodes": [
				0,
				1,
				2,
				3
			]
		}
	],
	"textures": [
		{
			"source": 0
		},
		{
			"source": 1
		}
	]
}