{
	"accessors": [
		{
			"bufferView": 0,
			"byteOffset": 0,
			"componentType": 5126,
			"count": 13566,
			"max": [
				58.855934143066406,
				77.57860565185547,
				-0.3701515197753906
			],
			"min": [
				28.712743759155273,
				-62.00895690917969,
				-45.989585876464844
			],
			"type": "VEC3"
		},
		{
			"bufferView": 1,
			"byteOffset": 0,
			"componentType": 5126,
			"count": 13566,
			"type": "VEC3"
		},
		{
			"bufferView": 2,
			"byteOffset": 0,
			"componentType": 5126,
			"count": 13566,
			"type": "VEC2"
		},
		{
			"bufferView": 3,
			"byteOffset": 0,
			"componentType": 5123,
			"count": 78576,
			"type": "SCALAR"
		},
		{
			"bufferView": 4,
			"byteOffset": 0,
			"componentType": 5126,
			"count": 4580,
			"max": [
				57.53826904296875,
				70.55810546875,
				-1.86993408203125
			],
			"min": [
				30.320959091186523,
				-55.01325988769531,
				-43.88563919067383
			],
			"type": "VEC3"
		},
		{
			"bufferView": 5,
			"byteOffset": 0,
			"componentType": 5126,
			"count": 4580,
			"type": "VEC3"
		},
		{
			"bufferView": 6,
			"byteOffset": 0,
			"componentType": 5126,
			"count": 4580,
			"type": "VEC2"
		},
		{
			"bufferView": 7,
			"byteOffset": 0,
			"componentType": 5123,
			"count": 26496,
			"type": "SCALAR"
		},
		{
			"bufferView": 8,
			"byteOffset": 0,
			"componentType": 5126,
			"count": 4092,
			"max": [
				54.192203521728516,
				75.85905456542969,
				-33.68161392211914
			],
			"min": [
				-57.26860427856445,
				-75.31309509277344,
				-42.357444763183594
			],
			"type": "VEC3"
		},
		{
			"bufferView": 9,
			"byteOffset": 0,
			"componentType": 5126,
			"count": 4092,
			"type": "VEC3"
		},
		{
			"bufferView": 10,
			"byteOffset": 0,
			"componentType": 5126,
			"count": 4092,
			"type": "VEC2"
		},
		{
			"bufferView": 11,
			"byteOffset": 0,
			"componentType": 5123,
			"count": 23520,
			"type": "SCALAR"
		}
	],
	"asset": {
		"generator": "Gestaltor 2020.2.0 Alpha 'Schokoei' (CI-cce52488*)",
		"version": "2.0"
	},
	"bufferViews": [
		{
			"buffer": 0,
			"byteLength": 162792,
			"byteOffset": 0
		},
		{
			"buffer": 0,
			"byteLength": 162792,
			"byteOffset": 162792
		},
		{
			"buffer": 0,
			"byteLength": 108528,
			"byteOffset": 325584
		},
		{
			"buffer": 0,
			"byteLength": 157152,
			"byteOffset": 434112
		},
		{
			"buffer": 0,
			"byteLength": 54960,
			"byteOffset": 591264
		},
		{
			"buffer": 0,
			"byteLength": 54960,
			"byteOffset": 646224
		},
		{
			"buffer": 0,
			"byteLength": 36640,
			"byteOffset": 701184
		},
		{
			"buffer": 0,
			"byteLength": 52992,
			"byteOffset": 737824
		},
		{
			"buffer": 0,
			"byteLength": 49104,
			"byteOffset": 790816
		},
		{
			"buffer": 0,
			"byteLength": 49104,
			"byteOffset": 839920
		},
		{
			"buffer": 0,
			"byteLength": 32736,
			"byteOffset": 889024
		},
		{
			"buffer": 0,
			"byteLength": 47040,
			"byteOffset": 921760
		}
	],
	"buffers": [
		{
			"byteLength": 968800,
			"uri": "RB7135L_app.bin"
		}
	],
	"images": [
		{
			"mimeType": "image/png",
			"name": "RB7135L_occlusion",
			"uri": "RB7135L_app_image_0.png"
		},
		{
			"mimeType": "image/png",
			"name": "RB7135L_diffuse",
			"uri": "RB7135L_app_image_1.png"
		}
	],
	"materials": [
		{
			"alphaMode": "BLEND",
			"doubleSided": true,
			"emissiveFactor": [
				0.0,
				0.0,
				0.0
			],
			"name": "Frente mat",
			"occlusionTexture": {
				"index": 0,
				"strength": 1.0,
				"texCoord": 0
			},
			"pbrMetallicRoughness": {
				"baseColorTexture": {
					"index": 1,
					"texCoord": 0
				},
				"metallicFactor": 0.0,
				"roughnessFactor": 0.2
			}
		},
		{
			"alphaMode": "BLEND",
			"doubleSided": true,
			"emissiveFactor": [
				0.0,
				0.0,
				0.0
			],
			"name": "Lentes mat",
			"occlusionTexture": {
				"index": 0,
				"strength": 1.0,
				"texCoord": 0
			},
			"pbrMetallicRoughness": {
				"baseColorTexture": {
					"index": 1,
					"texCoord": 0
				},
				"metallicFactor": 0.0,
				"roughnessFactor": 0.1
			}
		},
		{
			"doubleSided": true,
			"emissiveFactor": [
				0.0,
				0.0,
				0.0
			],
			"name": "hastes mat",
			"occlusionTexture": {
				"index": 0,
				"strength": 1.0,
				"texCoord": 0
			},
			"pbrMetallicRoughness": {
				"baseColorTexture": {
					"index": 1,
					"texCoord": 0
				},
				"metallicFactor": 1.0,
				"roughnessFactor": 0.2
			}
		}
	],
	"meshes": [
		{
			"name": "Mesh",
			"primitives": [
				{
					"attributes": {
						"NORMAL": 1,
						"POSITION": 0,
						"TEXCOORD_0": 2
					},
					"indices": 3,
					"material": 0,
					"mode": 4
				}
			]
		},
		{
			"name": "Mesh.001",
			"primitives": [
				{
					"attributes": {
						"NORMAL": 5,
						"POSITION": 4,
						"TEXCOORD_0": 6
					},
					"indices": 7,
					"material": 1,
					"mode": 4
				}
			]
		},
		{
			"name": "Mesh.002",
			"primitives": [
				{
					"attributes": {
						"NORMAL": 9,
						"POSITION": 8,
						"TEXCOORD_0": 10
					},
					"indices": 11,
					"material": 2,
					"mode": 4
				}
			]
		}
	],
	"nodes": [
		{
			"mesh": 0,
			"name": "Plane003",
			"rotation": [
				0.5300631523132324,
				-0.4449225664138794,
				0.4640903174877167,
				0.5528988838195801
			],
			"scale": [
				0.0010842900956049562,
				0.0010842900956049562,
				0.0010842900956049562
			]
		},
		{
			"mesh": 1,
			"name": "Lentes",
			"rotation": [
				0.5300632119178772,
				-0.44492262601852417,
				0.4640903174877167,
				0.5528987646102905
			],
			"scale": [
				0.0010842900956049562,
				0.0010842900956049562,
				0.0010842900956049562
			]
		},
		{
			"mesh": 2,
			"name": "Hastes",
			"rotation": [
				0.5300632119178772,
				-0.44492262601852417,
				0.4640903174877167,
				0.5528987646102905
			],
			"scale": [
				0.0010842900956049562,
				0.0010842900956049562,
				0.0010842900956049562
			]
		}
	],
	"scene": 0,
	"scenes": [
		{
			"name": "Scene",
			"nodes": [
				0,
				1,
				2
			]
		}
	],
	"textures": [
		{
			"source": 0
		},
		{
			"source": 1
		}
	]
}