{
    "asset" : {
        "generator" : "Khronos glTF Blender I/O v1.2.75",
        "version" : "2.0"
    },
    "scene" : 0,
    "scenes" : [
        {
            "name" : "Scene",
            "nodes" : [
                0
            ]
        }
    ],
    "nodes" : [
        {
            "extras" : {
                "MaxHandle" : 16
            },
            "mesh" : 0,
            "name" : "armacao",
            "rotation" : [
                -0.6559973359107971,
                0.01878824084997177,
                0.02160141058266163,
                0.7542200684547424
            ],
            "scale" : [
                -0.003612387925386429,
                -0.0036123881582170725,
                -0.0036123881582170725
            ]
        }
    ],
    "materials" : [
        {
            "doubleSided" : true,
            "emissiveFactor" : [
                0,
                0,
                0
            ],
            "name" : "armacao mat",
            "pbrMetallicRoughness" : {
                "baseColorTexture" : {
                    "index" : 0,
                    "texCoord" : 0
                },
                "metallicRoughnessTexture" : {
                    "index" : 1,
                    "texCoord" : 0
                }
            }
        },
        {
            "doubleSided" : true,
            "emissiveFactor" : [
                0,
                0,
                0
            ],
            "name" : "Lentes mat",
            "pbrMetallicRoughness" : {
                "baseColorTexture" : {
                    "index" : 2,
                    "texCoord" : 0
                },
                "metallicRoughnessTexture" : {
                    "index" : 3,
                    "texCoord" : 0
                }
            }
        },
        {
            "doubleSided" : true,
            "emissiveFactor" : [
                0,
                0,
                0
            ],
            "name" : "Pontes mat",
            "pbrMetallicRoughness" : {
                "baseColorTexture" : {
                    "index" : 4,
                    "texCoord" : 0
                },
                "metallicRoughnessTexture" : {
                    "index" : 5,
                    "texCoord" : 0
                }
            }
        }
    ],
    "meshes" : [
        {
            "name" : "Mesh",
            "primitives" : [
                {
                    "attributes" : {
                        "POSITION" : 0,
                        "NORMAL" : 1,
                        "TANGENT" : 2,
                        "TEXCOORD_0" : 3
                    },
                    "indices" : 4,
                    "material" : 0
                },
                {
                    "attributes" : {
                        "POSITION" : 5,
                        "NORMAL" : 6,
                        "TANGENT" : 7,
                        "TEXCOORD_0" : 8
                    },
                    "indices" : 9,
                    "material" : 1
                },
                {
                    "attributes" : {
                        "POSITION" : 10,
                        "NORMAL" : 11,
                        "TANGENT" : 12,
                        "TEXCOORD_0" : 13
                    },
                    "indices" : 14,
                    "material" : 2
                }
            ]
        }
    ],
    "textures" : [
        {
            "source" : 0
        },
        {
            "source" : 1
        },
        {
            "source" : 0
        },
        {
            "source" : 1
        },
        {
            "source" : 0
        },
        {
            "source" : 1
        }
    ],
    "images" : [
        {
            "mimeType" : "image/jpeg",
            "name" : "chromance_diffuse_2",
            "uri" : "chromance_diffuse_2.jpg"
        },
        {
            "mimeType" : "image/png",
            "name" : "ORM",
            "uri" : "ORM.png"
        }
    ],
    "accessors" : [
        {
            "bufferView" : 0,
            "componentType" : 5126,
            "count" : 42090,
            "max" : [
                21.80460548400879,
                15.690546035766602,
                -1.0211114883422852
            ],
            "min" : [
                -21.9454402923584,
                -18.147090911865234,
                -16.556896209716797
            ],
            "type" : "VEC3"
        },
        {
            "bufferView" : 1,
            "componentType" : 5126,
            "count" : 42090,
            "type" : "VEC3"
        },
        {
            "bufferView" : 2,
            "componentType" : 5126,
            "count" : 42090,
            "type" : "VEC4"
        },
        {
            "bufferView" : 3,
            "componentType" : 5126,
            "count" : 42090,
            "type" : "VEC2"
        },
        {
            "bufferView" : 4,
            "componentType" : 5123,
            "count" : 90204,
            "type" : "SCALAR"
        },
        {
            "bufferView" : 5,
            "componentType" : 5126,
            "count" : 3604,
            "max" : [
                19.902307510375977,
                15.41213321685791,
                -1.2104191780090332
            ],
            "min" : [
                -18.36404037475586,
                11.1685791015625,
                -16.163537979125977
            ],
            "type" : "VEC3"
        },
        {
            "bufferView" : 6,
            "componentType" : 5126,
            "count" : 3604,
            "type" : "VEC3"
        },
        {
            "bufferView" : 7,
            "componentType" : 5126,
            "count" : 3604,
            "type" : "VEC4"
        },
        {
            "bufferView" : 8,
            "componentType" : 5126,
            "count" : 3604,
            "type" : "VEC2"
        },
        {
            "bufferView" : 9,
            "componentType" : 5123,
            "count" : 19392,
            "type" : "SCALAR"
        },
        {
            "bufferView" : 10,
            "componentType" : 5126,
            "count" : 5376,
            "max" : [
                3.8841114044189453,
                14.13621997833252,
                -7.442388534545898
            ],
            "min" : [
                -2.3824338912963867,
                11.6808443069458,
                -11.060667037963867
            ],
            "type" : "VEC3"
        },
        {
            "bufferView" : 11,
            "componentType" : 5126,
            "count" : 5376,
            "type" : "VEC3"
        },
        {
            "bufferView" : 12,
            "componentType" : 5126,
            "count" : 5376,
            "type" : "VEC4"
        },
        {
            "bufferView" : 13,
            "componentType" : 5126,
            "count" : 5376,
            "type" : "VEC2"
        },
        {
            "bufferView" : 14,
            "componentType" : 5123,
            "count" : 5376,
            "type" : "SCALAR"
        }
    ],
    "bufferViews" : [
        {
            "buffer" : 0,
            "byteLength" : 505080,
            "byteOffset" : 0
        },
        {
            "buffer" : 0,
            "byteLength" : 505080,
            "byteOffset" : 505080
        },
        {
            "buffer" : 0,
            "byteLength" : 673440,
            "byteOffset" : 1010160
        },
        {
            "buffer" : 0,
            "byteLength" : 336720,
            "byteOffset" : 1683600
        },
        {
            "buffer" : 0,
            "byteLength" : 180408,
            "byteOffset" : 2020320
        },
        {
            "buffer" : 0,
            "byteLength" : 43248,
            "byteOffset" : 2200728
        },
        {
            "buffer" : 0,
            "byteLength" : 43248,
            "byteOffset" : 2243976
        },
        {
            "buffer" : 0,
            "byteLength" : 57664,
            "byteOffset" : 2287224
        },
        {
            "buffer" : 0,
            "byteLength" : 28832,
            "byteOffset" : 2344888
        },
        {
            "buffer" : 0,
            "byteLength" : 38784,
            "byteOffset" : 2373720
        },
        {
            "buffer" : 0,
            "byteLength" : 64512,
            "byteOffset" : 2412504
        },
        {
            "buffer" : 0,
            "byteLength" : 64512,
            "byteOffset" : 2477016
        },
        {
            "buffer" : 0,
            "byteLength" : 86016,
            "byteOffset" : 2541528
        },
        {
            "buffer" : 0,
            "byteLength" : 43008,
            "byteOffset" : 2627544
        },
        {
            "buffer" : 0,
            "byteLength" : 10752,
            "byteOffset" : 2670552
        }
    ],
    "buffers" : [
        {
            "byteLength" : 2681304,
            "uri" : "Chromance_cycles.bin"
        }
    ]
}
