{
	"accessors": [
		{
			"bufferView": 0,
			"byteOffset": 0,
			"componentType": 5126,
			"count": 30402,
			"max": [
				72.387939453125,
				50.29042053222656,
				-6.627388000488281
			],
			"min": [
				-72.38794708251953,
				-56.142982482910156,
				-49.0056266784668
			],
			"type": "VEC3"
		},
		{
			"bufferView": 1,
			"byteOffset": 0,
			"componentType": 5126,
			"count": 30402,
			"type": "VEC3"
		},
		{
			"bufferView": 2,
			"byteOffset": 0,
			"componentType": 5126,
			"count": 30402,
			"type": "VEC2"
		},
		{
			"bufferView": 3,
			"byteOffset": 0,
			"componentType": 5123,
			"count": 103740,
			"type": "SCALAR"
		},
		{
			"bufferView": 4,
			"byteOffset": 0,
			"componentType": 5126,
			"count": 4580,
			"max": [
				64.25540924072266,
				47.934322357177734,
				-7.984535217285156
			],
			"min": [
				-64.25541687011719,
				40.735694885253906,
				-47.218162536621094
			],
			"type": "VEC3"
		},
		{
			"bufferView": 5,
			"byteOffset": 0,
			"componentType": 5126,
			"count": 4580,
			"type": "VEC3"
		},
		{
			"bufferView": 6,
			"byteOffset": 0,
			"componentType": 5126,
			"count": 4580,
			"type": "VEC2"
		},
		{
			"bufferView": 7,
			"byteOffset": 0,
			"componentType": 5123,
			"count": 26496,
			"type": "SCALAR"
		},
		{
			"bufferView": 8,
			"byteOffset": 0,
			"componentType": 5126,
			"count": 2080,
			"max": [
				68.77361297607422,
				42.933712005615234,
				-39.37459945678711
			],
			"min": [
				-68.77362823486328,
				41.5099983215332,
				-41.620967864990234
			],
			"type": "VEC3"
		},
		{
			"bufferView": 9,
			"byteOffset": 0,
			"componentType": 5126,
			"count": 2080,
			"type": "VEC3"
		},
		{
			"bufferView": 10,
			"byteOffset": 0,
			"componentType": 5126,
			"count": 2080,
			"type": "VEC2"
		},
		{
			"bufferView": 11,
			"byteOffset": 0,
			"componentType": 5123,
			"count": 3120,
			"type": "SCALAR"
		},
		{
			"bufferView": 12,
			"byteOffset": 0,
			"componentType": 5126,
			"count": 7064,
			"max": [
				70.5610580444336,
				38.83245849609375,
				-19.699831008911133
			],
			"min": [
				-70.56107330322266,
				-55.662437438964844,
				-44.249080657958984
			],
			"type": "VEC3"
		},
		{
			"bufferView": 13,
			"byteOffset": 0,
			"componentType": 5126,
			"count": 7064,
			"type": "VEC3"
		},
		{
			"bufferView": 14,
			"byteOffset": 0,
			"componentType": 5126,
			"count": 7064,
			"type": "VEC2"
		},
		{
			"bufferView": 15,
			"byteOffset": 0,
			"componentType": 5123,
			"count": 10596,
			"type": "SCALAR"
		}
	],
	"asset": {
		"generator": "Gestaltor 2020.2.0 Alpha 'Schokoei' (CI-cce52488*)",
		"version": "2.0"
	},
	"bufferViews": [
		{
			"buffer": 0,
			"byteLength": 364824,
			"byteOffset": 0
		},
		{
			"buffer": 0,
			"byteLength": 364824,
			"byteOffset": 364824
		},
		{
			"buffer": 0,
			"byteLength": 243216,
			"byteOffset": 729648
		},
		{
			"buffer": 0,
			"byteLength": 207480,
			"byteOffset": 972864
		},
		{
			"buffer": 0,
			"byteLength": 54960,
			"byteOffset": 1180344
		},
		{
			"buffer": 0,
			"byteLength": 54960,
			"byteOffset": 1235304
		},
		{
			"buffer": 0,
			"byteLength": 36640,
			"byteOffset": 1290264
		},
		{
			"buffer": 0,
			"byteLength": 52992,
			"byteOffset": 1326904
		},
		{
			"buffer": 0,
			"byteLength": 24960,
			"byteOffset": 1379896
		},
		{
			"buffer": 0,
			"byteLength": 24960,
			"byteOffset": 1404856
		},
		{
			"buffer": 0,
			"byteLength": 16640,
			"byteOffset": 1429816
		},
		{
			"buffer": 0,
			"byteLength": 6240,
			"byteOffset": 1446456
		},
		{
			"buffer": 0,
			"byteLength": 84768,
			"byteOffset": 1452696
		},
		{
			"buffer": 0,
			"byteLength": 84768,
			"byteOffset": 1537464
		},
		{
			"buffer": 0,
			"byteLength": 56512,
			"byteOffset": 1622232
		},
		{
			"buffer": 0,
			"byteLength": 21192,
			"byteOffset": 1678744
		}
	],
	"buffers": [
		{
			"byteLength": 1699936,
			"uri": "RB5228_app.bin"
		}
	],
	"extensionsRequired": [
		"KHR_texture_transform"
	],
	"extensionsUsed": [
		"KHR_texture_transform"
	],
	"images": [
		{
			"mimeType": "image/png",
			"name": "RB5228_diffuse",
			"uri": "RB5228_app_image_0.png"
		},
		{
			"mimeType": "image/png",
			"name": "RB5228_occlusion",
			"uri": "RB5228_app_image_1.png"
		},
		{
			"mimeType": "image/jpeg",
			"name": "textura interna haste",
			"uri": "RB5228_app_image_2.jpg"
		}
	],
	"materials": [
		{
			"doubleSided": true,
			"emissiveFactor": [
				0.0,
				0.0,
				0.0
			],
			"name": "armacao mat",
			"pbrMetallicRoughness": {
				"baseColorTexture": {
					"index": 0,
					"texCoord": 0
				},
				"metallicFactor": 0.0,
				"roughnessFactor": 0.3
			}
		},
		{
			"alphaMode": "BLEND",
			"doubleSided": true,
			"emissiveFactor": [
				0.0,
				0.0,
				0.0
			],
			"name": "Lentes mat",
			"occlusionTexture": {
				"index": 1,
				"strength": 1.0,
				"texCoord": 0
			},
			"pbrMetallicRoughness": {
				"baseColorTexture": {
					"index": 0,
					"texCoord": 0
				},
				"metallicFactor": 0.0,
				"roughnessFactor": 0.1
			}
		},
		{
			"doubleSided": true,
			"emissiveFactor": [
				0.0,
				0.0,
				0.0
			],
			"name": "detalhe metal mat",
			"occlusionTexture": {
				"index": 1,
				"strength": 1.0,
				"texCoord": 0
			},
			"pbrMetallicRoughness": {
				"baseColorFactor": [
					0.3490196168422699,
					0.3490196168422699,
					0.3490196168422699,
					1.0
				],
				"metallicFactor": 1.0,
				"roughnessFactor": 0.1
			}
		},
		{
			"doubleSided": true,
			"emissiveFactor": [
				0.0,
				0.0,
				0.0
			],
			"name": "interno hastes mat",
			"occlusionTexture": {
				"index": 1,
				"strength": 1.0,
				"texCoord": 0
			},
			"pbrMetallicRoughness": {
				"baseColorTexture": {
					"extensions": {
						"KHR_texture_transform": {
							"offset": [
								-0.3210671009304952,
								1.9662921591615758
							],
							"rotation": 90.0,
							"scale": [
								0.8,
								0.8
							]
						}
					},
					"index": 2,
					"texCoord": 0
				},
				"metallicFactor": 0.0,
				"roughnessFactor": 0.3
			}
		}
	],
	"meshes": [
		{
			"name": "Mesh",
			"primitives": [
				{
					"attributes": {
						"NORMAL": 1,
						"POSITION": 0,
						"TEXCOORD_0": 2
					},
					"indices": 3,
					"material": 0,
					"mode": 4
				}
			]
		},
		{
			"name": "Mesh.001",
			"primitives": [
				{
					"attributes": {
						"NORMAL": 5,
						"POSITION": 4,
						"TEXCOORD_0": 6
					},
					"indices": 7,
					"material": 1,
					"mode": 4
				}
			]
		},
		{
			"name": "Mesh.002",
			"primitives": [
				{
					"attributes": {
						"NORMAL": 9,
						"POSITION": 8,
						"TEXCOORD_0": 10
					},
					"indices": 11,
					"material": 2,
					"mode": 4
				}
			]
		},
		{
			"name": "Mesh.003",
			"primitives": [
				{
					"attributes": {
						"NORMAL": 13,
						"POSITION": 12,
						"TEXCOORD_0": 14
					},
					"indices": 15,
					"material": 3,
					"mode": 4
				}
			]
		}
	],
	"nodes": [
		{
			"mesh": 0,
			"name": "Object004",
			"rotation": [
				-0.6610161066055298,
				0.0,
				0.0,
				0.7503716945648193
			],
			"scale": [
				-0.0011169600766152143,
				-0.0011169600766152143,
				-0.0011169600766152143
			]
		},
		{
			"mesh": 1,
			"name": "Lentes",
			"rotation": [
				-0.6610161066055298,
				0.0,
				0.0,
				0.7503716945648193
			],
			"scale": [
				-0.0011169600766152143,
				-0.0011169600766152143,
				-0.0011169600766152143
			]
		},
		{
			"mesh": 2,
			"name": "det metal frente",
			"rotation": [
				-0.6610161066055298,
				0.0,
				0.0,
				0.7503716945648193
			],
			"scale": [
				-0.0011169600766152143,
				-0.0011169600766152143,
				-0.0011169600766152143
			]
		},
		{
			"mesh": 3,
			"name": "Interno hastes",
			"rotation": [
				-0.6610161066055298,
				0.0,
				0.0,
				0.7503716945648193
			],
			"scale": [
				-0.0011169600766152143,
				-0.0011169600766152143,
				-0.0011169600766152143
			]
		}
	],
	"scene": 0,
	"scenes": [
		{
			"name": "Scene",
			"nodes": [
				0,
				1,
				2,
				3
			]
		}
	],
	"textures": [
		{
			"source": 0
		},
		{
			"source": 1
		},
		{
			"source": 2
		}
	]
}