{
	"accessors": [
		{
			"bufferView": 0,
			"byteOffset": 0,
			"componentType": 5126,
			"count": 27278,
			"max": [
				42.92995834350586,
				32.09789276123047,
				-8.780290603637695
			],
			"min": [
				-45.261322021484375,
				-32.07304382324219,
				-22.21587371826172
			],
			"type": "VEC3"
		},
		{
			"bufferView": 1,
			"byteOffset": 0,
			"componentType": 5126,
			"count": 27278,
			"type": "VEC3"
		},
		{
			"bufferView": 2,
			"byteOffset": 0,
			"componentType": 5126,
			"count": 27278,
			"type": "VEC2"
		},
		{
			"bufferView": 3,
			"byteOffset": 0,
			"componentType": 5123,
			"count": 75192,
			"type": "SCALAR"
		},
		{
			"bufferView": 4,
			"byteOffset": 0,
			"componentType": 5126,
			"count": 3844,
			"max": [
				33.74530029296875,
				33.505794525146484,
				3.151784896850586
			],
			"min": [
				-40.106224060058594,
				20.570960998535156,
				-24.793550491333008
			],
			"type": "VEC3"
		},
		{
			"bufferView": 5,
			"byteOffset": 0,
			"componentType": 5126,
			"count": 3844,
			"type": "VEC3"
		},
		{
			"bufferView": 6,
			"byteOffset": 0,
			"componentType": 5126,
			"count": 3844,
			"type": "VEC2"
		},
		{
			"bufferView": 7,
			"byteOffset": 0,
			"componentType": 5123,
			"count": 22272,
			"type": "SCALAR"
		},
		{
			"bufferView": 8,
			"byteOffset": 0,
			"componentType": 5126,
			"count": 10804,
			"max": [
				35.61064910888672,
				34.046714782714844,
				-8.405723571777344
			],
			"min": [
				-42.306278228759766,
				21.68230438232422,
				-24.995695114135742
			],
			"type": "VEC3"
		},
		{
			"bufferView": 9,
			"byteOffset": 0,
			"componentType": 5126,
			"count": 10804,
			"type": "VEC3"
		},
		{
			"bufferView": 10,
			"byteOffset": 0,
			"componentType": 5126,
			"count": 10804,
			"type": "VEC2"
		},
		{
			"bufferView": 11,
			"byteOffset": 0,
			"componentType": 5123,
			"count": 62304,
			"type": "SCALAR"
		},
		{
			"bufferView": 12,
			"byteOffset": 0,
			"componentType": 5126,
			"count": 3584,
			"max": [
				5.1377716064453125,
				27.85254669189453,
				-4.875017166137695
			],
			"min": [
				-11.224868774414063,
				23.15900230407715,
				-12.707996368408203
			],
			"type": "VEC3"
		},
		{
			"bufferView": 13,
			"byteOffset": 0,
			"componentType": 5126,
			"count": 3584,
			"type": "VEC3"
		},
		{
			"bufferView": 14,
			"byteOffset": 0,
			"componentType": 5126,
			"count": 3584,
			"type": "VEC2"
		},
		{
			"bufferView": 15,
			"byteOffset": 0,
			"componentType": 5123,
			"count": 5376,
			"type": "SCALAR"
		}
	],
	"asset": {
		"generator": "Gestaltor 2020.2.0 Alpha 'Schokoei' (CI-cce52488*)",
		"version": "2.0"
	},
	"bufferViews": [
		{
			"buffer": 0,
			"byteLength": 327336,
			"byteOffset": 0
		},
		{
			"buffer": 0,
			"byteLength": 327336,
			"byteOffset": 327336
		},
		{
			"buffer": 0,
			"byteLength": 218224,
			"byteOffset": 654672
		},
		{
			"buffer": 0,
			"byteLength": 150384,
			"byteOffset": 872896
		},
		{
			"buffer": 0,
			"byteLength": 46128,
			"byteOffset": 1023280
		},
		{
			"buffer": 0,
			"byteLength": 46128,
			"byteOffset": 1069408
		},
		{
			"buffer": 0,
			"byteLength": 30752,
			"byteOffset": 1115536
		},
		{
			"buffer": 0,
			"byteLength": 44544,
			"byteOffset": 1146288
		},
		{
			"buffer": 0,
			"byteLength": 129648,
			"byteOffset": 1190832
		},
		{
			"buffer": 0,
			"byteLength": 129648,
			"byteOffset": 1320480
		},
		{
			"buffer": 0,
			"byteLength": 86432,
			"byteOffset": 1450128
		},
		{
			"buffer": 0,
			"byteLength": 124608,
			"byteOffset": 1536560
		},
		{
			"buffer": 0,
			"byteLength": 43008,
			"byteOffset": 1661168
		},
		{
			"buffer": 0,
			"byteLength": 43008,
			"byteOffset": 1704176
		},
		{
			"buffer": 0,
			"byteLength": 28672,
			"byteOffset": 1747184
		},
		{
			"buffer": 0,
			"byteLength": 10752,
			"byteOffset": 1775856
		}
	],
	"buffers": [
		{
			"byteLength": 1786608,
			"uri": "RB3578_app.bin"
		}
	],
	"images": [
		{
			"mimeType": "image/png",
			"name": "rb3578V_diffuse",
			"uri": "RB3578_app_image_0.png"
		},
		{
			"mimeType": "image/png",
			"name": "RB3578V_occlusion",
			"uri": "RB3578_app_image_1.png"
		}
	],
	"materials": [
		{
			"doubleSided": true,
			"emissiveFactor": [
				0.0,
				0.0,
				0.0
			],
			"name": "Armacao metal mat",
			"occlusionTexture": {
				"index": 1,
				"strength": 1.0,
				"texCoord": 0
			},
			"pbrMetallicRoughness": {
				"baseColorTexture": {
					"index": 0,
					"texCoord": 0
				},
				"metallicFactor": 1.0,
				"roughnessFactor": 0.2
			}
		},
		{
			"alphaMode": "BLEND",
			"doubleSided": true,
			"emissiveFactor": [
				0.0,
				0.0,
				0.0
			],
			"name": "Lentes mat",
			"occlusionTexture": {
				"index": 1,
				"strength": 1.0,
				"texCoord": 0
			},
			"pbrMetallicRoughness": {
				"baseColorFactor": [
					0.9803921580314636,
					0.9803921580314636,
					0.9803921580314636,
					1.0
				],
				"baseColorTexture": {
					"index": 0,
					"texCoord": 0
				},
				"metallicFactor": 0.0,
				"roughnessFactor": 0.0
			}
		},
		{
			"doubleSided": true,
			"emissiveFactor": [
				0.0,
				0.0,
				0.0
			],
			"name": "Frente mat\t",
			"occlusionTexture": {
				"index": 1,
				"strength": 1.0,
				"texCoord": 0
			},
			"pbrMetallicRoughness": {
				"baseColorFactor": [
					0.0117647061124444,
					0.0117647061124444,
					0.0117647061124444,
					1.0
				],
				"baseColorTexture": {
					"index": 0,
					"texCoord": 0
				},
				"metallicFactor": 0.0,
				"roughnessFactor": 0.3
			}
		},
		{
			"alphaMode": "BLEND",
			"doubleSided": true,
			"emissiveFactor": [
				0.0,
				0.0,
				0.0
			],
			"name": "Ponte mat",
			"occlusionTexture": {
				"index": 1,
				"strength": 1.0,
				"texCoord": 0
			},
			"pbrMetallicRoughness": {
				"baseColorTexture": {
					"index": 0,
					"texCoord": 0
				},
				"metallicFactor": 0.0,
				"roughnessFactor": 0.4
			}
		}
	],
	"meshes": [
		{
			"name": "Mesh",
			"primitives": [
				{
					"attributes": {
						"NORMAL": 1,
						"POSITION": 0,
						"TEXCOORD_0": 2
					},
					"indices": 3,
					"material": 0,
					"mode": 4
				}
			]
		},
		{
			"name": "Mesh.001",
			"primitives": [
				{
					"attributes": {
						"NORMAL": 5,
						"POSITION": 4,
						"TEXCOORD_0": 6
					},
					"indices": 7,
					"material": 1,
					"mode": 4
				}
			]
		},
		{
			"name": "Mesh.002",
			"primitives": [
				{
					"attributes": {
						"NORMAL": 9,
						"POSITION": 8,
						"TEXCOORD_0": 10
					},
					"indices": 11,
					"material": 2,
					"mode": 4
				}
			]
		},
		{
			"name": "Mesh.003",
			"primitives": [
				{
					"attributes": {
						"NORMAL": 13,
						"POSITION": 12,
						"TEXCOORD_0": 14
					},
					"indices": 15,
					"material": 3,
					"mode": 4
				}
			]
		}
	],
	"nodes": [
		{
			"mesh": 0,
			"name": "Armacao metal",
			"rotation": [
				-0.7300384044647217,
				-0.04219581186771393,
				-0.03315768018364906,
				0.6812958121299744
			],
			"scale": [
				-0.0018447069451212883,
				-0.0019670401234179735,
				-0.0018426565220579505
			]
		},
		{
			"mesh": 1,
			"name": "Lentes",
			"rotation": [
				-0.7300384044647217,
				-0.04219581186771393,
				-0.03315768018364906,
				0.6812958121299744
			],
			"scale": [
				-0.0018447069451212883,
				-0.0019670401234179735,
				-0.0018426565220579505
			]
		},
		{
			"mesh": 2,
			"name": "frente",
			"rotation": [
				-0.7300384044647217,
				-0.04219581186771393,
				-0.03315768018364906,
				0.6812958121299744
			],
			"scale": [
				-0.0018447069451212883,
				-0.0019670401234179735,
				-0.0018426565220579505
			]
		},
		{
			"mesh": 3,
			"name": "Ponte",
			"rotation": [
				-0.7300384044647217,
				-0.04219581186771393,
				-0.03315768018364906,
				0.6812958121299744
			],
			"scale": [
				-0.0018447069451212883,
				-0.0019670401234179735,
				-0.0018426565220579505
			]
		}
	],
	"scene": 0,
	"scenes": [
		{
			"name": "Scene",
			"nodes": [
				0,
				1,
				2,
				3
			]
		}
	],
	"textures": [
		{
			"source": 0
		},
		{
			"source": 1
		}
	]
}