{
	"accessors": [
		{
			"bufferView": 0,
			"byteOffset": 0,
			"componentType": 5126,
			"count": 15327,
			"max": [
				52.07691955566406,
				34.00751495361328,
				-1.5628948211669922
			],
			"min": [
				-52.52995681762695,
				-39.185855865478516,
				-35.121212005615234
			],
			"type": "VEC3"
		},
		{
			"bufferView": 1,
			"byteOffset": 0,
			"componentType": 5126,
			"count": 15327,
			"type": "VEC3"
		},
		{
			"bufferView": 2,
			"byteOffset": 0,
			"componentType": 5126,
			"count": 15327,
			"type": "VEC4"
		},
		{
			"bufferView": 3,
			"byteOffset": 0,
			"componentType": 5126,
			"count": 15327,
			"type": "VEC2"
		},
		{
			"bufferView": 4,
			"byteOffset": 0,
			"componentType": 5123,
			"count": 83184,
			"type": "SCALAR"
		},
		{
			"bufferView": 5,
			"byteOffset": 0,
			"componentType": 5126,
			"count": 3541,
			"max": [
				48.23570251464844,
				33.646949768066406,
				-1.956573486328125
			],
			"min": [
				-42.70597839355469,
				23.365066528320313,
				-34.74523162841797
			],
			"type": "VEC3"
		},
		{
			"bufferView": 6,
			"byteOffset": 0,
			"componentType": 5126,
			"count": 3541,
			"type": "VEC3"
		},
		{
			"bufferView": 7,
			"byteOffset": 0,
			"componentType": 5126,
			"count": 3541,
			"type": "VEC4"
		},
		{
			"bufferView": 8,
			"byteOffset": 0,
			"componentType": 5126,
			"count": 3541,
			"type": "VEC2"
		},
		{
			"bufferView": 9,
			"byteOffset": 0,
			"componentType": 5123,
			"count": 20400,
			"type": "SCALAR"
		},
		{
			"bufferView": 10,
			"byteOffset": 0,
			"componentType": 5126,
			"count": 965,
			"max": [
				11.99159049987793,
				29.558229446411133,
				-15.202093124389648
			],
			"min": [
				-6.764142990112305,
				24.23263931274414,
				-21.707927703857422
			],
			"type": "VEC3"
		},
		{
			"bufferView": 11,
			"byteOffset": 0,
			"componentType": 5126,
			"count": 965,
			"type": "VEC3"
		},
		{
			"bufferView": 12,
			"byteOffset": 0,
			"componentType": 5126,
			"count": 965,
			"type": "VEC4"
		},
		{
			"bufferView": 13,
			"byteOffset": 0,
			"componentType": 5126,
			"count": 965,
			"type": "VEC2"
		},
		{
			"bufferView": 14,
			"byteOffset": 0,
			"componentType": 5123,
			"count": 5376,
			"type": "SCALAR"
		}
	],
	"asset": {
		"generator": "Gestaltor 2020.2.1 Alpha 'Zuckerwatte' (CI-38fb8ee1*)",
		"version": "2.0"
	},
	"bufferViews": [
		{
			"buffer": 0,
			"byteLength": 183924,
			"byteOffset": 0
		},
		{
			"buffer": 0,
			"byteLength": 183924,
			"byteOffset": 183924
		},
		{
			"buffer": 0,
			"byteLength": 245232,
			"byteOffset": 367848
		},
		{
			"buffer": 0,
			"byteLength": 122616,
			"byteOffset": 613080
		},
		{
			"buffer": 0,
			"byteLength": 166368,
			"byteOffset": 735696
		},
		{
			"buffer": 0,
			"byteLength": 42492,
			"byteOffset": 902064
		},
		{
			"buffer": 0,
			"byteLength": 42492,
			"byteOffset": 944556
		},
		{
			"buffer": 0,
			"byteLength": 56656,
			"byteOffset": 987048
		},
		{
			"buffer": 0,
			"byteLength": 28328,
			"byteOffset": 1043704
		},
		{
			"buffer": 0,
			"byteLength": 40800,
			"byteOffset": 1072032
		},
		{
			"buffer": 0,
			"byteLength": 11580,
			"byteOffset": 1112832
		},
		{
			"buffer": 0,
			"byteLength": 11580,
			"byteOffset": 1124412
		},
		{
			"buffer": 0,
			"byteLength": 15440,
			"byteOffset": 1135992
		},
		{
			"buffer": 0,
			"byteLength": 7720,
			"byteOffset": 1151432
		},
		{
			"buffer": 0,
			"byteLength": 10752,
			"byteOffset": 1159152
		}
	],
	"buffers": [
		{
			"byteLength": 1169904,
			"uri": "Hexagonal.bin"
		}
	],
	"images": [
		{
			"mimeType": "image/jpeg",
			"name": "Hexagonal_diffuse",
			"uri": "Hexagonal_diffuse.jpg"
		},
		{
			"mimeType": "image/png",
			"name": "Hexagonal_orm",
			"uri": "Hexagonal_orm.png"
		}
	],
	"materials": [
		{
			"doubleSided": true,
			"emissiveFactor": [
				0.0,
				0.0,
				0.0
			],
			"name": "armacao",
			"occlusionTexture": {
				"index": 1,
				"strength": 1.0
			},
			"pbrMetallicRoughness": {
				"baseColorTexture": {
					"index": 0,
					"texCoord": 0
				},
				"metallicRoughnessTexture": {
					"index": 1,
					"texCoord": 0
				}
			}
		},
		{
			"alphaMode": "BLEND",
			"doubleSided": false,
			"emissiveFactor": [
				0.0,
				0.0,
				0.0
			],
			"name": "lentes",
			"pbrMetallicRoughness": {
				"baseColorFactor": [
					1.0,
					1.0,
					1.0,
					0.9599999785423279
				],
				"baseColorTexture": {
					"index": 0
				},
				"metallicFactor": 1.0,
				"metallicRoughnessTexture": {
					"index": 1
				},
				"roughnessFactor": 1.0
			}
		},
		{
			"alphaMode": "BLEND",
			"doubleSided": true,
			"emissiveFactor": [
				0.0,
				0.0,
				0.0
			],
			"name": "ponte",
			"pbrMetallicRoughness": {
				"baseColorFactor": [
					1.0,
					1.0,
					1.0,
					0.5
				],
				"baseColorTexture": {
					"index": 0
				},
				"metallicFactor": 1.0,
				"metallicRoughnessTexture": {
					"index": 1
				},
				"roughnessFactor": 1.0
			}
		}
	],
	"meshes": [
		{
			"name": "Mesh",
			"primitives": [
				{
					"attributes": {
						"NORMAL": 1,
						"POSITION": 0,
						"TANGENT": 2,
						"TEXCOORD_0": 3
					},
					"indices": 4,
					"material": 0,
					"mode": 4
				}
			]
		},
		{
			"name": "Mesh.001",
			"primitives": [
				{
					"attributes": {
						"NORMAL": 6,
						"POSITION": 5,
						"TANGENT": 7,
						"TEXCOORD_0": 8
					},
					"indices": 9,
					"material": 1,
					"mode": 4
				}
			]
		},
		{
			"name": "Mesh.002",
			"primitives": [
				{
					"attributes": {
						"NORMAL": 11,
						"POSITION": 10,
						"TANGENT": 12,
						"TEXCOORD_0": 13
					},
					"indices": 14,
					"material": 2,
					"mode": 4
				}
			]
		}
	],
	"nodes": [
		{
			"mesh": 0,
			"name": "aramacao",
			"rotation": [
				0.7543634176254272,
				-0.0329362191259861,
				0.028598202392458916,
				0.6550062298774719
			],
			"scale": [
				0.0015551201067864895,
				0.0015551199903711677,
				0.0015551199903711677
			]
		},
		{
			"mesh": 1,
			"name": "Lentes",
			"rotation": [
				0.7543634176254272,
				-0.0329362191259861,
				0.028598202392458916,
				0.6550062298774719
			],
			"scale": [
				0.0015551201067864895,
				0.0015551199903711677,
				0.0015551199903711677
			]
		},
		{
			"mesh": 2,
			"name": "Ponte",
			"rotation": [
				0.7543634176254272,
				-0.0329362191259861,
				0.028598202392458916,
				0.6550062298774719
			],
			"scale": [
				0.0015551201067864895,
				0.0015551199903711677,
				0.0015551199903711677
			]
		}
	],
	"scene": 0,
	"scenes": [
		{
			"name": "Scene",
			"nodes": [
				0,
				1,
				2
			]
		}
	],
	"textures": [
		{
			"source": 0
		},
		{
			"source": 1
		}
	]
}