{
	"accessors": [
		{
			"bufferView": 0,
			"byteOffset": 0,
			"componentType": 5126,
			"count": 20200,
			"max": [
				53.09372329711914,
				31.396913528442383,
				9.411701202392578
			],
			"min": [
				-28.904094696044922,
				-37.678077697753906,
				-48.10975646972656
			],
			"type": "VEC3"
		},
		{
			"bufferView": 1,
			"byteOffset": 0,
			"componentType": 5126,
			"count": 20200,
			"type": "VEC3"
		},
		{
			"bufferView": 2,
			"byteOffset": 0,
			"componentType": 5126,
			"count": 20200,
			"type": "VEC2"
		},
		{
			"bufferView": 3,
			"byteOffset": 0,
			"componentType": 5123,
			"count": 61728,
			"type": "SCALAR"
		},
		{
			"bufferView": 4,
			"byteOffset": 0,
			"componentType": 5126,
			"count": 10,
			"max": [
				19.221025466918945,
				31.42966651916504,
				-20.24636459350586
			],
			"min": [
				19.10451889038086,
				31.425973892211914,
				-20.602575302124023
			],
			"type": "VEC3"
		},
		{
			"bufferView": 5,
			"byteOffset": 0,
			"componentType": 5126,
			"count": 10,
			"type": "VEC3"
		},
		{
			"bufferView": 6,
			"byteOffset": 0,
			"componentType": 5126,
			"count": 10,
			"type": "VEC2"
		},
		{
			"bufferView": 7,
			"byteOffset": 0,
			"componentType": 5123,
			"count": 24,
			"type": "SCALAR"
		},
		{
			"bufferView": 8,
			"byteOffset": 0,
			"componentType": 5126,
			"count": 3460,
			"max": [
				47.18865966796875,
				30.93052864074707,
				12.182449340820313
			],
			"min": [
				-26.056438446044922,
				26.14238166809082,
				-44.760650634765625
			],
			"type": "VEC3"
		},
		{
			"bufferView": 9,
			"byteOffset": 0,
			"componentType": 5126,
			"count": 3460,
			"type": "VEC3"
		},
		{
			"bufferView": 10,
			"byteOffset": 0,
			"componentType": 5126,
			"count": 3460,
			"type": "VEC2"
		},
		{
			"bufferView": 11,
			"byteOffset": 0,
			"componentType": 5123,
			"count": 19968,
			"type": "SCALAR"
		},
		{
			"bufferView": 12,
			"byteOffset": 0,
			"componentType": 5126,
			"count": 4948,
			"max": [
				51.94265365600586,
				31.916271209716797,
				13.067493438720703
			],
			"min": [
				-27.158126831054688,
				26.3689022064209,
				-47.686248779296875
			],
			"type": "VEC3"
		},
		{
			"bufferView": 13,
			"byteOffset": 0,
			"componentType": 5126,
			"count": 4948,
			"type": "VEC3"
		},
		{
			"bufferView": 14,
			"byteOffset": 0,
			"componentType": 5126,
			"count": 4948,
			"type": "VEC2"
		},
		{
			"bufferView": 15,
			"byteOffset": 0,
			"componentType": 5123,
			"count": 28296,
			"type": "SCALAR"
		},
		{
			"bufferView": 16,
			"byteOffset": 0,
			"componentType": 5126,
			"count": 11966,
			"max": [
				51.9259033203125,
				31.674365997314453,
				13.067493438720703
			],
			"min": [
				-27.14928436279297,
				24.31336212158203,
				-47.6806526184082
			],
			"type": "VEC3"
		},
		{
			"bufferView": 17,
			"byteOffset": 0,
			"componentType": 5126,
			"count": 11966,
			"type": "VEC3"
		},
		{
			"bufferView": 18,
			"byteOffset": 0,
			"componentType": 5126,
			"count": 11966,
			"type": "VEC2"
		},
		{
			"bufferView": 19,
			"byteOffset": 0,
			"componentType": 5123,
			"count": 64800,
			"type": "SCALAR"
		},
		{
			"bufferView": 20,
			"byteOffset": 0,
			"componentType": 5126,
			"count": 3584,
			"max": [
				15.379854202270508,
				28.23884391784668,
				-9.312490463256836
			],
			"min": [
				2.180854320526123,
				24.230398178100586,
				-20.95973777770996
			],
			"type": "VEC3"
		},
		{
			"bufferView": 21,
			"byteOffset": 0,
			"componentType": 5126,
			"count": 3584,
			"type": "VEC3"
		},
		{
			"bufferView": 22,
			"byteOffset": 0,
			"componentType": 5126,
			"count": 3584,
			"type": "VEC2"
		},
		{
			"bufferView": 23,
			"byteOffset": 0,
			"componentType": 5123,
			"count": 5376,
			"type": "SCALAR"
		}
	],
	"asset": {
		"generator": "Gestaltor 2020.2.0 Alpha 'Schokoei' (CI-cce52488*)",
		"version": "2.0"
	},
	"bufferViews": [
		{
			"buffer": 0,
			"byteLength": 242400,
			"byteOffset": 0
		},
		{
			"buffer": 0,
			"byteLength": 242400,
			"byteOffset": 242400
		},
		{
			"buffer": 0,
			"byteLength": 161600,
			"byteOffset": 484800
		},
		{
			"buffer": 0,
			"byteLength": 123456,
			"byteOffset": 646400
		},
		{
			"buffer": 0,
			"byteLength": 120,
			"byteOffset": 769856
		},
		{
			"buffer": 0,
			"byteLength": 120,
			"byteOffset": 769976
		},
		{
			"buffer": 0,
			"byteLength": 80,
			"byteOffset": 770096
		},
		{
			"buffer": 0,
			"byteLength": 48,
			"byteOffset": 770176
		},
		{
			"buffer": 0,
			"byteLength": 41520,
			"byteOffset": 770224
		},
		{
			"buffer": 0,
			"byteLength": 41520,
			"byteOffset": 811744
		},
		{
			"buffer": 0,
			"byteLength": 27680,
			"byteOffset": 853264
		},
		{
			"buffer": 0,
			"byteLength": 39936,
			"byteOffset": 880944
		},
		{
			"buffer": 0,
			"byteLength": 59376,
			"byteOffset": 920880
		},
		{
			"buffer": 0,
			"byteLength": 59376,
			"byteOffset": 980256
		},
		{
			"buffer": 0,
			"byteLength": 39584,
			"byteOffset": 1039632
		},
		{
			"buffer": 0,
			"byteLength": 56592,
			"byteOffset": 1079216
		},
		{
			"buffer": 0,
			"byteLength": 143592,
			"byteOffset": 1135808
		},
		{
			"buffer": 0,
			"byteLength": 143592,
			"byteOffset": 1279400
		},
		{
			"buffer": 0,
			"byteLength": 95728,
			"byteOffset": 1422992
		},
		{
			"buffer": 0,
			"byteLength": 129600,
			"byteOffset": 1518720
		},
		{
			"buffer": 0,
			"byteLength": 43008,
			"byteOffset": 1648320
		},
		{
			"buffer": 0,
			"byteLength": 43008,
			"byteOffset": 1691328
		},
		{
			"buffer": 0,
			"byteLength": 28672,
			"byteOffset": 1734336
		},
		{
			"buffer": 0,
			"byteLength": 10752,
			"byteOffset": 1763008
		}
	],
	"buffers": [
		{
			"byteLength": 1773760,
			"uri": "RB7140_app.bin"
		}
	],
	"images": [
		{
			"mimeType": "image/png",
			"name": "RB7140_diffuse",
			"uri": "RB7140_app_image_0.png"
		},
		{
			"mimeType": "image/png",
			"name": "RB7140_occlusion",
			"uri": "RB7140_app_image_1.png"
		}
	],
	"materials": [
		{
			"doubleSided": true,
			"emissiveFactor": [
				0.0,
				0.0,
				0.0
			],
			"name": "metais mat",
			"occlusionTexture": {
				"index": 1,
				"strength": 1.0,
				"texCoord": 0
			},
			"pbrMetallicRoughness": {
				"baseColorTexture": {
					"index": 0,
					"texCoord": 0
				},
				"metallicFactor": 1.0,
				"roughnessFactor": 0.2
			}
		},
		{
			"alphaMode": "OPAQUE",
			"doubleSided": true,
			"emissiveFactor": [
				0.0,
				0.0,
				0.0
			],
			"name": "detalhe frente mat",
			"occlusionTexture": {
				"index": 1,
				"strength": 1.0,
				"texCoord": 0
			},
			"pbrMetallicRoughness": {
				"baseColorFactor": [
					0.34117648005485535,
					0.03921568766236305,
					0.05098039284348488,
					1.0
				],
				"metallicFactor": 0.0,
				"roughnessFactor": 0.2
			}
		},
		{
			"alphaMode": "BLEND",
			"doubleSided": true,
			"emissiveFactor": [
				0.0,
				0.0,
				0.0
			],
			"name": "Lentes mat",
			"occlusionTexture": {
				"index": 1,
				"strength": 1.0,
				"texCoord": 0
			},
			"pbrMetallicRoughness": {
				"baseColorTexture": {
					"index": 0,
					"texCoord": 0
				},
				"metallicFactor": 0.0,
				"roughnessFactor": 0.1
			}
		},
		{
			"alphaMode": "BLEND",
			"doubleSided": true,
			"emissiveFactor": [
				0.0,
				0.0,
				0.0
			],
			"name": "frente mat",
			"occlusionTexture": {
				"index": 1,
				"strength": 1.0,
				"texCoord": 0
			},
			"pbrMetallicRoughness": {
				"baseColorFactor": [
					0.9019607901573181,
					0.9019607901573181,
					0.9019607901573181,
					1.0
				],
				"baseColorTexture": {
					"index": 0,
					"texCoord": 0
				},
				"metallicFactor": 0.0,
				"roughnessFactor": 0.3
			}
		}
	],
	"meshes": [
		{
			"name": "Mesh",
			"primitives": [
				{
					"attributes": {
						"NORMAL": 1,
						"POSITION": 0,
						"TEXCOORD_0": 2
					},
					"indices": 3,
					"material": 0,
					"mode": 4
				},
				{
					"attributes": {
						"NORMAL": 5,
						"POSITION": 4,
						"TEXCOORD_0": 6
					},
					"indices": 7,
					"material": 1,
					"mode": 4
				}
			]
		},
		{
			"name": "Mesh.001",
			"primitives": [
				{
					"attributes": {
						"NORMAL": 9,
						"POSITION": 8,
						"TEXCOORD_0": 10
					},
					"indices": 11,
					"material": 2,
					"mode": 4
				}
			]
		},
		{
			"name": "Mesh.002",
			"primitives": [
				{
					"attributes": {
						"NORMAL": 13,
						"POSITION": 12,
						"TEXCOORD_0": 14
					},
					"indices": 15,
					"material": 1,
					"mode": 4
				}
			]
		},
		{
			"name": "Mesh.003",
			"primitives": [
				{
					"attributes": {
						"NORMAL": 17,
						"POSITION": 16,
						"TEXCOORD_0": 18
					},
					"indices": 19,
					"material": 3,
					"mode": 4
				}
			]
		},
		{
			"name": "Mesh.004",
			"primitives": [
				{
					"attributes": {
						"NORMAL": 21,
						"POSITION": 20,
						"TEXCOORD_0": 22
					},
					"indices": 23,
					"material": 3,
					"mode": 4
				}
			]
		}
	],
	"nodes": [
		{
			"mesh": 0,
			"name": "Metais",
			"rotation": [
				0.7253643870353699,
				0.17764998972415924,
				0.2035273015499115,
				0.6331379413604736
			],
			"scale": [
				0.0017159300623461604,
				0.0017159299459308386,
				0.0017159300623461604
			]
		},
		{
			"mesh": 1,
			"name": "Lentes",
			"rotation": [
				0.7253643870353699,
				0.17764998972415924,
				0.2035273015499115,
				0.6331379413604736
			],
			"scale": [
				0.0017159300623461604,
				0.0017159299459308386,
				0.0017159300623461604
			]
		},
		{
			"mesh": 2,
			"name": "Det frente",
			"rotation": [
				0.7253643870353699,
				0.17764998972415924,
				0.2035273015499115,
				0.6331379413604736
			],
			"scale": [
				0.0017159300623461604,
				0.0017159299459308386,
				0.0017159300623461604
			]
		},
		{
			"mesh": 3,
			"name": "Frente",
			"rotation": [
				0.7253643870353699,
				0.17764998972415924,
				0.2035273015499115,
				0.6331379413604736
			],
			"scale": [
				0.0017159300623461604,
				0.0017159299459308386,
				0.0017159300623461604
			]
		},
		{
			"mesh": 4,
			"name": "Ponte",
			"rotation": [
				0.7253643870353699,
				0.17764998972415924,
				0.2035273015499115,
				0.6331379413604736
			],
			"scale": [
				0.0017159300623461604,
				0.0017159299459308386,
				0.0017159300623461604
			]
		}
	],
	"scene": 0,
	"scenes": [
		{
			"name": "Scene",
			"nodes": [
				0,
				1,
				2,
				3,
				4
			]
		}
	],
	"textures": [
		{
			"source": 0
		},
		{
			"source": 1
		}
	]
}