{
	"accessors": [
		{
			"bufferView": 0,
			"byteOffset": 0,
			"componentType": 5126,
			"count": 25510,
			"max": [
				20.539714813232422,
				29.821374893188477,
				-3.065896987915039
			],
			"min": [
				-20.539718627929688,
				-34.63998794555664,
				-31.098983764648438
			],
			"type": "VEC3"
		},
		{
			"bufferView": 1,
			"byteOffset": 0,
			"componentType": 5126,
			"count": 25510,
			"type": "VEC3"
		},
		{
			"bufferView": 2,
			"byteOffset": 0,
			"componentType": 5126,
			"count": 25510,
			"type": "VEC4"
		},
		{
			"bufferView": 3,
			"byteOffset": 0,
			"componentType": 5126,
			"count": 25510,
			"type": "VEC2"
		},
		{
			"bufferView": 4,
			"byteOffset": 0,
			"componentType": 5123,
			"count": 121968,
			"type": "SCALAR"
		},
		{
			"bufferView": 5,
			"byteOffset": 0,
			"componentType": 5126,
			"count": 2098,
			"max": [
				20.563566207885742,
				20.402881622314453,
				-10.358086585998535
			],
			"min": [
				-20.563566207885742,
				-34.600399017333984,
				-25.959575653076172
			],
			"type": "VEC3"
		},
		{
			"bufferView": 6,
			"byteOffset": 0,
			"componentType": 5126,
			"count": 2098,
			"type": "VEC3"
		},
		{
			"bufferView": 7,
			"byteOffset": 0,
			"componentType": 5126,
			"count": 2098,
			"type": "VEC4"
		},
		{
			"bufferView": 8,
			"byteOffset": 0,
			"componentType": 5126,
			"count": 2098,
			"type": "VEC2"
		},
		{
			"bufferView": 9,
			"byteOffset": 0,
			"componentType": 5123,
			"count": 12096,
			"type": "SCALAR"
		},
		{
			"bufferView": 10,
			"byteOffset": 0,
			"componentType": 5126,
			"count": 2180,
			"max": [
				17.442628860473633,
				29.140012741088867,
				-3.3366336822509766
			],
			"min": [
				-17.44263458251953,
				26.872901916503906,
				-30.735843658447266
			],
			"type": "VEC3"
		},
		{
			"bufferView": 11,
			"byteOffset": 0,
			"componentType": 5126,
			"count": 2180,
			"type": "VEC3"
		},
		{
			"bufferView": 12,
			"byteOffset": 0,
			"componentType": 5126,
			"count": 2180,
			"type": "VEC4"
		},
		{
			"bufferView": 13,
			"byteOffset": 0,
			"componentType": 5126,
			"count": 2180,
			"type": "VEC2"
		},
		{
			"bufferView": 14,
			"byteOffset": 0,
			"componentType": 5123,
			"count": 12672,
			"type": "SCALAR"
		},
		{
			"bufferView": 15,
			"byteOffset": 0,
			"componentType": 5126,
			"count": 3584,
			"max": [
				3.452252149581909,
				27.185455322265625,
				-12.048608779907227
			],
			"min": [
				-3.452256917953491,
				23.421876907348633,
				-19.811073303222656
			],
			"type": "VEC3"
		},
		{
			"bufferView": 16,
			"byteOffset": 0,
			"componentType": 5126,
			"count": 3584,
			"type": "VEC3"
		},
		{
			"bufferView": 17,
			"byteOffset": 0,
			"componentType": 5126,
			"count": 3584,
			"type": "VEC4"
		},
		{
			"bufferView": 18,
			"byteOffset": 0,
			"componentType": 5126,
			"count": 3584,
			"type": "VEC2"
		},
		{
			"bufferView": 19,
			"byteOffset": 0,
			"componentType": 5123,
			"count": 5376,
			"type": "SCALAR"
		}
	],
	"asset": {
		"generator": "Gestaltor 2020.2.1 Alpha 'Zuckerwatte' (CI-38fb8ee1*)",
		"version": "2.0"
	},
	"bufferViews": [
		{
			"buffer": 0,
			"byteLength": 306120,
			"byteOffset": 0
		},
		{
			"buffer": 0,
			"byteLength": 306120,
			"byteOffset": 306120
		},
		{
			"buffer": 0,
			"byteLength": 408160,
			"byteOffset": 612240
		},
		{
			"buffer": 0,
			"byteLength": 204080,
			"byteOffset": 1020400
		},
		{
			"buffer": 0,
			"byteLength": 243936,
			"byteOffset": 1224480
		},
		{
			"buffer": 0,
			"byteLength": 25176,
			"byteOffset": 1468416
		},
		{
			"buffer": 0,
			"byteLength": 25176,
			"byteOffset": 1493592
		},
		{
			"buffer": 0,
			"byteLength": 33568,
			"byteOffset": 1518768
		},
		{
			"buffer": 0,
			"byteLength": 16784,
			"byteOffset": 1552336
		},
		{
			"buffer": 0,
			"byteLength": 24192,
			"byteOffset": 1569120
		},
		{
			"buffer": 0,
			"byteLength": 26160,
			"byteOffset": 1593312
		},
		{
			"buffer": 0,
			"byteLength": 26160,
			"byteOffset": 1619472
		},
		{
			"buffer": 0,
			"byteLength": 34880,
			"byteOffset": 1645632
		},
		{
			"buffer": 0,
			"byteLength": 17440,
			"byteOffset": 1680512
		},
		{
			"buffer": 0,
			"byteLength": 25344,
			"byteOffset": 1697952
		},
		{
			"buffer": 0,
			"byteLength": 43008,
			"byteOffset": 1723296
		},
		{
			"buffer": 0,
			"byteLength": 43008,
			"byteOffset": 1766304
		},
		{
			"buffer": 0,
			"byteLength": 57344,
			"byteOffset": 1809312
		},
		{
			"buffer": 0,
			"byteLength": 28672,
			"byteOffset": 1866656
		},
		{
			"buffer": 0,
			"byteLength": 10752,
			"byteOffset": 1895328
		}
	],
	"buffers": [
		{
			"byteLength": 1906080,
			"uri": "RB6375.bin"
		}
	],
	"images": [
		{
			"mimeType": "image/jpeg",
			"name": "RB6375_diffuse",
			"uri": "RB6375_diffuse.jpg"
		},
		{
			"mimeType": "image/png",
			"name": "RB6375_ORM",
			"uri": "RB6375_ORM.png"
		}
	],
	"materials": [
		{
			"doubleSided": true,
			"emissiveFactor": [
				0.0,
				0.0,
				0.0
			],
			"name": "armacao\t",
			"occlusionTexture": {
				"index": 1,
				"strength": 1.0
			},
			"pbrMetallicRoughness": {
				"baseColorFactor": [
					1.0,
					1.0,
					1.0,
					1.0
				],
				"baseColorTexture": {
					"index": 0,
					"texCoord": 0
				},
				"metallicRoughnessTexture": {
					"index": 1,
					"texCoord": 0
				}
			}
		},
		{
			"doubleSided": true,
			"emissiveFactor": [
				0.0,
				0.0,
				0.0
			],
			"name": "Detalhe hastes",
			"occlusionTexture": {
				"index": 1,
				"strength": 1.0
			},
			"pbrMetallicRoughness": {
				"baseColorFactor": [
					1.0,
					1.0,
					1.0,
					1.0
				],
				"baseColorTexture": {
					"index": 0
				},
				"metallicFactor": 1.0,
				"metallicRoughnessTexture": {
					"index": 1
				},
				"roughnessFactor": 1.0
			}
		},
		{
			"alphaMode": "BLEND",
			"doubleSided": true,
			"emissiveFactor": [
				0.0,
				0.0,
				0.0
			],
			"name": "Lentes",
			"pbrMetallicRoughness": {
				"baseColorFactor": [
					1.0,
					1.0,
					1.0,
					0.0470588244497776
				],
				"baseColorTexture": {
					"index": 0
				},
				"metallicFactor": 1.0,
				"metallicRoughnessTexture": {
					"index": 0
				},
				"roughnessFactor": 1.0
			}
		},
		{
			"alphaMode": "BLEND",
			"doubleSided": true,
			"emissiveFactor": [
				0.0,
				0.0,
				0.0
			],
			"name": "Pontes",
			"pbrMetallicRoughness": {
				"baseColorFactor": [
					1.0,
					1.0,
					1.0,
					0.5
				],
				"baseColorTexture": {
					"index": 0
				},
				"metallicFactor": 1.0,
				"metallicRoughnessTexture": {
					"index": 1
				},
				"roughnessFactor": 1.0
			}
		}
	],
	"meshes": [
		{
			"name": "Mesh",
			"primitives": [
				{
					"attributes": {
						"NORMAL": 1,
						"POSITION": 0,
						"TANGENT": 2,
						"TEXCOORD_0": 3
					},
					"indices": 4,
					"material": 0,
					"mode": 4
				},
				{
					"attributes": {
						"NORMAL": 6,
						"POSITION": 5,
						"TANGENT": 7,
						"TEXCOORD_0": 8
					},
					"indices": 9,
					"material": 1,
					"mode": 4
				}
			]
		},
		{
			"name": "Mesh.001",
			"primitives": [
				{
					"attributes": {
						"NORMAL": 11,
						"POSITION": 10,
						"TANGENT": 12,
						"TEXCOORD_0": 13
					},
					"indices": 14,
					"material": 2,
					"mode": 4
				}
			]
		},
		{
			"name": "Mesh.002",
			"primitives": [
				{
					"attributes": {
						"NORMAL": 16,
						"POSITION": 15,
						"TANGENT": 17,
						"TEXCOORD_0": 18
					},
					"indices": 19,
					"material": 3,
					"mode": 4
				}
			]
		}
	],
	"nodes": [
		{
			"mesh": 0,
			"name": "armacao",
			"rotation": [
				-0.6558742523193359,
				0.0,
				0.0,
				0.7548701763153076
			],
			"scale": [
				-0.003907329868525267,
				-0.0017881500534713268,
				-0.0017881500534713268
			]
		},
		{
			"mesh": 1,
			"name": "lentes",
			"rotation": [
				-0.6558742523193359,
				0.0,
				0.0,
				0.7548701763153076
			],
			"scale": [
				-0.003907329868525267,
				-0.0017881500534713268,
				-0.0017881500534713268
			]
		},
		{
			"mesh": 2,
			"name": "pontes",
			"rotation": [
				-0.6558742523193359,
				0.0,
				0.0,
				0.7548701763153076
			],
			"scale": [
				-0.003907329868525267,
				-0.0017881500534713268,
				-0.0017881500534713268
			]
		}
	],
	"scene": 0,
	"scenes": [
		{
			"name": "Scene",
			"nodes": [
				0,
				1,
				2
			]
		}
	],
	"textures": [
		{
			"source": 0
		},
		{
			"source": 1
		}
	]
}