{
	"accessors": [
		{
			"bufferView": 0,
			"byteOffset": 0,
			"componentType": 5126,
			"count": 11824,
			"max": [
				39.37730407714844,
				29.910816192626953,
				4.196486473083496
			],
			"min": [
				-39.37730407714844,
				-29.654367446899414,
				-22.069316864013672
			],
			"type": "VEC3"
		},
		{
			"bufferView": 1,
			"byteOffset": 0,
			"componentType": 5126,
			"count": 11824,
			"type": "VEC3"
		},
		{
			"bufferView": 2,
			"byteOffset": 0,
			"componentType": 5126,
			"count": 11824,
			"type": "VEC4"
		},
		{
			"bufferView": 3,
			"byteOffset": 0,
			"componentType": 5126,
			"count": 11824,
			"type": "VEC2"
		},
		{
			"bufferView": 4,
			"byteOffset": 0,
			"componentType": 5123,
			"count": 62352,
			"type": "SCALAR"
		},
		{
			"bufferView": 5,
			"byteOffset": 0,
			"componentType": 5126,
			"count": 3172,
			"max": [
				31.08867645263672,
				29.52310562133789,
				3.8565750122070313
			],
			"min": [
				-36.62228012084961,
				17.368295669555664,
				-21.817100524902344
			],
			"type": "VEC3"
		},
		{
			"bufferView": 6,
			"byteOffset": 0,
			"componentType": 5126,
			"count": 3172,
			"type": "VEC3"
		},
		{
			"bufferView": 7,
			"byteOffset": 0,
			"componentType": 5126,
			"count": 3172,
			"type": "VEC4"
		},
		{
			"bufferView": 8,
			"byteOffset": 0,
			"componentType": 5126,
			"count": 3172,
			"type": "VEC2"
		},
		{
			"bufferView": 9,
			"byteOffset": 0,
			"componentType": 5123,
			"count": 18144,
			"type": "SCALAR"
		},
		{
			"bufferView": 10,
			"byteOffset": 0,
			"componentType": 5126,
			"count": 852,
			"max": [
				5.3152923583984375,
				25.88995361328125,
				-4.476705074310303
			],
			"min": [
				-10.841192245483398,
				20.714969635009766,
				-10.919379234313965
			],
			"type": "VEC3"
		},
		{
			"bufferView": 11,
			"byteOffset": 0,
			"componentType": 5126,
			"count": 852,
			"type": "VEC3"
		},
		{
			"bufferView": 12,
			"byteOffset": 0,
			"componentType": 5126,
			"count": 852,
			"type": "VEC4"
		},
		{
			"bufferView": 13,
			"byteOffset": 0,
			"componentType": 5126,
			"count": 852,
			"type": "VEC2"
		},
		{
			"bufferView": 14,
			"byteOffset": 0,
			"componentType": 5123,
			"count": 4512,
			"type": "SCALAR"
		}
	],
	"asset": {
		"generator": "Gestaltor 2020.2.1 Alpha 'Zuckerwatte' (CI-38fb8ee1*)",
		"version": "2.0"
	},
	"bufferViews": [
		{
			"buffer": 0,
			"byteLength": 141888,
			"byteOffset": 0
		},
		{
			"buffer": 0,
			"byteLength": 141888,
			"byteOffset": 141888
		},
		{
			"buffer": 0,
			"byteLength": 189184,
			"byteOffset": 283776
		},
		{
			"buffer": 0,
			"byteLength": 94592,
			"byteOffset": 472960
		},
		{
			"buffer": 0,
			"byteLength": 124704,
			"byteOffset": 567552
		},
		{
			"buffer": 0,
			"byteLength": 38064,
			"byteOffset": 692256
		},
		{
			"buffer": 0,
			"byteLength": 38064,
			"byteOffset": 730320
		},
		{
			"buffer": 0,
			"byteLength": 50752,
			"byteOffset": 768384
		},
		{
			"buffer": 0,
			"byteLength": 25376,
			"byteOffset": 819136
		},
		{
			"buffer": 0,
			"byteLength": 36288,
			"byteOffset": 844512
		},
		{
			"buffer": 0,
			"byteLength": 10224,
			"byteOffset": 880800
		},
		{
			"buffer": 0,
			"byteLength": 10224,
			"byteOffset": 891024
		},
		{
			"buffer": 0,
			"byteLength": 13632,
			"byteOffset": 901248
		},
		{
			"buffer": 0,
			"byteLength": 6816,
			"byteOffset": 914880
		},
		{
			"buffer": 0,
			"byteLength": 9024,
			"byteOffset": 921696
		}
	],
	"buffers": [
		{
			"byteLength": 930720,
			"uri": "Aviator.bin"
		}
	],
	"images": [
		{
			"mimeType": "image/jpeg",
			"name": "Aviator_diffuse",
			"uri": "Aviator_diffuse.jpg"
		},
		{
			"mimeType": "image/png",
			"name": "Aviator_orm",
			"uri": "Aviator_orm.png"
		}
	],
	"materials": [
		{
			"doubleSided": true,
			"emissiveFactor": [
				0.0,
				0.0,
				0.0
			],
			"name": "armação mat",
			"occlusionTexture": {
				"index": 1,
				"strength": 1.0
			},
			"pbrMetallicRoughness": {
				"baseColorTexture": {
					"index": 0,
					"texCoord": 0
				},
				"metallicRoughnessTexture": {
					"index": 1,
					"texCoord": 0
				}
			}
		},
		{
			"alphaMode": "BLEND",
			"doubleSided": true,
			"emissiveFactor": [
				0.0,
				0.0,
				0.0
			],
			"name": "lentes mat",
			"pbrMetallicRoughness": {
				"baseColorFactor": [
					1.0,
					1.0,
					1.0,
					0.9599999785423279
				],
				"baseColorTexture": {
					"index": 0
				},
				"metallicFactor": 1.0,
				"metallicRoughnessTexture": {
					"index": 1
				},
				"roughnessFactor": 1.0
			}
		},
		{
			"alphaMode": "BLEND",
			"doubleSided": true,
			"emissiveFactor": [
				0.0,
				0.0,
				0.0
			],
			"name": "ponte mat",
			"occlusionTexture": {
				"index": 1,
				"strength": 1.0
			},
			"pbrMetallicRoughness": {
				"baseColorFactor": [
					1.0,
					1.0,
					1.0,
					0.5
				],
				"baseColorTexture": {
					"index": 0
				},
				"metallicFactor": 1.0,
				"metallicRoughnessTexture": {
					"index": 1
				},
				"roughnessFactor": 1.0
			}
		}
	],
	"meshes": [
		{
			"name": "Mesh",
			"primitives": [
				{
					"attributes": {
						"NORMAL": 1,
						"POSITION": 0,
						"TANGENT": 2,
						"TEXCOORD_0": 3
					},
					"indices": 4,
					"material": 0,
					"mode": 4
				}
			]
		},
		{
			"name": "Mesh.001",
			"primitives": [
				{
					"attributes": {
						"NORMAL": 6,
						"POSITION": 5,
						"TANGENT": 7,
						"TEXCOORD_0": 8
					},
					"indices": 9,
					"material": 1,
					"mode": 4
				}
			]
		},
		{
			"name": "Mesh.002",
			"primitives": [
				{
					"attributes": {
						"NORMAL": 11,
						"POSITION": 10,
						"TANGENT": 12,
						"TEXCOORD_0": 13
					},
					"indices": 14,
					"material": 2,
					"mode": 4
				}
			]
		}
	],
	"nodes": [
		{
			"mesh": 0,
			"name": "armacao",
			"rotation": [
				0.7006142735481262,
				0.04498489573597908,
				-0.04434408247470856,
				0.7107387781143188
			],
			"scale": [
				0.0020941300317645073,
				0.0020941300317645073,
				0.0020941300317645073
			]
		},
		{
			"mesh": 1,
			"name": "lentes",
			"rotation": [
				0.7006142735481262,
				0.04498489573597908,
				-0.04434408247470856,
				0.7107387781143188
			],
			"scale": [
				0.0020941300317645073,
				0.0020941300317645073,
				0.0020941300317645073
			]
		},
		{
			"mesh": 2,
			"name": "Pontes",
			"rotation": [
				0.7006142735481262,
				0.04498489573597908,
				-0.04434408247470856,
				0.7107387781143188
			],
			"scale": [
				0.0020941300317645073,
				0.0020941300317645073,
				0.0020941300317645073
			]
		}
	],
	"scene": 0,
	"scenes": [
		{
			"name": "Scene",
			"nodes": [
				0,
				1,
				2
			]
		}
	],
	"textures": [
		{
			"source": 0
		},
		{
			"source": 1
		}
	]
}