{
	"accessors": [
		{
			"bufferView": 0,
			"byteOffset": 0,
			"componentType": 5126,
			"count": 16156,
			"max": [
				23.100875854492188,
				5.994776725769043,
				1.3246288299560547
			],
			"min": [
				-23.20648193359375,
				-7.023249626159668,
				-15.017385482788086
			],
			"type": "VEC3"
		},
		{
			"bufferView": 1,
			"byteOffset": 0,
			"componentType": 5126,
			"count": 16156,
			"type": "VEC3"
		},
		{
			"bufferView": 2,
			"byteOffset": 0,
			"componentType": 5126,
			"count": 16156,
			"type": "VEC4"
		},
		{
			"bufferView": 3,
			"byteOffset": 0,
			"componentType": 5126,
			"count": 16156,
			"type": "VEC2"
		},
		{
			"bufferView": 4,
			"byteOffset": 0,
			"componentType": 5123,
			"count": 86760,
			"type": "SCALAR"
		},
		{
			"bufferView": 5,
			"byteOffset": 0,
			"componentType": 5126,
			"count": 704,
			"max": [
				21.435718536376953,
				5.880916595458984,
				1.142033576965332
			],
			"min": [
				-20.1705265045166,
				4.071976184844971,
				-14.82373046875
			],
			"type": "VEC3"
		},
		{
			"bufferView": 6,
			"byteOffset": 0,
			"componentType": 5126,
			"count": 704,
			"type": "VEC3"
		},
		{
			"bufferView": 7,
			"byteOffset": 0,
			"componentType": 5126,
			"count": 704,
			"type": "VEC2"
		},
		{
			"bufferView": 8,
			"byteOffset": 0,
			"componentType": 5123,
			"count": 3816,
			"type": "SCALAR"
		},
		{
			"bufferView": 9,
			"byteOffset": 0,
			"componentType": 5126,
			"count": 3584,
			"max": [
				5.0630083084106445,
				4.622201919555664,
				-3.802701473236084
			],
			"min": [
				-4.009145736694336,
				3.259704351425171,
				-7.472656726837158
			],
			"type": "VEC3"
		},
		{
			"bufferView": 10,
			"byteOffset": 0,
			"componentType": 5126,
			"count": 3584,
			"type": "VEC3"
		},
		{
			"bufferView": 11,
			"byteOffset": 0,
			"componentType": 5126,
			"count": 3584,
			"type": "VEC4"
		},
		{
			"bufferView": 12,
			"byteOffset": 0,
			"componentType": 5126,
			"count": 3584,
			"type": "VEC2"
		},
		{
			"bufferView": 13,
			"byteOffset": 0,
			"componentType": 5123,
			"count": 5376,
			"type": "SCALAR"
		}
	],
	"asset": {
		"generator": "Gestaltor 2020.2.1 Alpha 'Zuckerwatte' (CI-38fb8ee1*)",
		"version": "2.0"
	},
	"bufferViews": [
		{
			"buffer": 0,
			"byteLength": 193872,
			"byteOffset": 0
		},
		{
			"buffer": 0,
			"byteLength": 193872,
			"byteOffset": 193872
		},
		{
			"buffer": 0,
			"byteLength": 258496,
			"byteOffset": 387744
		},
		{
			"buffer": 0,
			"byteLength": 129248,
			"byteOffset": 646240
		},
		{
			"buffer": 0,
			"byteLength": 173520,
			"byteOffset": 775488
		},
		{
			"buffer": 0,
			"byteLength": 8448,
			"byteOffset": 949008
		},
		{
			"buffer": 0,
			"byteLength": 8448,
			"byteOffset": 957456
		},
		{
			"buffer": 0,
			"byteLength": 5632,
			"byteOffset": 965904
		},
		{
			"buffer": 0,
			"byteLength": 7632,
			"byteOffset": 971536
		},
		{
			"buffer": 0,
			"byteLength": 43008,
			"byteOffset": 979168
		},
		{
			"buffer": 0,
			"byteLength": 43008,
			"byteOffset": 1022176
		},
		{
			"buffer": 0,
			"byteLength": 57344,
			"byteOffset": 1065184
		},
		{
			"buffer": 0,
			"byteLength": 28672,
			"byteOffset": 1122528
		},
		{
			"buffer": 0,
			"byteLength": 10752,
			"byteOffset": 1151200
		}
	],
	"buffers": [
		{
			"byteLength": 1161952,
			"uri": "Round.bin"
		}
	],
	"images": [
		{
			"mimeType": "image/jpeg",
			"name": "Round_diffuse",
			"uri": "Round_diffuse.jpg"
		},
		{
			"mimeType": "image/png",
			"name": "Round_orm",
			"uri": "Round_orm.png"
		}
	],
	"materials": [
		{
			"doubleSided": true,
			"emissiveFactor": [
				0.0,
				0.0,
				0.0
			],
			"name": "armacao\t",
			"occlusionTexture": {
				"index": 1,
				"strength": 1.0
			},
			"pbrMetallicRoughness": {
				"baseColorTexture": {
					"index": 0,
					"texCoord": 0
				},
				"metallicRoughnessTexture": {
					"index": 1,
					"texCoord": 0
				}
			}
		},
		{
			"alphaMode": "BLEND",
			"doubleSided": false,
			"emissiveFactor": [
				0.0,
				0.0,
				0.0
			],
			"name": "lentes",
			"pbrMetallicRoughness": {
				"baseColorFactor": [
					0.4117647111415863,
					0.5843137502670288,
					0.2980392277240753,
					0.9599999785423279
				],
				"baseColorTexture": {
					"index": 0
				},
				"metallicFactor": 1.0,
				"metallicRoughnessTexture": {
					"index": 1
				},
				"roughnessFactor": 1.0
			}
		},
		{
			"alphaMode": "BLEND",
			"doubleSided": true,
			"emissiveFactor": [
				0.0,
				0.0,
				0.0
			],
			"name": "Material #32",
			"pbrMetallicRoughness": {
				"baseColorFactor": [
					0.6235294342041016,
					0.6235294342041016,
					0.6235294342041016,
					0.5
				],
				"baseColorTexture": {
					"index": 0
				},
				"metallicFactor": 1.0,
				"metallicRoughnessTexture": {
					"index": 1
				},
				"roughnessFactor": 1.0
			}
		}
	],
	"meshes": [
		{
			"name": "Mesh",
			"primitives": [
				{
					"attributes": {
						"NORMAL": 1,
						"POSITION": 0,
						"TANGENT": 2,
						"TEXCOORD_0": 3
					},
					"indices": 4,
					"material": 0,
					"mode": 4
				}
			]
		},
		{
			"name": "Mesh.001",
			"primitives": [
				{
					"attributes": {
						"NORMAL": 6,
						"POSITION": 5,
						"TEXCOORD_0": 7
					},
					"indices": 8,
					"material": 1,
					"mode": 4
				}
			]
		},
		{
			"name": "Mesh.002",
			"primitives": [
				{
					"attributes": {
						"NORMAL": 10,
						"POSITION": 9,
						"TANGENT": 11,
						"TEXCOORD_0": 12
					},
					"indices": 13,
					"material": 2,
					"mode": 4
				}
			]
		}
	],
	"nodes": [
		{
			"mesh": 0,
			"name": "armacao",
			"rotation": [
				0.7542172074317932,
				-0.020804716274142265,
				0.018096674233675003,
				0.6560457944869995
			],
			"scale": [
				0.0034113721922039986,
				0.006344411987811327,
				0.003411372657865286
			]
		},
		{
			"mesh": 1,
			"name": "Lentes",
			"rotation": [
				0.7542172074317932,
				-0.020804697647690773,
				0.018096694722771645,
				0.6560457944869995
			],
			"scale": [
				0.0034113721922039986,
				0.006344411987811327,
				0.003411372657865286
			]
		},
		{
			"mesh": 2,
			"name": "Pontes",
			"rotation": [
				0.7542172074317932,
				-0.020804697647690773,
				0.018096694722771645,
				0.6560457944869995
			],
			"scale": [
				0.0034113721922039986,
				0.006344411987811327,
				0.003411372657865286
			]
		}
	],
	"scene": 0,
	"scenes": [
		{
			"name": "Scene",
			"nodes": [
				0,
				1,
				2
			]
		}
	],
	"textures": [
		{
			"source": 0
		},
		{
			"source": 1
		}
	]
}