{
	"accessors": [
		{
			"bufferView": 0,
			"byteOffset": 0,
			"componentType": 5126,
			"count": 37732,
			"max": [
				2.736722230911255,
				1.8829474449157715,
				-0.0792696475982666
			],
			"min": [
				-2.7367217540740967,
				-2.1424198150634766,
				-1.9765028953552246
			],
			"type": "VEC3"
		},
		{
			"bufferView": 1,
			"byteOffset": 0,
			"componentType": 5126,
			"count": 37732,
			"type": "VEC3"
		},
		{
			"bufferView": 2,
			"byteOffset": 0,
			"componentType": 5126,
			"count": 37732,
			"type": "VEC2"
		},
		{
			"bufferView": 3,
			"byteOffset": 0,
			"componentType": 5123,
			"count": 94692,
			"type": "SCALAR"
		},
		{
			"bufferView": 4,
			"byteOffset": 0,
			"componentType": 5126,
			"count": 4240,
			"max": [
				2.342925548553467,
				1.7918609380722046,
				-0.13963747024536133
			],
			"min": [
				-2.342923641204834,
				1.4789646863937378,
				-1.8993752002716064
			],
			"type": "VEC3"
		},
		{
			"bufferView": 5,
			"byteOffset": 0,
			"componentType": 5126,
			"count": 4240,
			"type": "VEC3"
		},
		{
			"bufferView": 6,
			"byteOffset": 0,
			"componentType": 5126,
			"count": 4240,
			"type": "VEC2"
		},
		{
			"bufferView": 7,
			"byteOffset": 0,
			"componentType": 5123,
			"count": 22944,
			"type": "SCALAR"
		}
	],
	"asset": {
		"generator": "Gestaltor 2020.2.0 Alpha 'Schokoei' (CI-cce52488*)",
		"version": "2.0"
	},
	"bufferViews": [
		{
			"buffer": 0,
			"byteLength": 452784,
			"byteOffset": 0
		},
		{
			"buffer": 0,
			"byteLength": 452784,
			"byteOffset": 452784
		},
		{
			"buffer": 0,
			"byteLength": 301856,
			"byteOffset": 905568
		},
		{
			"buffer": 0,
			"byteLength": 189384,
			"byteOffset": 1207424
		},
		{
			"buffer": 0,
			"byteLength": 50880,
			"byteOffset": 1396808
		},
		{
			"buffer": 0,
			"byteLength": 50880,
			"byteOffset": 1447688
		},
		{
			"buffer": 0,
			"byteLength": 33920,
			"byteOffset": 1498568
		},
		{
			"buffer": 0,
			"byteLength": 45888,
			"byteOffset": 1532488
		}
	],
	"buffers": [
		{
			"byteLength": 1578376,
			"uri": "Ennio_app.bin"
		}
	],
	"images": [
		{
			"mimeType": "image/png",
			"name": "armacao_diffuse",
			"uri": "Ennio_app_image_0.png"
		},
		{
			"mimeType": "image/png",
			"name": "armacao_complete",
			"uri": "Ennio_app_image_1.png"
		}
	],
	"materials": [
		{
			"doubleSided": true,
			"emissiveFactor": [
				0.0,
				0.0,
				0.0
			],
			"name": "Armacao mat",
			"occlusionTexture": {
				"index": 1,
				"strength": 1.0,
				"texCoord": 0
			},
			"pbrMetallicRoughness": {
				"baseColorTexture": {
					"index": 0,
					"texCoord": 0
				},
				"metallicFactor": 0.0,
				"roughnessFactor": 0.6
			}
		},
		{
			"alphaMode": "BLEND",
			"doubleSided": true,
			"emissiveFactor": [
				0.0,
				0.0,
				0.0
			],
			"name": "Lentes mat",
			"occlusionTexture": {
				"index": 1,
				"strength": 1.0,
				"texCoord": 0
			},
			"pbrMetallicRoughness": {
				"baseColorTexture": {
					"index": 0,
					"texCoord": 0
				},
				"metallicFactor": 0.0,
				"roughnessFactor": 0.1
			}
		}
	],
	"meshes": [
		{
			"name": "Mesh",
			"primitives": [
				{
					"attributes": {
						"NORMAL": 1,
						"POSITION": 0,
						"TEXCOORD_0": 2
					},
					"indices": 3,
					"material": 0,
					"mode": 4
				}
			]
		},
		{
			"name": "Mesh.001",
			"primitives": [
				{
					"attributes": {
						"NORMAL": 5,
						"POSITION": 4,
						"TEXCOORD_0": 6
					},
					"indices": 7,
					"material": 1,
					"mode": 4
				}
			]
		}
	],
	"nodes": [
		{
			"mesh": 0,
			"name": "armacao",
			"rotation": [
				0.7550905346870422,
				0.0,
				0.0,
				0.6556205749511719
			],
			"scale": [
				0.029462680220603943,
				0.029462682083249092,
				0.029462682083249092
			]
		},
		{
			"mesh": 1,
			"name": "Lentes",
			"rotation": [
				0.7550905346870422,
				0.0,
				0.0,
				0.6556205749511719
			],
			"scale": [
				0.029462680220603943,
				0.029462682083249092,
				0.029462682083249092
			]
		}
	],
	"scene": 0,
	"scenes": [
		{
			"name": "Scene",
			"nodes": [
				0,
				1
			]
		}
	],
	"textures": [
		{
			"source": 0
		},
		{
			"source": 1
		}
	]
}