{
	"accessors": [
		{
			"bufferView": 0,
			"byteOffset": 0,
			"componentType": 5126,
			"count": 39546,
			"max": [
				72.387939453125,
				50.29042053222656,
				-6.6273956298828125
			],
			"min": [
				-72.387939453125,
				-56.142982482910156,
				-49.00563430786133
			],
			"type": "VEC3"
		},
		{
			"bufferView": 1,
			"byteOffset": 0,
			"componentType": 5126,
			"count": 39546,
			"type": "VEC3"
		},
		{
			"bufferView": 2,
			"byteOffset": 0,
			"componentType": 5126,
			"count": 39546,
			"type": "VEC2"
		},
		{
			"bufferView": 3,
			"byteOffset": 0,
			"componentType": 5123,
			"count": 117456,
			"type": "SCALAR"
		},
		{
			"bufferView": 4,
			"byteOffset": 0,
			"componentType": 5126,
			"count": 4580,
			"max": [
				64.25541687011719,
				47.934322357177734,
				-7.9845428466796875
			],
			"min": [
				-64.25541687011719,
				40.735694885253906,
				-47.218170166015625
			],
			"type": "VEC3"
		},
		{
			"bufferView": 5,
			"byteOffset": 0,
			"componentType": 5126,
			"count": 4580,
			"type": "VEC3"
		},
		{
			"bufferView": 6,
			"byteOffset": 0,
			"componentType": 5126,
			"count": 4580,
			"type": "VEC4"
		},
		{
			"bufferView": 7,
			"byteOffset": 0,
			"componentType": 5126,
			"count": 4580,
			"type": "VEC2"
		},
		{
			"bufferView": 8,
			"byteOffset": 0,
			"componentType": 5123,
			"count": 26496,
			"type": "SCALAR"
		}
	],
	"asset": {
		"generator": "Gestaltor 2020.2.1 Alpha 'Zuckerwatte' (CI-38fb8ee1*)",
		"version": "2.0"
	},
	"bufferViews": [
		{
			"buffer": 0,
			"byteLength": 474552,
			"byteOffset": 0
		},
		{
			"buffer": 0,
			"byteLength": 474552,
			"byteOffset": 474552
		},
		{
			"buffer": 0,
			"byteLength": 316368,
			"byteOffset": 949104
		},
		{
			"buffer": 0,
			"byteLength": 234912,
			"byteOffset": 1265472
		},
		{
			"buffer": 0,
			"byteLength": 54960,
			"byteOffset": 1500384
		},
		{
			"buffer": 0,
			"byteLength": 54960,
			"byteOffset": 1555344
		},
		{
			"buffer": 0,
			"byteLength": 73280,
			"byteOffset": 1610304
		},
		{
			"buffer": 0,
			"byteLength": 36640,
			"byteOffset": 1683584
		},
		{
			"buffer": 0,
			"byteLength": 52992,
			"byteOffset": 1720224
		}
	],
	"buffers": [
		{
			"byteLength": 1773216,
			"uri": "RB5228.bin"
		}
	],
	"images": [
		{
			"mimeType": "image/jpeg",
			"name": "RB5228_diffuse",
			"uri": "RB5228_diffuse.jpg"
		},
		{
			"mimeType": "image/png",
			"name": "RB5228_ORM",
			"uri": "RB5228_ORM.png"
		}
	],
	"materials": [
		{
			"doubleSided": true,
			"emissiveFactor": [
				0.0,
				0.0,
				0.0
			],
			"name": "armacao mat",
			"occlusionTexture": {
				"index": 1,
				"strength": 1.0
			},
			"pbrMetallicRoughness": {
				"baseColorTexture": {
					"index": 0,
					"texCoord": 0
				},
				"metallicRoughnessTexture": {
					"index": 1,
					"texCoord": 0
				}
			}
		},
		{
			"alphaMode": "BLEND",
			"doubleSided": true,
			"emissiveFactor": [
				0.0,
				0.0,
				0.0
			],
			"name": "Lentes mat",
			"pbrMetallicRoughness": {
				"baseColorFactor": [
					1.0,
					1.0,
					1.0,
					0.05000000074505806
				],
				"baseColorTexture": {
					"index": 0
				},
				"metallicFactor": 1.0,
				"metallicRoughnessTexture": {
					"index": 1
				},
				"roughnessFactor": 1.0
			}
		}
	],
	"meshes": [
		{
			"name": "Mesh",
			"primitives": [
				{
					"attributes": {
						"NORMAL": 1,
						"POSITION": 0,
						"TEXCOORD_0": 2
					},
					"indices": 3,
					"material": 0,
					"mode": 4
				}
			]
		},
		{
			"name": "Mesh.001",
			"primitives": [
				{
					"attributes": {
						"NORMAL": 5,
						"POSITION": 4,
						"TANGENT": 6,
						"TEXCOORD_0": 7
					},
					"indices": 8,
					"material": 1,
					"mode": 4
				}
			]
		}
	],
	"nodes": [
		{
			"mesh": 0,
			"name": "armação",
			"rotation": [
				-0.661016047000885,
				0.0,
				0.0,
				0.7503717541694641
			],
			"scale": [
				-0.0011169599601998925,
				-0.0011169599601998925,
				-0.0011169599601998925
			]
		},
		{
			"mesh": 1,
			"name": "lentes",
			"rotation": [
				-0.661016047000885,
				0.0,
				0.0,
				0.7503717541694641
			],
			"scale": [
				-0.0011169599601998925,
				-0.0011169599601998925,
				-0.0011169599601998925
			]
		}
	],
	"scene": 0,
	"scenes": [
		{
			"name": "Scene",
			"nodes": [
				0,
				1
			]
		}
	],
	"textures": [
		{
			"source": 0
		},
		{
			"source": 1
		}
	]
}