{
	"accessors": [
		{
			"bufferView": 0,
			"byteOffset": 0,
			"componentType": 5126,
			"count": 13908,
			"max": [
				39.92425537109375,
				31.127880096435547,
				5.5153045654296875
			],
			"min": [
				-39.924461364746094,
				-30.891952514648438,
				-22.289859771728516
			],
			"type": "VEC3"
		},
		{
			"bufferView": 1,
			"byteOffset": 0,
			"componentType": 5126,
			"count": 13908,
			"type": "VEC3"
		},
		{
			"bufferView": 2,
			"byteOffset": 0,
			"componentType": 5126,
			"count": 13908,
			"type": "VEC4"
		},
		{
			"bufferView": 3,
			"byteOffset": 0,
			"componentType": 5126,
			"count": 13908,
			"type": "VEC2"
		},
		{
			"bufferView": 4,
			"byteOffset": 0,
			"componentType": 5123,
			"count": 72840,
			"type": "SCALAR"
		},
		{
			"bufferView": 5,
			"byteOffset": 0,
			"componentType": 5126,
			"count": 12480,
			"max": [
				30.69415283203125,
				31.127872467041016,
				5.498297691345215
			],
			"min": [
				-37.5777587890625,
				18.862998962402344,
				-20.63735580444336
			],
			"type": "VEC3"
		},
		{
			"bufferView": 6,
			"byteOffset": 0,
			"componentType": 5126,
			"count": 12480,
			"type": "VEC3"
		},
		{
			"bufferView": 7,
			"byteOffset": 0,
			"componentType": 5126,
			"count": 12480,
			"type": "VEC4"
		},
		{
			"bufferView": 8,
			"byteOffset": 0,
			"componentType": 5126,
			"count": 12480,
			"type": "VEC2"
		},
		{
			"bufferView": 9,
			"byteOffset": 0,
			"componentType": 5123,
			"count": 72372,
			"type": "SCALAR"
		},
		{
			"bufferView": 10,
			"byteOffset": 0,
			"componentType": 5126,
			"count": 852,
			"max": [
				4.726306915283203,
				26.746383666992188,
				-3.1578803062438965
			],
			"min": [
				-11.430177688598633,
				21.57140350341797,
				-9.600555419921875
			],
			"type": "VEC3"
		},
		{
			"bufferView": 11,
			"byteOffset": 0,
			"componentType": 5126,
			"count": 852,
			"type": "VEC3"
		},
		{
			"bufferView": 12,
			"byteOffset": 0,
			"componentType": 5126,
			"count": 852,
			"type": "VEC4"
		},
		{
			"bufferView": 13,
			"byteOffset": 0,
			"componentType": 5126,
			"count": 852,
			"type": "VEC2"
		},
		{
			"bufferView": 14,
			"byteOffset": 0,
			"componentType": 5123,
			"count": 4512,
			"type": "SCALAR"
		}
	],
	"asset": {
		"generator": "Gestaltor 2020.2.1 Alpha 'Zuckerwatte' (CI-38fb8ee1*)",
		"version": "2.0"
	},
	"bufferViews": [
		{
			"buffer": 0,
			"byteLength": 166896,
			"byteOffset": 0
		},
		{
			"buffer": 0,
			"byteLength": 166896,
			"byteOffset": 166896
		},
		{
			"buffer": 0,
			"byteLength": 222528,
			"byteOffset": 333792
		},
		{
			"buffer": 0,
			"byteLength": 111264,
			"byteOffset": 556320
		},
		{
			"buffer": 0,
			"byteLength": 145680,
			"byteOffset": 667584
		},
		{
			"buffer": 0,
			"byteLength": 149760,
			"byteOffset": 813264
		},
		{
			"buffer": 0,
			"byteLength": 149760,
			"byteOffset": 963024
		},
		{
			"buffer": 0,
			"byteLength": 199680,
			"byteOffset": 1112784
		},
		{
			"buffer": 0,
			"byteLength": 99840,
			"byteOffset": 1312464
		},
		{
			"buffer": 0,
			"byteLength": 144744,
			"byteOffset": 1412304
		},
		{
			"buffer": 0,
			"byteLength": 10224,
			"byteOffset": 1557048
		},
		{
			"buffer": 0,
			"byteLength": 10224,
			"byteOffset": 1567272
		},
		{
			"buffer": 0,
			"byteLength": 13632,
			"byteOffset": 1577496
		},
		{
			"buffer": 0,
			"byteLength": 6816,
			"byteOffset": 1591128
		},
		{
			"buffer": 0,
			"byteLength": 9024,
			"byteOffset": 1597944
		}
	],
	"buffers": [
		{
			"byteLength": 1606968,
			"uri": "Blaze.bin"
		}
	],
	"images": [
		{
			"mimeType": "image/jpeg",
			"name": "Blaze_diffuse",
			"uri": "Blaze_diffuse.jpg"
		},
		{
			"mimeType": "image/png",
			"name": "Blaze_orm",
			"uri": "Blaze_orm.png"
		}
	],
	"materials": [
		{
			"doubleSided": true,
			"emissiveFactor": [
				0.0,
				0.0,
				0.0
			],
			"name": "armacao\t",
			"occlusionTexture": {
				"index": 1,
				"strength": 1.0
			},
			"pbrMetallicRoughness": {
				"baseColorTexture": {
					"index": 0,
					"texCoord": 0
				},
				"metallicRoughnessTexture": {
					"index": 1,
					"texCoord": 0
				}
			}
		},
		{
			"alphaMode": "BLEND",
			"doubleSided": false,
			"emissiveFactor": [
				0.0,
				0.0,
				0.0
			],
			"name": "lentes",
			"pbrMetallicRoughness": {
				"baseColorFactor": [
					1.0,
					1.0,
					1.0,
					0.9599999785423279
				],
				"baseColorTexture": {
					"index": 0
				},
				"metallicFactor": 1.0,
				"metallicRoughnessTexture": {
					"index": 1
				},
				"roughnessFactor": 1.0
			}
		},
		{
			"alphaMode": "BLEND",
			"doubleSided": true,
			"emissiveFactor": [
				0.0,
				0.0,
				0.0
			],
			"name": "ponte",
			"occlusionTexture": {
				"index": 1,
				"strength": 1.0
			},
			"pbrMetallicRoughness": {
				"baseColorFactor": [
					1.0,
					1.0,
					1.0,
					0.5
				],
				"baseColorTexture": {
					"index": 0
				},
				"metallicFactor": 1.0,
				"metallicRoughnessTexture": {
					"index": 1
				},
				"roughnessFactor": 1.0
			}
		}
	],
	"meshes": [
		{
			"name": "Mesh",
			"primitives": [
				{
					"attributes": {
						"NORMAL": 1,
						"POSITION": 0,
						"TANGENT": 2,
						"TEXCOORD_0": 3
					},
					"indices": 4,
					"material": 0,
					"mode": 4
				}
			]
		},
		{
			"name": "Mesh.001",
			"primitives": [
				{
					"attributes": {
						"NORMAL": 6,
						"POSITION": 5,
						"TANGENT": 7,
						"TEXCOORD_0": 8
					},
					"indices": 9,
					"material": 1,
					"mode": 4
				}
			]
		},
		{
			"name": "Mesh.002",
			"primitives": [
				{
					"attributes": {
						"NORMAL": 11,
						"POSITION": 10,
						"TANGENT": 12,
						"TEXCOORD_0": 13
					},
					"indices": 14,
					"material": 2,
					"mode": 4
				}
			]
		}
	],
	"nodes": [
		{
			"mesh": 0,
			"name": "armacao",
			"rotation": [
				0.7006148099899292,
				0.04499330744147301,
				-0.04434393718838692,
				0.7107377052307129
			],
			"scale": [
				0.0020614597015082836,
				0.0020614543464034796,
				0.002034115605056286
			]
		},
		{
			"mesh": 1,
			"name": "Lentes",
			"rotation": [
				0.7006148099899292,
				0.04499330744147301,
				-0.04434393718838692,
				0.7107377052307129
			],
			"scale": [
				0.0020614597015082836,
				0.0020614543464034796,
				0.002034115605056286
			]
		},
		{
			"mesh": 2,
			"name": "Pontes",
			"rotation": [
				0.7006148099899292,
				0.04499330744147301,
				-0.04434393718838692,
				0.7107377052307129
			],
			"scale": [
				0.0020614597015082836,
				0.0020614543464034796,
				0.002034115605056286
			]
		}
	],
	"scene": 0,
	"scenes": [
		{
			"name": "Scene",
			"nodes": [
				0,
				1,
				2
			]
		}
	],
	"textures": [
		{
			"source": 0
		},
		{
			"source": 1
		}
	]
}