{
	"accessors": [
		{
			"bufferView": 0,
			"byteOffset": 0,
			"componentType": 5126,
			"count": 27278,
			"max": [
				42.929962158203125,
				32.09789276123047,
				-8.780292510986328
			],
			"min": [
				-45.261322021484375,
				-32.07304382324219,
				-22.215877532958984
			],
			"type": "VEC3"
		},
		{
			"bufferView": 1,
			"byteOffset": 0,
			"componentType": 5126,
			"count": 27278,
			"type": "VEC3"
		},
		{
			"bufferView": 2,
			"byteOffset": 0,
			"componentType": 5126,
			"count": 27278,
			"type": "VEC4"
		},
		{
			"bufferView": 3,
			"byteOffset": 0,
			"componentType": 5126,
			"count": 27278,
			"type": "VEC2"
		},
		{
			"bufferView": 4,
			"byteOffset": 0,
			"componentType": 5123,
			"count": 75192,
			"type": "SCALAR"
		},
		{
			"bufferView": 5,
			"byteOffset": 0,
			"componentType": 5126,
			"count": 10804,
			"max": [
				35.61064910888672,
				34.04671859741211,
				-8.405729293823242
			],
			"min": [
				-42.306270599365234,
				21.682308197021484,
				-24.99570083618164
			],
			"type": "VEC3"
		},
		{
			"bufferView": 6,
			"byteOffset": 0,
			"componentType": 5126,
			"count": 10804,
			"type": "VEC3"
		},
		{
			"bufferView": 7,
			"byteOffset": 0,
			"componentType": 5126,
			"count": 10804,
			"type": "VEC4"
		},
		{
			"bufferView": 8,
			"byteOffset": 0,
			"componentType": 5126,
			"count": 10804,
			"type": "VEC2"
		},
		{
			"bufferView": 9,
			"byteOffset": 0,
			"componentType": 5123,
			"count": 62304,
			"type": "SCALAR"
		},
		{
			"bufferView": 10,
			"byteOffset": 0,
			"componentType": 5126,
			"count": 3844,
			"max": [
				33.74530029296875,
				33.50579833984375,
				3.151782989501953
			],
			"min": [
				-40.106224060058594,
				20.570964813232422,
				-24.79355239868164
			],
			"type": "VEC3"
		},
		{
			"bufferView": 11,
			"byteOffset": 0,
			"componentType": 5126,
			"count": 3844,
			"type": "VEC3"
		},
		{
			"bufferView": 12,
			"byteOffset": 0,
			"componentType": 5126,
			"count": 3844,
			"type": "VEC4"
		},
		{
			"bufferView": 13,
			"byteOffset": 0,
			"componentType": 5126,
			"count": 3844,
			"type": "VEC2"
		},
		{
			"bufferView": 14,
			"byteOffset": 0,
			"componentType": 5123,
			"count": 22272,
			"type": "SCALAR"
		},
		{
			"bufferView": 15,
			"byteOffset": 0,
			"componentType": 5126,
			"count": 3584,
			"max": [
				5.1377716064453125,
				27.852550506591797,
				-4.875019073486328
			],
			"min": [
				-11.224868774414063,
				23.159006118774414,
				-12.707998275756836
			],
			"type": "VEC3"
		},
		{
			"bufferView": 16,
			"byteOffset": 0,
			"componentType": 5126,
			"count": 3584,
			"type": "VEC3"
		},
		{
			"bufferView": 17,
			"byteOffset": 0,
			"componentType": 5126,
			"count": 3584,
			"type": "VEC4"
		},
		{
			"bufferView": 18,
			"byteOffset": 0,
			"componentType": 5126,
			"count": 3584,
			"type": "VEC2"
		},
		{
			"bufferView": 19,
			"byteOffset": 0,
			"componentType": 5123,
			"count": 5376,
			"type": "SCALAR"
		}
	],
	"asset": {
		"generator": "Gestaltor 2020.2.1 Alpha 'Zuckerwatte' (CI-38fb8ee1*)",
		"version": "2.0"
	},
	"bufferViews": [
		{
			"buffer": 0,
			"byteLength": 327336,
			"byteOffset": 0
		},
		{
			"buffer": 0,
			"byteLength": 327336,
			"byteOffset": 327336
		},
		{
			"buffer": 0,
			"byteLength": 436448,
			"byteOffset": 654672
		},
		{
			"buffer": 0,
			"byteLength": 218224,
			"byteOffset": 1091120
		},
		{
			"buffer": 0,
			"byteLength": 150384,
			"byteOffset": 1309344
		},
		{
			"buffer": 0,
			"byteLength": 129648,
			"byteOffset": 1459728
		},
		{
			"buffer": 0,
			"byteLength": 129648,
			"byteOffset": 1589376
		},
		{
			"buffer": 0,
			"byteLength": 172864,
			"byteOffset": 1719024
		},
		{
			"buffer": 0,
			"byteLength": 86432,
			"byteOffset": 1891888
		},
		{
			"buffer": 0,
			"byteLength": 124608,
			"byteOffset": 1978320
		},
		{
			"buffer": 0,
			"byteLength": 46128,
			"byteOffset": 2102928
		},
		{
			"buffer": 0,
			"byteLength": 46128,
			"byteOffset": 2149056
		},
		{
			"buffer": 0,
			"byteLength": 61504,
			"byteOffset": 2195184
		},
		{
			"buffer": 0,
			"byteLength": 30752,
			"byteOffset": 2256688
		},
		{
			"buffer": 0,
			"byteLength": 44544,
			"byteOffset": 2287440
		},
		{
			"buffer": 0,
			"byteLength": 43008,
			"byteOffset": 2331984
		},
		{
			"buffer": 0,
			"byteLength": 43008,
			"byteOffset": 2374992
		},
		{
			"buffer": 0,
			"byteLength": 57344,
			"byteOffset": 2418000
		},
		{
			"buffer": 0,
			"byteLength": 28672,
			"byteOffset": 2475344
		},
		{
			"buffer": 0,
			"byteLength": 10752,
			"byteOffset": 2504016
		}
	],
	"buffers": [
		{
			"byteLength": 2514768,
			"uri": "RB3578V.bin"
		}
	],
	"images": [
		{
			"mimeType": "image/jpeg",
			"name": "RB3578V_diffuse",
			"uri": "RB3578V_diffuse.jpg"
		},
		{
			"mimeType": "image/png",
			"name": "RB3578V_ORM",
			"uri": "RB3578V_ORM.png"
		}
	],
	"materials": [
		{
			"doubleSided": true,
			"emissiveFactor": [
				0.0,
				0.0,
				0.0
			],
			"name": "Armacao metal mat",
			"occlusionTexture": {
				"index": 1,
				"strength": 1.0
			},
			"pbrMetallicRoughness": {
				"baseColorTexture": {
					"index": 0,
					"texCoord": 0
				},
				"metallicRoughnessTexture": {
					"index": 1,
					"texCoord": 0
				}
			}
		},
		{
			"doubleSided": true,
			"emissiveFactor": [
				0.0,
				0.0,
				0.0
			],
			"name": "Frente mat\t",
			"occlusionTexture": {
				"index": 1,
				"strength": 1.0
			},
			"pbrMetallicRoughness": {
				"baseColorFactor": [
					0.0117647061124444,
					0.0117647061124444,
					0.0117647061124444,
					1.0
				],
				"baseColorTexture": {
					"index": 0
				},
				"metallicFactor": 1.0,
				"metallicRoughnessTexture": {
					"index": 1
				},
				"roughnessFactor": 1.0
			}
		},
		{
			"alphaMode": "BLEND",
			"doubleSided": true,
			"emissiveFactor": [
				0.0,
				0.0,
				0.0
			],
			"name": "Lentes mat",
			"pbrMetallicRoughness": {
				"baseColorFactor": [
					1.0,
					1.0,
					1.0,
					0.05000000074505806
				],
				"baseColorTexture": {
					"index": 0
				},
				"metallicFactor": 1.0,
				"metallicRoughnessTexture": {
					"index": 1
				},
				"roughnessFactor": 1.0
			}
		},
		{
			"alphaMode": "BLEND",
			"doubleSided": true,
			"emissiveFactor": [
				0.0,
				0.0,
				0.0
			],
			"name": "Ponte mat",
			"pbrMetallicRoughness": {
				"baseColorFactor": [
					0.6627451181411743,
					0.6627451181411743,
					0.6627451181411743,
					0.5
				],
				"baseColorTexture": {
					"index": 0
				},
				"metallicFactor": 1.0,
				"metallicRoughnessTexture": {
					"index": 1
				},
				"roughnessFactor": 1.0
			}
		}
	],
	"meshes": [
		{
			"name": "Mesh",
			"primitives": [
				{
					"attributes": {
						"NORMAL": 1,
						"POSITION": 0,
						"TANGENT": 2,
						"TEXCOORD_0": 3
					},
					"indices": 4,
					"material": 0,
					"mode": 4
				},
				{
					"attributes": {
						"NORMAL": 6,
						"POSITION": 5,
						"TANGENT": 7,
						"TEXCOORD_0": 8
					},
					"indices": 9,
					"material": 1,
					"mode": 4
				}
			]
		},
		{
			"name": "Mesh.001",
			"primitives": [
				{
					"attributes": {
						"NORMAL": 11,
						"POSITION": 10,
						"TANGENT": 12,
						"TEXCOORD_0": 13
					},
					"indices": 14,
					"material": 2,
					"mode": 4
				}
			]
		},
		{
			"name": "Mesh.002",
			"primitives": [
				{
					"attributes": {
						"NORMAL": 16,
						"POSITION": 15,
						"TANGENT": 17,
						"TEXCOORD_0": 18
					},
					"indices": 19,
					"material": 3,
					"mode": 4
				}
			]
		}
	],
	"nodes": [
		{
			"mesh": 0,
			"name": "Armacao metal",
			"rotation": [
				-0.7300384044647217,
				-0.04219580814242363,
				-0.03315768390893936,
				0.6812958121299744
			],
			"scale": [
				-0.0018447068287059665,
				-0.00196703989058733,
				-0.0018426565220579505
			]
		},
		{
			"mesh": 1,
			"name": "Lentes",
			"rotation": [
				-0.7300384044647217,
				-0.04219580814242363,
				-0.03315768390893936,
				0.6812958121299744
			],
			"scale": [
				-0.0018447068287059665,
				-0.00196703989058733,
				-0.0018426565220579505
			]
		},
		{
			"mesh": 2,
			"name": "Ponte",
			"rotation": [
				-0.7300384044647217,
				-0.04219580814242363,
				-0.03315768390893936,
				0.6812958121299744
			],
			"scale": [
				-0.0018447068287059665,
				-0.00196703989058733,
				-0.0018426565220579505
			]
		}
	],
	"scene": 0,
	"scenes": [
		{
			"name": "Scene",
			"nodes": [
				0,
				1,
				2
			]
		}
	],
	"textures": [
		{
			"source": 0
		},
		{
			"source": 1
		}
	]
}