{
	"accessors": [
		{
			"bufferView": 0,
			"byteOffset": 0,
			"componentType": 5126,
			"count": 18287,
			"max": [
				331.2404479980469,
				211.4355010986328,
				-10.769622802734375
			],
			"min": [
				-331.24041748046875,
				-247.09873962402344,
				-238.5546875
			],
			"type": "VEC3"
		},
		{
			"bufferView": 1,
			"byteOffset": 0,
			"componentType": 5126,
			"count": 18287,
			"type": "VEC3"
		},
		{
			"bufferView": 2,
			"byteOffset": 0,
			"componentType": 5126,
			"count": 18287,
			"type": "VEC2"
		},
		{
			"bufferView": 3,
			"byteOffset": 0,
			"componentType": 5123,
			"count": 104004,
			"type": "SCALAR"
		},
		{
			"bufferView": 4,
			"byteOffset": 0,
			"componentType": 5126,
			"count": 3844,
			"max": [
				284.9434509277344,
				207.74644470214844,
				-18.902862548828125
			],
			"min": [
				-284.94342041015625,
				173.3363494873047,
				-229.15782165527344
			],
			"type": "VEC3"
		},
		{
			"bufferView": 5,
			"byteOffset": 0,
			"componentType": 5126,
			"count": 3844,
			"type": "VEC3"
		},
		{
			"bufferView": 6,
			"byteOffset": 0,
			"componentType": 5126,
			"count": 3844,
			"type": "VEC4"
		},
		{
			"bufferView": 7,
			"byteOffset": 0,
			"componentType": 5126,
			"count": 3844,
			"type": "VEC2"
		},
		{
			"bufferView": 8,
			"byteOffset": 0,
			"componentType": 5123,
			"count": 22272,
			"type": "SCALAR"
		}
	],
	"asset": {
		"generator": "Gestaltor 2020.2.1 Alpha 'Zuckerwatte' (CI-38fb8ee1*)",
		"version": "2.0"
	},
	"bufferViews": [
		{
			"buffer": 0,
			"byteLength": 219444,
			"byteOffset": 0
		},
		{
			"buffer": 0,
			"byteLength": 219444,
			"byteOffset": 219444
		},
		{
			"buffer": 0,
			"byteLength": 146296,
			"byteOffset": 438888
		},
		{
			"buffer": 0,
			"byteLength": 208008,
			"byteOffset": 585184
		},
		{
			"buffer": 0,
			"byteLength": 46128,
			"byteOffset": 793192
		},
		{
			"buffer": 0,
			"byteLength": 46128,
			"byteOffset": 839320
		},
		{
			"buffer": 0,
			"byteLength": 61504,
			"byteOffset": 885448
		},
		{
			"buffer": 0,
			"byteLength": 30752,
			"byteOffset": 946952
		},
		{
			"buffer": 0,
			"byteLength": 44544,
			"byteOffset": 977704
		}
	],
	"buffers": [
		{
			"byteLength": 1022248,
			"uri": "RB4305.bin"
		}
	],
	"images": [
		{
			"mimeType": "image/jpeg",
			"name": "RB4305_diffuse",
			"uri": "RB4305_diffuse.jpg"
		},
		{
			"mimeType": "image/png",
			"name": "RB4305_orm",
			"uri": "RB4305_orm.png"
		}
	],
	"materials": [
		{
			"doubleSided": true,
			"emissiveFactor": [
				0.0,
				0.0,
				0.0
			],
			"name": "armacao\t",
			"occlusionTexture": {
				"index": 1,
				"strength": 1.0
			},
			"pbrMetallicRoughness": {
				"baseColorTexture": {
					"index": 0,
					"texCoord": 0
				},
				"metallicRoughnessTexture": {
					"index": 1,
					"texCoord": 0
				}
			}
		},
		{
			"alphaMode": "BLEND",
			"doubleSided": false,
			"emissiveFactor": [
				0.0,
				0.0,
				0.0
			],
			"name": "lentes",
			"pbrMetallicRoughness": {
				"baseColorFactor": [
					1.0,
					1.0,
					1.0,
					0.9599999785423279
				],
				"baseColorTexture": {
					"index": 0
				},
				"metallicFactor": 1.0,
				"metallicRoughnessTexture": {
					"index": 1
				},
				"roughnessFactor": 1.0
			}
		}
	],
	"meshes": [
		{
			"name": "Mesh",
			"primitives": [
				{
					"attributes": {
						"NORMAL": 1,
						"POSITION": 0,
						"TEXCOORD_0": 2
					},
					"indices": 3,
					"material": 0,
					"mode": 4
				}
			]
		},
		{
			"name": "Mesh.001",
			"primitives": [
				{
					"attributes": {
						"NORMAL": 5,
						"POSITION": 4,
						"TANGENT": 6,
						"TEXCOORD_0": 7
					},
					"indices": 8,
					"material": 1,
					"mode": 4
				}
			]
		}
	],
	"nodes": [
		{
			"mesh": 0,
			"name": "armacao",
			"rotation": [
				-0.6551342010498047,
				0.0,
				0.0,
				0.755512535572052
			],
			"scale": [
				-0.0002442199911456555,
				-0.0002442199911456555,
				-0.0002442199911456555
			]
		},
		{
			"mesh": 1,
			"name": "Lentes",
			"rotation": [
				-0.6551342010498047,
				0.0,
				0.0,
				0.755512535572052
			],
			"scale": [
				-0.0002442199911456555,
				-0.0002442199911456555,
				-0.0002442199911456555
			]
		}
	],
	"scene": 0,
	"scenes": [
		{
			"name": "Scene",
			"nodes": [
				0,
				1
			]
		}
	],
	"textures": [
		{
			"source": 0
		},
		{
			"source": 1
		}
	]
}