{
	"accessors": [
		{
			"bufferView": 0,
			"byteOffset": 0,
			"componentType": 5126,
			"count": 20096,
			"max": [
				327.2940673828125,
				211.61428833007813,
				-4.892333984375
			],
			"min": [
				-327.29449462890625,
				-245.96133422851563,
				-228.80209350585938
			],
			"type": "VEC3"
		},
		{
			"bufferView": 1,
			"byteOffset": 0,
			"componentType": 5126,
			"count": 20096,
			"type": "VEC3"
		},
		{
			"bufferView": 2,
			"byteOffset": 0,
			"componentType": 5126,
			"count": 20096,
			"type": "VEC2"
		},
		{
			"bufferView": 3,
			"byteOffset": 0,
			"componentType": 5123,
			"count": 115104,
			"type": "SCALAR"
		},
		{
			"bufferView": 4,
			"byteOffset": 0,
			"componentType": 5126,
			"count": 8356,
			"max": [
				286.08758544921875,
				205.1127471923828,
				-11.881072998046875
			],
			"min": [
				-286.0879821777344,
				167.33383178710938,
				-221.0042266845703
			],
			"type": "VEC3"
		},
		{
			"bufferView": 5,
			"byteOffset": 0,
			"componentType": 5126,
			"count": 8356,
			"type": "VEC3"
		},
		{
			"bufferView": 6,
			"byteOffset": 0,
			"componentType": 5126,
			"count": 8356,
			"type": "VEC2"
		},
		{
			"bufferView": 7,
			"byteOffset": 0,
			"componentType": 5123,
			"count": 48384,
			"type": "SCALAR"
		}
	],
	"asset": {
		"generator": "Gestaltor 2020.2.0 Alpha 'Schokoei' (CI-cce52488*)",
		"version": "2.0"
	},
	"bufferViews": [
		{
			"buffer": 0,
			"byteLength": 241152,
			"byteOffset": 0
		},
		{
			"buffer": 0,
			"byteLength": 241152,
			"byteOffset": 241152
		},
		{
			"buffer": 0,
			"byteLength": 160768,
			"byteOffset": 482304
		},
		{
			"buffer": 0,
			"byteLength": 230208,
			"byteOffset": 643072
		},
		{
			"buffer": 0,
			"byteLength": 100272,
			"byteOffset": 873280
		},
		{
			"buffer": 0,
			"byteLength": 100272,
			"byteOffset": 973552
		},
		{
			"buffer": 0,
			"byteLength": 66848,
			"byteOffset": 1073824
		},
		{
			"buffer": 0,
			"byteLength": 96768,
			"byteOffset": 1140672
		}
	],
	"buffers": [
		{
			"byteLength": 1237440,
			"uri": "Erika_app2.bin"
		}
	],
	"extensionsRequired": [
		"KHR_materials_clearcoat"
	],
	"extensionsUsed": [
		"KHR_materials_clearcoat"
	],
	"images": [
		{
			"mimeType": "image/png",
			"name": "Armacao_complete",
			"uri": "Erika_app2_image_0.png"
		},
		{
			"mimeType": "image/png",
			"name": "Armacao_diffuse",
			"uri": "Erika_app2_image_1.png"
		}
	],
	"materials": [
		{
			"alphaCutoff": 0.5,
			"alphaMode": "OPAQUE",
			"doubleSided": true,
			"emissiveFactor": [
				0.0,
				0.0,
				0.0
			],
			"extensions": {
				"KHR_materials_clearcoat": {
					"clearcoatFactor": 1.0,
					"clearcoatRoughnessFactor": 0.6
				}
			},
			"name": "armacao mat",
			"occlusionTexture": {
				"index": 0,
				"strength": 1.0,
				"texCoord": 0
			},
			"pbrMetallicRoughness": {
				"baseColorTexture": {
					"index": 1,
					"texCoord": 0
				},
				"metallicFactor": 0.0,
				"roughnessFactor": 0.6
			}
		},
		{
			"alphaMode": "BLEND",
			"doubleSided": true,
			"emissiveFactor": [
				0.0,
				0.0,
				0.0
			],
			"extensions": {
				"KHR_materials_clearcoat": {
					"clearcoatFactor": 1.0,
					"clearcoatRoughnessFactor": 1.0
				}
			},
			"name": "Lentes mat",
			"occlusionTexture": {
				"index": 0,
				"strength": 1.0,
				"texCoord": 0
			},
			"pbrMetallicRoughness": {
				"baseColorTexture": {
					"index": 1,
					"texCoord": 0
				},
				"metallicFactor": 0.0,
				"roughnessFactor": 0.1
			}
		}
	],
	"meshes": [
		{
			"name": "Mesh",
			"primitives": [
				{
					"attributes": {
						"NORMAL": 1,
						"POSITION": 0,
						"TEXCOORD_0": 2
					},
					"indices": 3,
					"material": 0,
					"mode": 4
				}
			]
		},
		{
			"name": "Mesh.001",
			"primitives": [
				{
					"attributes": {
						"NORMAL": 5,
						"POSITION": 4,
						"TEXCOORD_0": 6
					},
					"indices": 7,
					"material": 1,
					"mode": 4
				}
			]
		}
	],
	"nodes": [
		{
			"mesh": 0,
			"name": "Armacao",
			"rotation": [
				-0.653677225112915,
				0.0,
				0.0,
				0.7567734718322754
			],
			"scale": [
				-0.0002476900117471814,
				-0.0002476900117471814,
				-0.0002476900117471814
			]
		},
		{
			"mesh": 1,
			"name": "Lentes",
			"rotation": [
				-0.653677225112915,
				0.0,
				0.0,
				0.7567734718322754
			],
			"scale": [
				-0.0002476900117471814,
				-0.0002476900117471814,
				-0.0002476900117471814
			]
		}
	],
	"scene": 0,
	"scenes": [
		{
			"name": "Scene",
			"nodes": [
				0,
				1
			]
		}
	],
	"textures": [
		{
			"source": 0
		},
		{
			"source": 1
		}
	]
}