{
	"accessors": [
		{
			"bufferView": 0,
			"byteOffset": 0,
			"componentType": 5126,
			"count": 37732,
			"max": [
				2.736722230911255,
				1.8829474449157715,
				-0.07926928997039795
			],
			"min": [
				-2.7367217540740967,
				-2.1424198150634766,
				-1.9765024185180664
			],
			"type": "VEC3"
		},
		{
			"bufferView": 1,
			"byteOffset": 0,
			"componentType": 5126,
			"count": 37732,
			"type": "VEC3"
		},
		{
			"bufferView": 2,
			"byteOffset": 0,
			"componentType": 5126,
			"count": 37732,
			"type": "VEC4"
		},
		{
			"bufferView": 3,
			"byteOffset": 0,
			"componentType": 5126,
			"count": 37732,
			"type": "VEC2"
		},
		{
			"bufferView": 4,
			"byteOffset": 0,
			"componentType": 5123,
			"count": 94692,
			"type": "SCALAR"
		},
		{
			"bufferView": 5,
			"byteOffset": 0,
			"componentType": 5126,
			"count": 4240,
			"max": [
				2.342925548553467,
				1.7918609380722046,
				-0.13963723182678223
			],
			"min": [
				-2.342923641204834,
				1.4789646863937378,
				-1.8993749618530273
			],
			"type": "VEC3"
		},
		{
			"bufferView": 6,
			"byteOffset": 0,
			"componentType": 5126,
			"count": 4240,
			"type": "VEC3"
		},
		{
			"bufferView": 7,
			"byteOffset": 0,
			"componentType": 5126,
			"count": 4240,
			"type": "VEC4"
		},
		{
			"bufferView": 8,
			"byteOffset": 0,
			"componentType": 5126,
			"count": 4240,
			"type": "VEC2"
		},
		{
			"bufferView": 9,
			"byteOffset": 0,
			"componentType": 5123,
			"count": 22944,
			"type": "SCALAR"
		}
	],
	"asset": {
		"generator": "Gestaltor 2020.2.1 Alpha 'Zuckerwatte' (CI-38fb8ee1*)",
		"version": "2.0"
	},
	"bufferViews": [
		{
			"buffer": 0,
			"byteLength": 452784,
			"byteOffset": 0
		},
		{
			"buffer": 0,
			"byteLength": 452784,
			"byteOffset": 452784
		},
		{
			"buffer": 0,
			"byteLength": 603712,
			"byteOffset": 905568
		},
		{
			"buffer": 0,
			"byteLength": 301856,
			"byteOffset": 1509280
		},
		{
			"buffer": 0,
			"byteLength": 189384,
			"byteOffset": 1811136
		},
		{
			"buffer": 0,
			"byteLength": 50880,
			"byteOffset": 2000520
		},
		{
			"buffer": 0,
			"byteLength": 50880,
			"byteOffset": 2051400
		},
		{
			"buffer": 0,
			"byteLength": 67840,
			"byteOffset": 2102280
		},
		{
			"buffer": 0,
			"byteLength": 33920,
			"byteOffset": 2170120
		},
		{
			"buffer": 0,
			"byteLength": 45888,
			"byteOffset": 2204040
		}
	],
	"buffers": [
		{
			"byteLength": 2249928,
			"uri": "Ennio.bin"
		}
	],
	"images": [
		{
			"mimeType": "image/jpeg",
			"name": "Ennio_diffuse",
			"uri": "Ennio_diffuse.jpg"
		},
		{
			"mimeType": "image/png",
			"name": "Ennio_ORM",
			"uri": "Ennio_ORM.png"
		}
	],
	"materials": [
		{
			"doubleSided": true,
			"emissiveFactor": [
				0.0,
				0.0,
				0.0
			],
			"name": "Armacao mat",
			"occlusionTexture": {
				"index": 1,
				"strength": 1.0
			},
			"pbrMetallicRoughness": {
				"baseColorTexture": {
					"index": 0,
					"texCoord": 0
				},
				"metallicRoughnessTexture": {
					"index": 1,
					"texCoord": 0
				}
			}
		},
		{
			"alphaMode": "BLEND",
			"doubleSided": true,
			"emissiveFactor": [
				0.0,
				0.0,
				0.0
			],
			"name": "Lentes mat",
			"pbrMetallicRoughness": {
				"baseColorFactor": [
					1.0,
					1.0,
					1.0,
					0.05000000074505806
				],
				"baseColorTexture": {
					"index": 2,
					"texCoord": 0
				},
				"metallicRoughnessTexture": {
					"index": 3,
					"texCoord": 0
				}
			}
		}
	],
	"meshes": [
		{
			"name": "Mesh",
			"primitives": [
				{
					"attributes": {
						"NORMAL": 1,
						"POSITION": 0,
						"TANGENT": 2,
						"TEXCOORD_0": 3
					},
					"indices": 4,
					"material": 0,
					"mode": 4
				}
			]
		},
		{
			"name": "Mesh.001",
			"primitives": [
				{
					"attributes": {
						"NORMAL": 6,
						"POSITION": 5,
						"TANGENT": 7,
						"TEXCOORD_0": 8
					},
					"indices": 9,
					"material": 1,
					"mode": 4
				}
			]
		}
	],
	"nodes": [
		{
			"mesh": 0,
			"name": "armacao",
			"rotation": [
				0.7550904750823975,
				0.0,
				0.0,
				0.6556205749511719
			],
			"scale": [
				0.029462678357958794,
				0.029462680220603943,
				0.029462680220603943
			]
		},
		{
			"mesh": 1,
			"name": "Lentes",
			"rotation": [
				0.7550904750823975,
				0.0,
				0.0,
				0.6556205749511719
			],
			"scale": [
				0.029462678357958794,
				0.029462680220603943,
				0.029462680220603943
			]
		}
	],
	"scene": 0,
	"scenes": [
		{
			"name": "Scene",
			"nodes": [
				0,
				1
			]
		}
	],
	"textures": [
		{
			"source": 0
		},
		{
			"source": 1
		},
		{
			"source": 0
		},
		{
			"source": 1
		}
	]
}