{
	"accessors": [
		{
			"bufferView": 0,
			"byteOffset": 0,
			"componentType": 5126,
			"count": 37732,
			"max": [
				2.736722230911255,
				1.8829474449157715,
				-0.0792696475982666
			],
			"min": [
				-2.7367217540740967,
				-2.1424198150634766,
				-1.9765028953552246
			],
			"type": "VEC3"
		},
		{
			"bufferView": 1,
			"byteOffset": 0,
			"componentType": 5126,
			"count": 37732,
			"type": "VEC3"
		},
		{
			"bufferView": 2,
			"byteOffset": 0,
			"componentType": 5126,
			"count": 37732,
			"type": "VEC2"
		},
		{
			"bufferView": 3,
			"byteOffset": 0,
			"componentType": 5123,
			"count": 94692,
			"type": "SCALAR"
		},
		{
			"bufferView": 4,
			"byteOffset": 0,
			"componentType": 5126,
			"count": 4240,
			"max": [
				2.342925548553467,
				1.7918609380722046,
				-0.13963747024536133
			],
			"min": [
				-2.342923641204834,
				1.4789646863937378,
				-1.8993752002716064
			],
			"type": "VEC3"
		},
		{
			"bufferView": 5,
			"byteOffset": 0,
			"componentType": 5126,
			"count": 4240,
			"type": "VEC3"
		},
		{
			"bufferView": 6,
			"byteOffset": 0,
			"componentType": 5126,
			"count": 4240,
			"type": "VEC2"
		},
		{
			"bufferView": 7,
			"byteOffset": 0,
			"componentType": 5123,
			"count": 22944,
			"type": "SCALAR"
		}
	],
	"asset": {
		"generator": "Gestaltor 2020.2.1 Alpha 'Zuckerwatte' (CI-38fb8ee1*)",
		"version": "2.0"
	},
	"bufferViews": [
		{
			"buffer": 0,
			"byteLength": 452784,
			"byteOffset": 0
		},
		{
			"buffer": 0,
			"byteLength": 452784,
			"byteOffset": 452784
		},
		{
			"buffer": 0,
			"byteLength": 301856,
			"byteOffset": 905568
		},
		{
			"buffer": 0,
			"byteLength": 189384,
			"byteOffset": 1207424
		},
		{
			"buffer": 0,
			"byteLength": 50880,
			"byteOffset": 1396808
		},
		{
			"buffer": 0,
			"byteLength": 50880,
			"byteOffset": 1447688
		},
		{
			"buffer": 0,
			"byteLength": 33920,
			"byteOffset": 1498568
		},
		{
			"buffer": 0,
			"byteLength": 45888,
			"byteOffset": 1532488
		}
	],
	"buffers": [
		{
			"byteLength": 1578376,
			"uri": "Ennio_APP_GLTF.bin"
		}
	],
	"extensions": {
		"KHR_lights_punctual": {
			"lights": [
				{
					"color": [
						0.780392157,
						0.725490196,
						0.690196078
					],
					"intensity": 1.0,
					"name": "LUZ frente",
					"range": 30.0,
					"type": "point"
				},
				{
					"color": [
						0.780392157,
						0.725490196,
						0.690196078
					],
					"intensity": 0.3,
					"name": "LUZ lateral",
					"range": 30.0,
					"type": "point"
				}
			]
		}
	},
	"extensionsRequired": [
		"KHR_lights_punctual"
	],
	"extensionsUsed": [
		"KHR_lights_punctual"
	],
	"images": [
		{
			"mimeType": "image/png",
			"name": "armacao_diffuse",
			"uri": "Ennio_APP_GLTF_image_0.png"
		},
		{
			"mimeType": "image/png",
			"uri": "armacao_roughness.png"
		},
		{
			"mimeType": "image/png",
			"uri": "armacao_normals.png"
		}
	],
	"materials": [
		{
			"doubleSided": false,
			"emissiveFactor": [
				0.0,
				0.0,
				0.0
			],
			"name": "Armacao mat",
			"normalTexture": {
				"index": 2,
				"scale": 1.0
			},
			"pbrMetallicRoughness": {
				"baseColorFactor": [
					1.0,
					1.0,
					1.0,
					1.0
				],
				"baseColorTexture": {
					"index": 0
				},
				"metallicFactor": 0.0,
				"metallicRoughnessTexture": {
					"index": 1
				},
				"roughnessFactor": 1.0
			}
		},
		{
			"alphaMode": "BLEND",
			"doubleSided": false,
			"emissiveFactor": [
				0.0,
				0.0,
				0.0
			],
			"name": "Lentes mat",
			"pbrMetallicRoughness": {
				"baseColorFactor": [
					1.0,
					1.0,
					1.0,
					0.05000000074505806
				],
				"metallicFactor": 0.0,
				"roughnessFactor": 1.0
			}
		}
	],
	"meshes": [
		{
			"name": "Mesh",
			"primitives": [
				{
					"attributes": {
						"NORMAL": 1,
						"POSITION": 0,
						"TEXCOORD_0": 2
					},
					"indices": 3,
					"material": 0,
					"mode": 4
				}
			]
		},
		{
			"name": "Mesh.001",
			"primitives": [
				{
					"attributes": {
						"NORMAL": 5,
						"POSITION": 4,
						"TEXCOORD_0": 6
					},
					"indices": 7,
					"material": 1,
					"mode": 4
				}
			]
		}
	],
	"nodes": [
		{
			"mesh": 0,
			"name": "armacao",
			"rotation": [
				0.7550905346870422,
				0.0,
				0.0,
				0.6556205749511719
			],
			"scale": [
				0.029462680220603943,
				0.029462682083249092,
				0.029462682083249092
			]
		},
		{
			"mesh": 1,
			"name": "Lentes",
			"rotation": [
				0.7550905346870422,
				0.0,
				0.0,
				0.6556205749511719
			],
			"scale": [
				0.029462680220603943,
				0.029462682083249092,
				0.029462682083249092
			]
		},
		{
			"extensions": {
				"KHR_lights_punctual": {
					"light": 0
				}
			},
			"name": "Unnamed Node 2",
			"translation": [
				0.0,
				0.19582895189523697,
				0.44923537969589233
			]
		},
		{
			"extensions": {
				"KHR_lights_punctual": {
					"light": 1
				}
			},
			"name": "Copy of Unnamed Node 2",
			"translation": [
				0.48974382877349854,
				0.05293145775794983,
				-0.01439318060874939
			]
		},
		{
			"extensions": {
				"KHR_lights_punctual": {
					"light": 1
				}
			},
			"name": "Copy of Copy of Unnamed Node 2",
			"translation": [
				-0.5664263963699341,
				0.05293145775794983,
				-0.01439318060874939
			]
		}
	],
	"scene": 0,
	"scenes": [
		{
			"name": "Scene",
			"nodes": [
				0,
				1,
				2,
				3,
				4
			]
		}
	],
	"textures": [
		{
			"source": 0
		},
		{
			"name": "roughness",
			"source": 1
		},
		{
			"name": "normals",
			"source": 2
		}
	]
}