{
	"accessors": [
		{
			"bufferView": 0,
			"byteOffset": 0,
			"componentType": 5126,
			"count": 11733,
			"max": [
				73.40203094482422,
				47.3006706237793,
				-8.635761260986328
			],
			"min": [
				-73.40203094482422,
				-55.728031158447266,
				-51.81507110595703
			],
			"type": "VEC3"
		},
		{
			"bufferView": 1,
			"byteOffset": 0,
			"componentType": 5126,
			"count": 11733,
			"type": "VEC3"
		},
		{
			"bufferView": 2,
			"byteOffset": 0,
			"componentType": 5126,
			"count": 11733,
			"type": "VEC2"
		},
		{
			"bufferView": 3,
			"byteOffset": 0,
			"componentType": 5123,
			"count": 65388,
			"type": "SCALAR"
		},
		{
			"bufferView": 4,
			"byteOffset": 0,
			"componentType": 5126,
			"count": 5140,
			"max": [
				64.25215911865234,
				46.37287139892578,
				-10.227424621582031
			],
			"min": [
				-64.25214385986328,
				37.89459991455078,
				-49.90093994140625
			],
			"type": "VEC3"
		},
		{
			"bufferView": 5,
			"byteOffset": 0,
			"componentType": 5126,
			"count": 5140,
			"type": "VEC3"
		},
		{
			"bufferView": 6,
			"byteOffset": 0,
			"componentType": 5126,
			"count": 5140,
			"type": "VEC2"
		},
		{
			"bufferView": 7,
			"byteOffset": 0,
			"componentType": 5123,
			"count": 29760,
			"type": "SCALAR"
		},
		{
			"bufferView": 8,
			"byteOffset": 0,
			"componentType": 5126,
			"count": 5637,
			"max": [
				70.69255828857422,
				47.55787658691406,
				-8.646015167236328
			],
			"min": [
				-70.69255065917969,
				35.37882995605469,
				-51.80476379394531
			],
			"type": "VEC3"
		},
		{
			"bufferView": 9,
			"byteOffset": 0,
			"componentType": 5126,
			"count": 5637,
			"type": "VEC3"
		},
		{
			"bufferView": 10,
			"byteOffset": 0,
			"componentType": 5126,
			"count": 5637,
			"type": "VEC2"
		},
		{
			"bufferView": 11,
			"byteOffset": 0,
			"componentType": 5123,
			"count": 32004,
			"type": "SCALAR"
		}
	],
	"asset": {
		"generator": "Gestaltor 2020.2.0 Alpha 'Schokoei' (CI-cce52488*)",
		"version": "2.0"
	},
	"bufferViews": [
		{
			"buffer": 0,
			"byteLength": 140796,
			"byteOffset": 0
		},
		{
			"buffer": 0,
			"byteLength": 140796,
			"byteOffset": 140796
		},
		{
			"buffer": 0,
			"byteLength": 93864,
			"byteOffset": 281592
		},
		{
			"buffer": 0,
			"byteLength": 130776,
			"byteOffset": 375456
		},
		{
			"buffer": 0,
			"byteLength": 61680,
			"byteOffset": 506232
		},
		{
			"buffer": 0,
			"byteLength": 61680,
			"byteOffset": 567912
		},
		{
			"buffer": 0,
			"byteLength": 41120,
			"byteOffset": 629592
		},
		{
			"buffer": 0,
			"byteLength": 59520,
			"byteOffset": 670712
		},
		{
			"buffer": 0,
			"byteLength": 67644,
			"byteOffset": 730232
		},
		{
			"buffer": 0,
			"byteLength": 67644,
			"byteOffset": 797876
		},
		{
			"buffer": 0,
			"byteLength": 45096,
			"byteOffset": 865520
		},
		{
			"buffer": 0,
			"byteLength": 64008,
			"byteOffset": 910616
		}
	],
	"buffers": [
		{
			"byteLength": 974624,
			"uri": "Rb_7108L_app.bin"
		}
	],
	"images": [
		{
			"mimeType": "image/png",
			"name": "Armacao_diffuse",
			"uri": "Rb_7108L_app_image_0.png"
		},
		{
			"mimeType": "image/png",
			"name": "RB7108L_occlusion",
			"uri": "Rb_7108L_app_image_1.png"
		}
	],
	"materials": [
		{
			"doubleSided": true,
			"emissiveFactor": [
				0.0,
				0.0,
				0.0
			],
			"name": "Armacao mat",
			"occlusionTexture": {
				"index": 1,
				"strength": 1.0,
				"texCoord": 0
			},
			"pbrMetallicRoughness": {
				"baseColorTexture": {
					"index": 0,
					"texCoord": 0
				},
				"metallicFactor": 0.0,
				"roughnessFactor": 0.2
			}
		},
		{
			"alphaMode": "BLEND",
			"doubleSided": true,
			"emissiveFactor": [
				0.0,
				0.0,
				0.0
			],
			"name": "Lentes mat",
			"occlusionTexture": {
				"index": 1,
				"strength": 1.0,
				"texCoord": 0
			},
			"pbrMetallicRoughness": {
				"baseColorTexture": {
					"index": 0,
					"texCoord": 0
				},
				"metallicFactor": 0.0,
				"roughnessFactor": 0.1
			}
		},
		{
			"doubleSided": true,
			"emissiveFactor": [
				0.0,
				0.0,
				0.0
			],
			"name": "Det. Frente mat",
			"occlusionTexture": {
				"index": 1,
				"strength": 1.0,
				"texCoord": 0
			},
			"pbrMetallicRoughness": {
				"baseColorTexture": {
					"index": 0,
					"texCoord": 0
				},
				"metallicFactor": 0.0,
				"roughnessFactor": 0.2
			}
		}
	],
	"meshes": [
		{
			"name": "Mesh",
			"primitives": [
				{
					"attributes": {
						"NORMAL": 1,
						"POSITION": 0,
						"TEXCOORD_0": 2
					},
					"indices": 3,
					"material": 0,
					"mode": 4
				}
			]
		},
		{
			"name": "Mesh.001",
			"primitives": [
				{
					"attributes": {
						"NORMAL": 5,
						"POSITION": 4,
						"TEXCOORD_0": 6
					},
					"indices": 7,
					"material": 1,
					"mode": 4
				}
			]
		},
		{
			"name": "Mesh.002",
			"primitives": [
				{
					"attributes": {
						"NORMAL": 9,
						"POSITION": 8,
						"TEXCOORD_0": 10
					},
					"indices": 11,
					"material": 2,
					"mode": 4
				}
			]
		}
	],
	"nodes": [
		{
			"mesh": 0,
			"name": "Armacao",
			"rotation": [
				-0.6558841466903687,
				0.0,
				0.0,
				0.7548615336418152
			],
			"scale": [
				-0.0010920499917119741,
				-0.0010920499917119741,
				-0.0010466700186952949
			]
		},
		{
			"mesh": 1,
			"name": "Lentes",
			"rotation": [
				-0.6558841466903687,
				0.0,
				0.0,
				0.7548615336418152
			],
			"scale": [
				-0.0010920499917119741,
				-0.0010920499917119741,
				-0.0010466700186952949
			]
		},
		{
			"mesh": 2,
			"name": "Det frente",
			"rotation": [
				-0.6558841466903687,
				0.0,
				0.0,
				0.7548615336418152
			],
			"scale": [
				-0.0010920499917119741,
				-0.0010920499917119741,
				-0.0010466700186952949
			]
		}
	],
	"scene": 0,
	"scenes": [
		{
			"name": "Scene",
			"nodes": [
				0,
				1,
				2
			]
		}
	],
	"textures": [
		{
			"source": 0
		},
		{
			"source": 1
		}
	]
}