{
	"accessors": [
		{
			"bufferView": 0,
			"byteOffset": 0,
			"componentType": 5126,
			"count": 25510,
			"max": [
				20.539714813232422,
				29.821374893188477,
				-3.0659027099609375
			],
			"min": [
				-20.539718627929688,
				-34.63998794555664,
				-31.098989486694336
			],
			"type": "VEC3"
		},
		{
			"bufferView": 1,
			"byteOffset": 0,
			"componentType": 5126,
			"count": 25510,
			"type": "VEC3"
		},
		{
			"bufferView": 2,
			"byteOffset": 0,
			"componentType": 5126,
			"count": 25510,
			"type": "VEC2"
		},
		{
			"bufferView": 3,
			"byteOffset": 0,
			"componentType": 5123,
			"count": 121968,
			"type": "SCALAR"
		},
		{
			"bufferView": 4,
			"byteOffset": 0,
			"componentType": 5126,
			"count": 2180,
			"max": [
				17.442630767822266,
				29.140012741088867,
				-3.336639404296875
			],
			"min": [
				-17.442636489868164,
				26.872901916503906,
				-30.735849380493164
			],
			"type": "VEC3"
		},
		{
			"bufferView": 5,
			"byteOffset": 0,
			"componentType": 5126,
			"count": 2180,
			"type": "VEC3"
		},
		{
			"bufferView": 6,
			"byteOffset": 0,
			"componentType": 5126,
			"count": 2180,
			"type": "VEC2"
		},
		{
			"bufferView": 7,
			"byteOffset": 0,
			"componentType": 5123,
			"count": 12672,
			"type": "SCALAR"
		},
		{
			"bufferView": 8,
			"byteOffset": 0,
			"componentType": 5126,
			"count": 2098,
			"max": [
				20.563568115234375,
				20.402881622314453,
				-10.35809326171875
			],
			"min": [
				-20.563568115234375,
				-34.600399017333984,
				-25.95958137512207
			],
			"type": "VEC3"
		},
		{
			"bufferView": 9,
			"byteOffset": 0,
			"componentType": 5126,
			"count": 2098,
			"type": "VEC3"
		},
		{
			"bufferView": 10,
			"byteOffset": 0,
			"componentType": 5126,
			"count": 2098,
			"type": "VEC2"
		},
		{
			"bufferView": 11,
			"byteOffset": 0,
			"componentType": 5123,
			"count": 12096,
			"type": "SCALAR"
		},
		{
			"bufferView": 12,
			"byteOffset": 0,
			"componentType": 5126,
			"count": 3584,
			"max": [
				3.4522523880004883,
				27.185455322265625,
				-12.048614501953125
			],
			"min": [
				-3.4522571563720703,
				23.421876907348633,
				-19.811077117919922
			],
			"type": "VEC3"
		},
		{
			"bufferView": 13,
			"byteOffset": 0,
			"componentType": 5126,
			"count": 3584,
			"type": "VEC3"
		},
		{
			"bufferView": 14,
			"byteOffset": 0,
			"componentType": 5126,
			"count": 3584,
			"type": "VEC2"
		},
		{
			"bufferView": 15,
			"byteOffset": 0,
			"componentType": 5123,
			"count": 5376,
			"type": "SCALAR"
		}
	],
	"asset": {
		"generator": "Gestaltor 2020.2.0 Alpha 'Schokoei' (CI-cce52488*)",
		"version": "2.0"
	},
	"bufferViews": [
		{
			"buffer": 0,
			"byteLength": 306120,
			"byteOffset": 0
		},
		{
			"buffer": 0,
			"byteLength": 306120,
			"byteOffset": 306120
		},
		{
			"buffer": 0,
			"byteLength": 204080,
			"byteOffset": 612240
		},
		{
			"buffer": 0,
			"byteLength": 243936,
			"byteOffset": 816320
		},
		{
			"buffer": 0,
			"byteLength": 26160,
			"byteOffset": 1060256
		},
		{
			"buffer": 0,
			"byteLength": 26160,
			"byteOffset": 1086416
		},
		{
			"buffer": 0,
			"byteLength": 17440,
			"byteOffset": 1112576
		},
		{
			"buffer": 0,
			"byteLength": 25344,
			"byteOffset": 1130016
		},
		{
			"buffer": 0,
			"byteLength": 25176,
			"byteOffset": 1155360
		},
		{
			"buffer": 0,
			"byteLength": 25176,
			"byteOffset": 1180536
		},
		{
			"buffer": 0,
			"byteLength": 16784,
			"byteOffset": 1205712
		},
		{
			"buffer": 0,
			"byteLength": 24192,
			"byteOffset": 1222496
		},
		{
			"buffer": 0,
			"byteLength": 43008,
			"byteOffset": 1246688
		},
		{
			"buffer": 0,
			"byteLength": 43008,
			"byteOffset": 1289696
		},
		{
			"buffer": 0,
			"byteLength": 28672,
			"byteOffset": 1332704
		},
		{
			"buffer": 0,
			"byteLength": 10752,
			"byteOffset": 1361376
		}
	],
	"buffers": [
		{
			"byteLength": 1372128,
			"uri": "RB_6375_app.bin"
		}
	],
	"images": [
		{
			"mimeType": "image/png",
			"name": "RB6375_diffuse",
			"uri": "RB_6375_app_image_0.png"
		},
		{
			"mimeType": "image/png",
			"name": "RB6375_occlusion",
			"uri": "RB_6375_app_image_1.png"
		}
	],
	"materials": [
		{
			"doubleSided": true,
			"emissiveFactor": [
				0.0,
				0.0,
				0.0
			],
			"name": "armacao\t",
			"occlusionTexture": {
				"index": 1,
				"strength": 1.0,
				"texCoord": 0
			},
			"pbrMetallicRoughness": {
				"baseColorTexture": {
					"index": 0,
					"texCoord": 0
				},
				"metallicFactor": 1.0,
				"roughnessFactor": 0.1
			}
		},
		{
			"alphaMode": "BLEND",
			"doubleSided": true,
			"emissiveFactor": [
				0.0,
				0.0,
				0.0
			],
			"name": "Lentes",
			"occlusionTexture": {
				"index": 1,
				"strength": 1.0,
				"texCoord": 0
			},
			"pbrMetallicRoughness": {
				"baseColorTexture": {
					"index": 0,
					"texCoord": 0
				},
				"metallicFactor": 0.0,
				"roughnessFactor": 0.1
			}
		},
		{
			"doubleSided": true,
			"emissiveFactor": [
				0.0,
				0.0,
				0.0
			],
			"name": "Detalhe hastes",
			"occlusionTexture": {
				"index": 1,
				"strength": 1.0,
				"texCoord": 0
			},
			"pbrMetallicRoughness": {
				"baseColorFactor": [
					0.0313725508749485,
					0.0313725508749485,
					0.0313725508749485,
					1.0
				],
				"baseColorTexture": {
					"index": 0,
					"texCoord": 0
				},
				"metallicFactor": 0.0,
				"roughnessFactor": 0.6
			}
		},
		{
			"alphaMode": "BLEND",
			"doubleSided": true,
			"emissiveFactor": [
				0.0,
				0.0,
				0.0
			],
			"name": "Pontes",
			"occlusionTexture": {
				"index": 1,
				"strength": 1.0,
				"texCoord": 0
			},
			"pbrMetallicRoughness": {
				"baseColorFactor": [
					0.6392157077789307,
					0.6392157077789307,
					0.6392157077789307,
					1.0
				],
				"baseColorTexture": {
					"index": 0,
					"texCoord": 0
				},
				"metallicFactor": 0.0,
				"roughnessFactor": 0.3
			}
		}
	],
	"meshes": [
		{
			"name": "Mesh",
			"primitives": [
				{
					"attributes": {
						"NORMAL": 1,
						"POSITION": 0,
						"TEXCOORD_0": 2
					},
					"indices": 3,
					"material": 0,
					"mode": 4
				}
			]
		},
		{
			"name": "Mesh.001",
			"primitives": [
				{
					"attributes": {
						"NORMAL": 5,
						"POSITION": 4,
						"TEXCOORD_0": 6
					},
					"indices": 7,
					"material": 1,
					"mode": 4
				}
			]
		},
		{
			"name": "Mesh.002",
			"primitives": [
				{
					"attributes": {
						"NORMAL": 9,
						"POSITION": 8,
						"TEXCOORD_0": 10
					},
					"indices": 11,
					"material": 2,
					"mode": 4
				}
			]
		},
		{
			"name": "Mesh.003",
			"primitives": [
				{
					"attributes": {
						"NORMAL": 13,
						"POSITION": 12,
						"TEXCOORD_0": 14
					},
					"indices": 15,
					"material": 3,
					"mode": 4
				}
			]
		}
	],
	"nodes": [
		{
			"mesh": 0,
			"name": "armacao",
			"rotation": [
				-0.6558742523193359,
				0.0,
				0.0,
				0.7548701763153076
			],
			"scale": [
				-0.003907330334186554,
				-0.0017881500534713268,
				-0.0017881500534713268
			]
		},
		{
			"mesh": 1,
			"name": "Lentes",
			"rotation": [
				-0.6558742523193359,
				0.0,
				0.0,
				0.7548701763153076
			],
			"scale": [
				-0.003907330334186554,
				-0.0017881500534713268,
				-0.0017881500534713268
			]
		},
		{
			"mesh": 2,
			"name": "det hastes",
			"rotation": [
				-0.6558742523193359,
				0.0,
				0.0,
				0.7548701763153076
			],
			"scale": [
				-0.003907330334186554,
				-0.0017881500534713268,
				-0.0017881500534713268
			]
		},
		{
			"mesh": 3,
			"name": "Pontes",
			"rotation": [
				-0.6558742523193359,
				0.0,
				0.0,
				0.7548701763153076
			],
			"scale": [
				-0.003907330334186554,
				-0.0017881500534713268,
				-0.0017881500534713268
			]
		}
	],
	"scene": 0,
	"scenes": [
		{
			"name": "Scene",
			"nodes": [
				0,
				1,
				2,
				3
			]
		}
	],
	"textures": [
		{
			"source": 0
		},
		{
			"source": 1
		}
	]
}